font.ufo
<glyph name="quotedbl" format="1">
  <advance width="409"/>
  <unicode hex="0022"/>
  <outline>
    <contour>
      <point x="152" y="591" type="line"/>
      <point x="157" y="793" type="line"/>
      <point x="76" y="793" type="line"/>
      <point x="82" y="591" type="line"/>
    </contour>
    <contour>
      <point x="327" y="591" type="line"/>
      <point x="333" y="793" type="line"/>
      <point x="252" y="793" type="line"/>
      <point x="258" y="591" type="line"/>
    </contour>
  </outline>
</glyph>
<glyph name="numbersign" format="1">
  <advance width="624"/>
  <unicode hex="0023"/>
  <outline>
    <contour>
      <point x="46" y="234" type="line"/>
      <point x="498" y="234" type="line"/>
      <point x="516" y="294" type="line"/>
      <point x="63" y="294" type="line"/>
    </contour>
    <contour>
      <point x="107" y="465" type="line"/>
      <point x="561" y="465" type="line"/>
      <point x="578" y="525" type="line"/>
      <point x="124" y="525" type="line"/>
    </contour>
    <contour>
      <point x="377" y="39" type="line"/>
      <point x="568" y="722" type="line"/>
      <point x="492" y="722" type="line"/>
      <point x="301" y="39" type="line"/>
    </contour>
    <contour>
      <point x="140" y="46" type="line"/>
      <point x="328" y="722" type="line"/>
      <point x="253" y="722" type="line"/>
      <point x="67" y="46" type="line"/>
    </contour>
  </outline>
</glyph>
<glyph name="dollar" format="1">
  <advance width="527"/>
  <unicode hex="0024"/>
  <outline>
    <contour>
      <point x="122" y="96" type="curve"/>
      <point x="122" y="216"/>
      <point x="122" y="99"/>
      <point x="122" y="219" type="curve"/>
      <point x="62" y="219"/>
      <point x="122" y="219"/>
      <point x="62" y="219" type="curve"/>
      <point x="62" y="99"/>
      <point x="62" y="216"/>
      <point x="62" y="96" type="curve"/>
      <point x="122" y="96"/>
      <point x="62" y="96"/>
    </contour>
    <contour>
      <point x="388" y="633" type="curve"/>
      <point x="388" y="513"/>
      <point x="388" y="630"/>
      <point x="388" y="510" type="curve"/>
      <point x="449" y="510"/>
      <point x="388" y="510"/>
      <point x="449" y="510" type="curve"/>
      <point x="449" y="630"/>
      <point x="449" y="513"/>
      <point x="449" y="633" type="curve"/>
      <point x="388" y="633"/>
      <point x="449" y="633"/>
    </contour>
    <contour>
      <point x="287" y="-42" type="curve"/>
      <point x="287" y="-10"/>
      <point x="287" y="43"/>
      <point x="287" y="75" type="curve"/>
      <point x="211" y="75"/>
      <point x="287" y="75"/>
      <point x="211" y="75" type="curve"/>
      <point x="211" y="43"/>
      <point x="211" y="-10"/>
      <point x="211" y="-42" type="curve"/>
      <point x="287" y="-42"/>
      <point x="211" y="-42"/>
    </contour>
    <contour>
      <point x="298" y="654" type="curve"/>
      <point x="298" y="687"/>
      <point x="298" y="741"/>
      <point x="298" y="773" type="curve"/>
      <point x="222" y="773"/>
      <point x="298" y="773"/>
      <point x="222" y="773" type="curve"/>
      <point x="222" y="741"/>
      <point x="222" y="687"/>
      <point x="222" y="654" type="curve"/>
      <point x="298" y="654"/>
      <point x="222" y="654"/>
    </contour>
    <contour>
      <point x="62" y="96" type="curve"/>
      <point x="112" y="68"/>
      <point x="174" y="45"/>
      <point x="246" y="45" type="curve"/>
      <point x="376" y="45"/>
      <point x="476" y="101"/>
      <point x="476" y="208" type="curve"/>
      <point x="476" y="306"/>
      <point x="385" y="354"/>
      <point x="284" y="401" type="curve"/>
      <point x="209" y="437"/>
      <point x="147" y="465"/>
      <point x="147" y="533" type="curve"/>
      <point x="147" y="591"/>
      <point x="195" y="626"/>
      <point x="263" y="626" type="curve"/>
      <point x="321" y="626"/>
      <point x="361" y="610"/>
      <point x="410" y="583" type="curve"/>
      <point x="449" y="633"/>
      <point x="410" y="583"/>
      <point x="449" y="633" type="curve"/>
      <point x="388" y="667"/>
      <point x="338" y="685"/>
      <point x="266" y="685" type="curve"/>
      <point x="152" y="685"/>
      <point x="71" y="630"/>
      <point x="71" y="533" type="curve"/>
      <point x="71" y="438"/>
      <point x="143" y="392"/>
      <point x="240" y="347" type="curve"/>
      <point x="321" y="311"/>
      <point x="400" y="279"/>
      <point x="400" y="205" type="curve"/>
      <point x="400" y="138"/>
      <point x="336" y="105"/>
      <point x="253" y="105" type="curve"/>
      <point x="194" y="105"/>
      <point x="144" y="128"/>
      <point x="103" y="149" type="curve"/>
      <point x="62" y="96"/>
      <point x="103" y="149"/>
    </contour>
  </outline>
</glyph>
<glyph name="percent" format="1">
  <advance width="976"/>
  <unicode hex="0025"/>
  <outline>
    <contour>
      <point x="343" y="-68" type="line"/>
      <point x="720" y="736" type="line"/>
      <point x="647" y="736" type="line"/>
      <point x="271" y="-68" type="line"/>
    </contour>
    <contour>
      <point x="107" y="528" type="curve"/>
      <point x="107" y="616"/>
      <point x="133" y="684"/>
      <point x="214" y="684" type="curve"/>
      <point x="294" y="685"/>
      <point x="322" y="617"/>
      <point x="322" y="528" type="curve"/>
      <point x="322" y="439"/>
      <point x="298" y="369"/>
      <point x="218" y="369" type="curve"/>
      <point x="135" y="369"/>
      <point x="107" y="437"/>
      <point x="107" y="528" type="curve"/>
      <point x="82" y="528"/>
      <point x="65" y="528"/>
      <point x="39" y="528" type="curve"/>
      <point x="39" y="402"/>
      <point x="96" y="313"/>
      <point x="215" y="313" type="curve"/>
      <point x="335" y="313"/>
      <point x="392" y="403"/>
      <point x="392" y="531" type="curve"/>
      <point x="392" y="654"/>
      <point x="335" y="741"/>
      <point x="217" y="740" type="curve"/>
      <point x="98" y="740"/>
      <point x="39" y="653"/>
      <point x="39" y="528" type="curve"/>
      <point x="65" y="528"/>
      <point x="82" y="528"/>
    </contour>
    <contour>
      <point x="650" y="142" type="curve"/>
      <point x="650" y="230"/>
      <point x="677" y="298"/>
      <point x="758" y="298" type="curve"/>
      <point x="839" y="299"/>
      <point x="866" y="231"/>
      <point x="866" y="142" type="curve"/>
      <point x="866" y="53"/>
      <point x="842" y="-17"/>
      <point x="762" y="-17" type="curve"/>
      <point x="679" y="-17"/>
      <point x="650" y="51"/>
      <point x="650" y="142" type="curve"/>
      <point x="625" y="142"/>
      <point x="608" y="142"/>
      <point x="583" y="142" type="curve"/>
      <point x="583" y="16"/>
      <point x="640" y="-73"/>
      <point x="759" y="-73" type="curve"/>
      <point x="879" y="-73"/>
      <point x="936" y="17"/>
      <point x="936" y="145" type="curve"/>
      <point x="936" y="269"/>
      <point x="879" y="355"/>
      <point x="761" y="355" type="curve"/>
      <point x="642" y="355"/>
      <point x="583" y="267"/>
      <point x="583" y="142" type="curve"/>
      <point x="608" y="142"/>
      <point x="625" y="142"/>
    </contour>
  </outline>
</glyph>
<glyph name="ampersand" format="1">
  <advance width="629"/>
  <unicode hex="0026"/>
  <outline>
    <contour>
      <point x="606" y="28" type="line"/>
      <point x="511" y="134"/>
      <point x="412" y="253"/>
      <point x="314" y="362" type="curve"/>
      <point x="261" y="426"/>
      <point x="192" y="478"/>
      <point x="192" y="565" type="curve"/>
      <point x="192" y="622"/>
      <point x="218" y="667"/>
      <point x="270" y="667" type="curve"/>
      <point x="326" y="667"/>
      <point x="357" y="626"/>
      <point x="357" y="567" type="curve"/>
      <point x="357" y="486"/>
      <point x="300" y="445"/>
      <point x="231" y="402" type="curve"/>
      <point x="139" y="343"/>
      <point x="59" y="294"/>
      <point x="59" y="187" type="curve"/>
      <point x="59" y="68"/>
      <point x="143" y="-5"/>
      <point x="264" y="-5" type="curve"/>
      <point x="444" y="-5"/>
      <point x="528" y="135"/>
      <point x="581" y="315" type="curve"/>
      <point x="515" y="330"/>
      <point x="581" y="315"/>
      <point x="515" y="330" type="curve"/>
      <point x="471" y="181"/>
      <point x="411" y="55"/>
      <point x="268" y="55" type="curve"/>
      <point x="187" y="55"/>
      <point x="135" y="106"/>
      <point x="135" y="187" type="curve"/>
      <point x="135" y="269"/>
      <point x="195" y="309"/>
      <point x="265" y="353" type="curve"/>
      <point x="354" y="411"/>
      <point x="433" y="462"/>
      <point x="433" y="567" type="curve"/>
      <point x="433" y="665"/>
      <point x="370" y="727"/>
      <point x="273" y="727" type="curve"/>
      <point x="178" y="727"/>
      <point x="119" y="662"/>
      <point x="119" y="565" type="curve"/>
      <point x="119" y="463"/>
      <point x="193" y="401"/>
      <point x="261" y="326" type="curve"/>
      <point x="354" y="218"/>
      <point x="463" y="92"/>
      <point x="555" y="-12" type="curve"/>
    </contour>
  </outline>
</glyph>
<glyph name="quotesingle" format="1">
  <advance width="233"/>
  <unicode hex="0027"/>
  <outline>
    <contour>
      <point x="152" y="591" type="line"/>
      <point x="157" y="793" type="line"/>
      <point x="76" y="793" type="line"/>
      <point x="82" y="591" type="line"/>
    </contour>
  </outline>
</glyph>
<glyph name="parenleft" format="1">
  <advance width="335"/>
  <unicode hex="0028"/>
  <outline>
    <contour>
      <point x="326" y="-222" type="curve"/>
      <point x="178" y="-54"/>
      <point x="126" y="102"/>
      <point x="126" y="326" type="curve"/>
      <point x="126" y="551"/>
      <point x="180" y="706"/>
      <point x="324" y="876" type="curve"/>
      <point x="278" y="915"/>
      <point x="324" y="876"/>
      <point x="278" y="915" type="curve"/>
      <point x="119" y="733"/>
      <point x="51" y="570"/>
      <point x="51" y="326" type="curve"/>
      <point x="51" y="82"/>
      <point x="120" y="-81"/>
      <point x="279" y="-264" type="curve"/>
      <point x="326" y="-222"/>
      <point x="279" y="-264"/>
    </contour>
  </outline>
</glyph>
<glyph name="parenright" format="1">
  <advance width="343"/>
  <unicode hex="0029"/>
  <outline>
    <contour>
      <point x="52" y="-279" type="curve"/>
      <point x="213" y="-88"/>
      <point x="293" y="76"/>
      <point x="293" y="328" type="curve"/>
      <point x="293" y="574"/>
      <point x="220" y="736"/>
      <point x="55" y="916" type="curve"/>
      <point x="10" y="875"/>
      <point x="55" y="916"/>
      <point x="10" y="875" type="curve"/>
      <point x="159" y="706"/>
      <point x="218" y="551"/>
      <point x="218" y="325" type="curve"/>
      <point x="218" y="94"/>
      <point x="151" y="-61"/>
      <point x="5" y="-240" type="curve"/>
      <point x="52" y="-279"/>
      <point x="5" y="-240"/>
    </contour>
  </outline>
</glyph>
<glyph name="plus" format="1">
  <advance width="634"/>
  <unicode hex="002B"/>
  <outline>
    <contour>
      <point x="49" y="279" type="curve"/>
      <point x="584" y="279" type="line"/>
      <point x="584" y="344"/>
      <point x="584" y="279"/>
      <point x="584" y="344" type="curve"/>
      <point x="49" y="344" type="line"/>
      <point x="49" y="279"/>
      <point x="49" y="344"/>
    </contour>
    <contour>
      <point x="352" y="30" type="curve"/>
      <point x="352" y="585" type="line"/>
      <point x="276" y="585"/>
      <point x="356" y="585"/>
      <point x="280" y="585" type="curve"/>
      <point x="280" y="30" type="line"/>
      <point x="356" y="30"/>
      <point x="276" y="30"/>
    </contour>
  </outline>
</glyph>
<glyph name="hyphen" format="1">
  <advance width="414"/>
  <unicode hex="002D"/>
  <outline>
    <contour>
      <point x="79" y="244" type="curve"/>
      <point x="165" y="244"/>
      <point x="250" y="244"/>
      <point x="335" y="244" type="curve"/>
      <point x="335" y="310"/>
      <point x="335" y="244"/>
      <point x="335" y="310" type="curve"/>
      <point x="250" y="310"/>
      <point x="165" y="310"/>
      <point x="79" y="310" type="curve"/>
      <point x="79" y="244"/>
      <point x="79" y="310"/>
    </contour>
  </outline>
</glyph>
<glyph name="period" format="1">
  <advance width="236"/>
  <unicode hex="002E"/>
  <outline>
    <contour>
      <point x="162" y="33" type="curve"/>
      <point x="162" y="60"/>
      <point x="143" y="74"/>
      <point x="117" y="74" type="curve"/>
      <point x="91" y="74"/>
      <point x="75" y="59"/>
      <point x="75" y="33" type="curve"/>
      <point x="158" y="33"/>
      <point x="78" y="33"/>
      <point x="162" y="33" type="curve"/>
      <point x="162" y="6"/>
      <point x="144" y="-7"/>
      <point x="117" y="-7" type="curve"/>
      <point x="91" y="-7"/>
      <point x="75" y="7"/>
      <point x="75" y="33" type="curve"/>
      <point x="158" y="33"/>
      <point x="78" y="33"/>
    </contour>
  </outline>
</glyph>
<glyph name="slash" format="1">
  <advance width="518"/>
  <unicode hex="002F"/>
  <outline>
    <contour>
      <point x="109" y="-44" type="curve"/>
      <point x="234" y="243"/>
      <point x="360" y="530"/>
      <point x="485" y="817" type="curve"/>
      <point x="409" y="817"/>
      <point x="485" y="817"/>
      <point x="409" y="817" type="curve"/>
      <point x="284" y="530"/>
      <point x="158" y="243"/>
      <point x="33" y="-44" type="curve"/>
      <point x="109" y="-44"/>
      <point x="33" y="-44"/>
    </contour>
  </outline>
</glyph>
<glyph name="one" format="1">
  <advance width="422"/>
  <unicode hex="0031"/>
  <outline>
    <contour>
      <point x="251" y="0" type="curve"/>
      <point x="296" y="0"/>
      <point x="342" y="0"/>
      <point x="389" y="0" type="curve"/>
      <point x="389" y="60"/>
      <point x="389" y="0"/>
      <point x="389" y="60" type="curve"/>
      <point x="251" y="60"/>
      <point x="389" y="60"/>
      <point x="251" y="60" type="curve"/>
      <point x="251" y="0"/>
      <point x="251" y="60"/>
    </contour>
    <contour>
      <point x="251" y="60" type="curve"/>
      <point x="108" y="60"/>
      <point x="251" y="60"/>
      <point x="108" y="60" type="curve"/>
      <point x="108" y="0"/>
      <point x="108" y="60"/>
      <point x="108" y="0" type="curve"/>
      <point x="156" y="0"/>
      <point x="203" y="0"/>
      <point x="251" y="0" type="curve"/>
      <point x="251" y="60"/>
      <point x="251" y="0"/>
    </contour>
    <contour>
      <point x="77" y="510" type="curve"/>
      <point x="268" y="685"/>
      <point x="77" y="510"/>
      <point x="268" y="685" type="curve"/>
      <point x="211" y="722"/>
      <point x="268" y="685"/>
      <point x="211" y="722" type="curve"/>
      <point x="34" y="559"/>
      <point x="211" y="722"/>
      <point x="34" y="559" type="curve"/>
      <point x="77" y="510"/>
      <point x="34" y="559"/>
    </contour>
    <contour>
      <point x="287" y="0" type="curve"/>
      <point x="287" y="241"/>
      <point x="287" y="481"/>
      <point x="287" y="722" type="curve"/>
      <point x="211" y="722"/>
      <point x="287" y="722"/>
      <point x="211" y="722" type="curve"/>
      <point x="211" y="481"/>
      <point x="211" y="241"/>
      <point x="211" y="0" type="curve"/>
      <point x="287" y="0"/>
      <point x="211" y="0"/>
    </contour>
  </outline>
</glyph>
<glyph name="two" format="1">
  <advance width="550"/>
  <unicode hex="0032"/>
  <outline>
    <contour>
      <point x="482" y="60" type="curve"/>
      <point x="482" y="172"/>
      <point x="482" y="55"/>
      <point x="482" y="167" type="curve"/>
      <point x="422" y="167"/>
      <point x="482" y="167"/>
      <point x="422" y="167" type="curve"/>
      <point x="422" y="55"/>
      <point x="422" y="172"/>
      <point x="422" y="60" type="curve"/>
      <point x="482" y="60"/>
      <point x="422" y="60"/>
    </contour>
    <contour>
      <point x="50" y="0" type="curve"/>
      <point x="215" y="0"/>
      <point x="352" y="0"/>
      <point x="482" y="0" type="curve"/>
      <point x="482" y="60"/>
      <point x="482" y="0"/>
      <point x="482" y="60" type="curve"/>
      <point x="340" y="60"/>
      <point x="193" y="60"/>
      <point x="50" y="60" type="curve"/>
      <point x="50" y="0"/>
      <point x="50" y="60"/>
    </contour>
    <contour>
      <point x="114" y="542" type="curve"/>
      <point x="153" y="612"/>
      <point x="188" y="664"/>
      <point x="264" y="664" type="curve"/>
      <point x="346" y="664"/>
      <point x="386" y="607"/>
      <point x="386" y="516" type="curve"/>
      <point x="386" y="405"/>
      <point x="313" y="320"/>
      <point x="247" y="257" type="curve"/>
      <point x="181" y="191"/>
      <point x="117" y="126"/>
      <point x="50" y="60" type="curve"/>
      <point x="56" y="0"/>
      <point x="50" y="60"/>
      <point x="56" y="0" type="curve"/>
      <point x="156" y="66"/>
      <point x="225" y="141"/>
      <point x="294" y="212" type="curve"/>
      <point x="377" y="289"/>
      <point x="457" y="382"/>
      <point x="457" y="519" type="curve"/>
      <point x="457" y="648"/>
      <point x="391" y="727"/>
      <point x="267" y="727" type="curve"/>
      <point x="166" y="727"/>
      <point x="102" y="666"/>
      <point x="59" y="575" type="curve"/>
      <point x="114" y="542"/>
      <point x="59" y="575"/>
    </contour>
  </outline>
</glyph>
<glyph name="five" format="1">
  <advance width="499"/>
  <unicode hex="0035"/>
  <outline>
    <contour>
      <point x="84" y="722" type="curve"/>
      <point x="84" y="622"/>
      <point x="84" y="515"/>
      <point x="84" y="392" type="curve"/>
      <point x="157" y="370"/>
      <point x="84" y="392"/>
      <point x="157" y="370" type="curve"/>
      <point x="157" y="466"/>
      <point x="157" y="567"/>
      <point x="157" y="662" type="curve"/>
      <point x="84" y="722"/>
      <point x="157" y="662"/>
    </contour>
    <contour>
      <point x="157" y="370" type="curve"/>
      <point x="174" y="385"/>
      <point x="209" y="398"/>
      <point x="238" y="398" type="curve"/>
      <point x="327" y="398"/>
      <point x="368" y="328"/>
      <point x="368" y="232" type="curve"/>
      <point x="368" y="135"/>
      <point x="314" y="58"/>
      <point x="221" y="58" type="curve"/>
      <point x="171" y="58"/>
      <point x="136" y="72"/>
      <point x="89" y="98" type="curve"/>
      <point x="52" y="44"/>
      <point x="89" y="98"/>
      <point x="52" y="44" type="curve"/>
      <point x="105" y="12"/>
      <point x="155" y="-5"/>
      <point x="218" y="-5" type="curve"/>
      <point x="354" y="-5"/>
      <point x="444" y="94"/>
      <point x="444" y="232" type="curve"/>
      <point x="444" y="365"/>
      <point x="373" y="462"/>
      <point x="246" y="462" type="curve"/>
      <point x="190" y="462"/>
      <point x="129" y="443"/>
      <point x="84" y="395" type="curve"/>
      <point x="157" y="370"/>
      <point x="84" y="395"/>
    </contour>
    <contour>
      <point x="420" y="722" type="curve"/>
      <point x="308" y="722"/>
      <point x="194" y="722"/>
      <point x="84" y="722" type="curve"/>
      <point x="157" y="662"/>
      <point x="84" y="722"/>
      <point x="157" y="662" type="curve"/>
      <point x="242" y="662"/>
      <point x="332" y="662"/>
      <point x="420" y="662" type="curve"/>
      <point x="420" y="722"/>
      <point x="420" y="662"/>
    </contour>
  </outline>
</glyph>
<glyph name="six" format="1">
  <advance width="554"/>
  <unicode hex="0036"/>
  <outline>
    <contour>
      <point x="120" y="223" type="curve"/>
      <point x="145" y="302"/>
      <point x="199" y="364"/>
      <point x="285" y="364" type="curve"/>
      <point x="373" y="364"/>
      <point x="417" y="306"/>
      <point x="417" y="212" type="curve"/>
      <point x="417" y="127"/>
      <point x="373" y="62"/>
      <point x="288" y="62" type="curve"/>
      <point x="182" y="62"/>
      <point x="130" y="138"/>
      <point x="130" y="250" type="curve"/>
      <point x="130" y="475"/>
      <point x="267" y="604"/>
      <point x="485" y="675" type="curve"/>
      <point x="464" y="732"/>
      <point x="485" y="675"/>
      <point x="464" y="732" type="curve"/>
      <point x="221" y="656"/>
      <point x="57" y="509"/>
      <point x="57" y="246" type="curve"/>
      <point x="57" y="93"/>
      <point x="137" y="-8"/>
      <point x="286" y="-8" type="curve"/>
      <point x="419" y="-8"/>
      <point x="494" y="78"/>
      <point x="494" y="213" type="curve"/>
      <point x="494" y="345"/>
      <point x="421" y="427"/>
      <point x="295" y="427" type="curve"/>
      <point x="176" y="427"/>
      <point x="103" y="337"/>
      <point x="76" y="244" type="curve"/>
      <point x="118" y="223"/>
      <point x="77" y="244"/>
    </contour>
  </outline>
</glyph>
<glyph name="seven" format="1">
  <advance width="508"/>
  <unicode hex="0037"/>
  <outline>
    <contour>
      <point x="115" y="563" type="line"/>
      <point x="115" y="671" type="line"/>
      <point x="55" y="671" type="line"/>
      <point x="55" y="563" type="line"/>
    </contour>
    <contour>
      <point x="55" y="662" type="line"/>
      <point x="488" y="662" type="line"/>
      <point x="488" y="722" type="line"/>
      <point x="55" y="722" type="line"/>
    </contour>
    <contour>
      <point x="443" y="722" type="line"/>
      <point x="77" y="0" type="line"/>
      <point x="158" y="0" type="line"/>
      <point x="488" y="662" type="line"/>
    </contour>
  </outline>
</glyph>
<glyph name="nine" format="1">
  <advance width="553"/>
  <unicode hex="0039"/>
  <outline>
    <contour>
      <point x="437" y="486" type="curve"/>
      <point x="406" y="410"/>
      <point x="359" y="358"/>
      <point x="272" y="358" type="curve"/>
      <point x="182" y="358"/>
      <point x="134" y="418"/>
      <point x="134" y="512" type="curve"/>
      <point x="134" y="601"/>
      <point x="180" y="660"/>
      <point x="264" y="660" type="curve"/>
      <point x="371" y="660"/>
      <point x="422" y="584"/>
      <point x="422" y="472" type="curve"/>
      <point x="422" y="248"/>
      <point x="294" y="118"/>
      <point x="74" y="47" type="curve"/>
      <point x="100" y="-14"/>
      <point x="74" y="47"/>
      <point x="100" y="-14" type="curve"/>
      <point x="342" y="60"/>
      <point x="496" y="213"/>
      <point x="496" y="476" type="curve"/>
      <point x="496" y="629"/>
      <point x="417" y="730"/>
      <point x="267" y="730" type="curve"/>
      <point x="134" y="730"/>
      <point x="60" y="644"/>
      <point x="60" y="509" type="curve"/>
      <point x="60" y="377"/>
      <point x="134" y="295"/>
      <point x="265" y="295" type="curve"/>
      <point x="379" y="295"/>
      <point x="441" y="372"/>
      <point x="476" y="469" type="curve"/>
      <point x="437" y="486"/>
      <point x="476" y="469"/>
    </contour>
  </outline>
</glyph>
<glyph name="colon" format="1">
  <advance width="246"/>
  <unicode hex="003A"/>
  <outline>
    <contour>
      <point x="166" y="393" type="curve"/>
      <point x="166" y="420"/>
      <point x="149" y="435"/>
      <point x="122" y="435" type="curve"/>
      <point x="96" y="435"/>
      <point x="79" y="420"/>
      <point x="79" y="393" type="curve"/>
      <point x="162" y="393"/>
      <point x="83" y="393"/>
      <point x="166" y="393" type="curve"/>
      <point x="166" y="366"/>
      <point x="149" y="353"/>
      <point x="122" y="353" type="curve"/>
      <point x="96" y="353"/>
      <point x="79" y="367"/>
      <point x="79" y="393" type="curve"/>
      <point x="162" y="393"/>
      <point x="83" y="393"/>
    </contour>
    <contour>
      <point x="166" y="35" type="curve"/>
      <point x="166" y="62"/>
      <point x="148" y="76"/>
      <point x="122" y="76" type="curve"/>
      <point x="96" y="76"/>
      <point x="79" y="61"/>
      <point x="79" y="35" type="curve"/>
      <point x="162" y="35"/>
      <point x="82" y="35"/>
      <point x="166" y="35" type="curve"/>
      <point x="166" y="8"/>
      <point x="149" y="-5"/>
      <point x="121" y="-5" type="curve"/>
      <point x="95" y="-5"/>
      <point x="79" y="9"/>
      <point x="79" y="35" type="curve"/>
      <point x="162" y="35"/>
      <point x="82" y="35"/>
    </contour>
  </outline>
</glyph>
<glyph name="semicolon" format="1">
  <advance width="276"/>
  <unicode hex="003B"/>
  <outline>
    <contour>
      <point x="83" y="-140" type="line"/>
      <point x="144" y="-126"/>
      <point x="188" y="-79"/>
      <point x="188" y="-5" type="curve"/>
      <point x="188" y="43"/>
      <point x="169" y="75"/>
      <point x="135" y="75" type="curve"/>
      <point x="108" y="75"/>
      <point x="89" y="60"/>
      <point x="89" y="34" type="curve"/>
      <point x="89" y="10"/>
      <point x="103" y="-5"/>
      <point x="129" y="-8" type="curve"/>
      <point x="129" y="-36"/>
      <point x="120" y="-78"/>
      <point x="74" y="-97" type="curve"/>
    </contour>
    <contour>
      <point x="181" y="406" type="curve"/>
      <point x="181" y="433"/>
      <point x="162" y="447"/>
      <point x="136" y="447" type="curve"/>
      <point x="110" y="447"/>
      <point x="94" y="432"/>
      <point x="94" y="406" type="curve"/>
      <point x="177" y="406"/>
      <point x="97" y="406"/>
      <point x="181" y="406" type="curve"/>
      <point x="181" y="379"/>
      <point x="162" y="366"/>
      <point x="136" y="366" type="curve"/>
      <point x="110" y="366"/>
      <point x="94" y="380"/>
      <point x="94" y="406" type="curve"/>
      <point x="177" y="406"/>
      <point x="97" y="406"/>
    </contour>
  </outline>
</glyph>
<glyph name="less" format="1">
  <advance width="645"/>
  <unicode hex="003C"/>
  <outline>
    <contour>
      <point x="576" y="603" type="curve"/>
      <point x="397" y="513"/>
      <point x="219" y="423"/>
      <point x="39" y="333" type="curve"/>
      <point x="39" y="267"/>
      <point x="39" y="333"/>
      <point x="39" y="267" type="curve"/>
      <point x="219" y="357"/>
      <point x="397" y="447"/>
      <point x="576" y="537" type="curve"/>
      <point x="576" y="603"/>
      <point x="576" y="537"/>
    </contour>
    <contour>
      <point x="585" y="69" type="curve"/>
      <point x="403" y="157"/>
      <point x="221" y="245"/>
      <point x="39" y="333" type="curve"/>
      <point x="39" y="267"/>
      <point x="39" y="333"/>
      <point x="39" y="267" type="curve"/>
      <point x="221" y="179"/>
      <point x="403" y="91"/>
      <point x="585" y="3" type="curve"/>
      <point x="585" y="69"/>
      <point x="585" y="3"/>
    </contour>
  </outline>
</glyph>
<glyph name="greater" format="1">
  <advance width="645"/>
  <unicode hex="003E"/>
  <outline>
    <contour>
      <point x="69" y="3" type="curve"/>
      <point x="247" y="93"/>
      <point x="427" y="183"/>
      <point x="606" y="273" type="curve"/>
      <point x="606" y="339"/>
      <point x="606" y="273"/>
      <point x="606" y="339" type="curve"/>
      <point x="427" y="249"/>
      <point x="247" y="159"/>
      <point x="69" y="69" type="curve"/>
      <point x="69" y="3"/>
      <point x="69" y="69"/>
    </contour>
    <contour>
      <point x="60" y="537" type="curve"/>
      <point x="241" y="449"/>
      <point x="424" y="361"/>
      <point x="606" y="273" type="curve"/>
      <point x="606" y="339"/>
      <point x="606" y="273"/>
      <point x="606" y="339" type="curve"/>
      <point x="424" y="427"/>
      <point x="241" y="515"/>
      <point x="60" y="603" type="curve"/>
      <point x="60" y="537"/>
      <point x="60" y="603"/>
    </contour>
  </outline>
</glyph>
<glyph name="question" format="1">
  <advance width="483"/>
  <unicode hex="003F"/>
  <outline>
    <contour>
      <point x="183" y="354" type="curve"/>
      <point x="183" y="317"/>
      <point x="183" y="258"/>
      <point x="183" y="221" type="curve"/>
      <point x="256" y="221"/>
      <point x="183" y="221"/>
      <point x="256" y="221" type="curve"/>
      <point x="256" y="258"/>
      <point x="256" y="317"/>
      <point x="256" y="354" type="curve"/>
      <point x="183" y="354"/>
      <point x="256" y="354"/>
    </contour>
    <contour>
      <point x="93" y="603" type="line"/>
      <point x="122" y="638"/>
      <point x="162" y="665"/>
      <point x="217" y="665" type="curve"/>
      <point x="304" y="665"/>
      <point x="353" y="607"/>
      <point x="353" y="519" type="curve"/>
      <point x="353" y="420"/>
      <point x="293" y="354"/>
      <point x="192" y="354" type="curve"/>
      <point x="192" y="326"/>
      <point x="191" y="322"/>
      <point x="191" y="295" type="curve"/>
      <point x="335" y="295"/>
      <point x="426" y="382"/>
      <point x="426" y="519" type="curve"/>
      <point x="426" y="647"/>
      <point x="346" y="728"/>
      <point x="221" y="728" type="curve"/>
      <point x="145" y="728"/>
      <point x="91" y="698"/>
      <point x="51" y="649" type="curve"/>
    </contour>
    <contour>
      <point x="263" y="28" type="curve"/>
      <point x="263" y="54"/>
      <point x="245" y="68"/>
      <point x="219" y="68" type="curve"/>
      <point x="193" y="68"/>
      <point x="177" y="53"/>
      <point x="177" y="28" type="curve"/>
      <point x="263" y="28"/>
      <point x="177" y="28"/>
      <point x="263" y="28" type="curve"/>
      <point x="263" y="1"/>
      <point x="245" y="-12"/>
      <point x="219" y="-12" type="curve"/>
      <point x="193" y="-12"/>
      <point x="177" y="2"/>
      <point x="177" y="28" type="curve"/>
      <point x="263" y="28"/>
      <point x="177" y="28"/>
    </contour>
  </outline>
</glyph>
<glyph name="at" format="1">
  <advance width="768"/>
  <unicode hex="0040"/>
  <outline>
    <contour>
      <point x="525" y="-56" type="curve"/>
      <point x="481" y="-81"/>
      <point x="448" y="-89"/>
      <point x="397" y="-89" type="curve"/>
      <point x="221" y="-89"/>
      <point x="125" y="23"/>
      <point x="125" y="204" type="curve"/>
      <point x="125" y="380"/>
      <point x="220" y="491"/>
      <point x="392" y="491" type="curve"/>
      <point x="553" y="491"/>
      <point x="641" y="380"/>
      <point x="641" y="213" type="curve"/>
      <point x="641" y="144"/>
      <point x="635" y="84"/>
      <point x="592" y="84" type="curve"/>
      <point x="544" y="84"/>
      <point x="537" y="141"/>
      <point x="537" y="209" type="curve"/>
      <point x="537" y="317"/>
      <point x="486" y="391"/>
      <point x="383" y="391" type="curve"/>
      <point x="272" y="391"/>
      <point x="220" y="320"/>
      <point x="220" y="208" type="curve"/>
      <point x="220" y="92"/>
      <point x="266" y="15"/>
      <point x="375" y="15" type="curve"/>
      <point x="474" y="15"/>
      <point x="512" y="90"/>
      <point x="525" y="195" type="curve"/>
      <point x="478" y="206"/>
      <point x="525" y="195"/>
      <point x="478" y="206" type="curve"/>
      <point x="463" y="136"/>
      <point x="448" y="75"/>
      <point x="384" y="75" type="curve"/>
      <point x="314" y="75"/>
      <point x="289" y="131"/>
      <point x="289" y="211" type="curve"/>
      <point x="289" y="282"/>
      <point x="313" y="331"/>
      <point x="378" y="331" type="curve"/>
      <point x="446" y="331"/>
      <point x="468" y="279"/>
      <point x="468" y="206" type="curve"/>
      <point x="468" y="105"/>
      <point x="493" y="27"/>
      <point x="586" y="27" type="curve"/>
      <point x="682" y="27"/>
      <point x="709" y="108"/>
      <point x="709" y="216" type="curve"/>
      <point x="709" y="424"/>
      <point x="599" y="553"/>
      <point x="395" y="553" type="curve"/>
      <point x="177" y="553"/>
      <point x="56" y="421"/>
      <point x="56" y="201" type="curve"/>
      <point x="56" y="-18"/>
      <point x="177" y="-150"/>
      <point x="393" y="-150" type="curve"/>
      <point x="458" y="-150"/>
      <point x="501" y="-139"/>
      <point x="554" y="-108" type="curve"/>
      <point x="525" y="-56"/>
      <point x="554" y="-108"/>
    </contour>
  </outline>
</glyph>
<glyph name="A" format="1">
  <advance width="734"/>
  <unicode hex="0041"/>
  <outline>
    <contour>
      <point x="365" y="806" type="move" name="top"/>
    </contour>
    <contour>
      <point x="633" y="2" type="move" name="bottom"/>
    </contour>
    <contour>
      <point x="112" y="60" type="curve"/>
      <point x="-27" y="60"/>
      <point x="124" y="60"/>
      <point x="-15" y="60" type="curve"/>
      <point x="-15" y="0"/>
      <point x="-15" y="60"/>
      <point x="-15" y="0" type="curve"/>
      <point x="31" y="0"/>
      <point x="66" y="0"/>
      <point x="112" y="0" type="curve"/>
      <point x="112" y="60"/>
      <point x="112" y="0"/>
    </contour>
    <contour>
      <point x="112" y="0" type="curve"/>
      <point x="165" y="0"/>
      <point x="103" y="0"/>
      <point x="262" y="0" type="curve"/>
      <point x="262" y="60"/>
      <point x="262" y="0"/>
      <point x="262" y="60" type="curve"/>
      <point x="103" y="60"/>
      <point x="270" y="60"/>
      <point x="112" y="60" type="curve"/>
      <point x="112" y="0"/>
      <point x="112" y="60"/>
    </contour>
    <contour>
      <point x="594" y="0" type="curve"/>
      <point x="640" y="0"/>
      <point x="674" y="0"/>
      <point x="721" y="0" type="curve"/>
      <point x="721" y="60"/>
      <point x="721" y="0"/>
      <point x="721" y="60" type="curve"/>
      <point x="583" y="60"/>
      <point x="732" y="60"/>
      <point x="594" y="60" type="curve"/>
      <point x="594" y="0"/>
      <point x="594" y="60"/>
    </contour>
    <contour>
      <point x="594" y="60" type="curve"/>
      <point x="435" y="60"/>
      <point x="603" y="60"/>
      <point x="444" y="60" type="curve"/>
      <point x="444" y="0"/>
      <point x="444" y="60"/>
      <point x="444" y="0" type="curve"/>
      <point x="497" y="0"/>
      <point x="541" y="0"/>
      <point x="594" y="0" type="curve"/>
      <point x="594" y="60"/>
      <point x="594" y="0"/>
    </contour>
    <contour>
      <point x="506" y="287" type="curve"/>
      <point x="409" y="287"/>
      <point x="313" y="287"/>
      <point x="217" y="287" type="curve"/>
      <point x="185" y="224"/>
      <point x="217" y="287"/>
      <point x="185" y="224" type="curve"/>
      <point x="300" y="224"/>
      <point x="415" y="224"/>
      <point x="530" y="224" type="curve"/>
      <point x="506" y="287"/>
      <point x="530" y="224"/>
    </contour>
    <contour>
      <point x="644" y="0" type="curve"/>
      <point x="564" y="241"/>
      <point x="482" y="481"/>
      <point x="402" y="722" type="curve"/>
      <point x="333" y="722"/>
      <point x="402" y="722"/>
      <point x="333" y="722" type="curve"/>
      <point x="411" y="481"/>
      <point x="486" y="241"/>
      <point x="564" y="0" type="curve"/>
      <point x="644" y="0"/>
      <point x="564" y="0"/>
    </contour>
    <contour>
      <point x="143" y="0" type="curve"/>
      <point x="230" y="241"/>
      <point x="313" y="481"/>
      <point x="400" y="722" type="curve"/>
      <point x="331" y="722"/>
      <point x="400" y="722"/>
      <point x="331" y="722" type="curve"/>
      <point x="243" y="481"/>
      <point x="148" y="241"/>
      <point x="59" y="0" type="curve"/>
      <point x="143" y="0"/>
      <point x="59" y="0"/>
    </contour>
  </outline>
</glyph>
<glyph name="C" format="1">
  <advance width="646"/>
  <unicode hex="0043"/>
  <outline>
    <contour>
      <point x="365" y="806" type="move" name="top"/>
    </contour>
    <contour>
      <point x="369" y="2" type="move" name="bottom"/>
    </contour>
    <contour>
      <point x="525" y="655" type="curve"/>
      <point x="525" y="535"/>
      <point x="525" y="649"/>
      <point x="525" y="529" type="curve"/>
      <point x="586" y="529"/>
      <point x="525" y="529"/>
      <point x="586" y="529" type="curve"/>
      <point x="586" y="649"/>
      <point x="586" y="535"/>
      <point x="586" y="655" type="curve"/>
      <point x="525" y="655"/>
      <point x="586" y="655"/>
    </contour>
    <contour>
      <point x="586" y="655" type="curve"/>
      <point x="524" y="696"/>
      <point x="453" y="727"/>
      <point x="371" y="727" type="curve"/>
      <point x="159" y="727"/>
      <point x="60" y="573"/>
      <point x="60" y="344" type="curve"/>
      <point x="60" y="134"/>
      <point x="154" y="-5"/>
      <point x="352" y="-5" type="curve"/>
      <point x="459" y="-5"/>
      <point x="527" y="30"/>
      <point x="599" y="96" type="curve"/>
      <point x="558" y="142"/>
      <point x="599" y="96"/>
      <point x="557" y="142" type="curve"/>
      <point x="495" y="88"/>
      <point x="440" y="59"/>
      <point x="355" y="59" type="curve"/>
      <point x="199" y="59"/>
      <point x="137" y="178"/>
      <point x="137" y="347" type="curve"/>
      <point x="137" y="531"/>
      <point x="202" y="664"/>
      <point x="367" y="664" type="curve"/>
      <point x="435" y="664"/>
      <point x="494" y="642"/>
      <point x="544" y="607" type="curve"/>
      <point x="586" y="655"/>
      <point x="544" y="607"/>
    </contour>
  </outline>
</glyph>
<glyph name="D" format="1">
  <advance width="727"/>
  <unicode hex="0044"/>
  <outline>
    <contour>
      <point x="325" y="806" type="move" name="top"/>
    </contour>
    <contour>
      <point x="187" y="60" type="curve"/>
      <point x="44" y="60"/>
      <point x="195" y="60"/>
      <point x="53" y="60" type="curve"/>
      <point x="53" y="0"/>
      <point x="53" y="60"/>
      <point x="53" y="0" type="curve"/>
      <point x="100" y="0"/>
      <point x="139" y="0"/>
      <point x="187" y="0" type="curve"/>
      <point x="187" y="60"/>
      <point x="187" y="0"/>
    </contour>
    <contour>
      <point x="187" y="722" type="curve"/>
      <point x="139" y="722"/>
      <point x="100" y="722"/>
      <point x="53" y="722" type="curve"/>
      <point x="53" y="662"/>
      <point x="53" y="722"/>
      <point x="53" y="662" type="curve"/>
      <point x="195" y="662"/>
      <point x="44" y="662"/>
      <point x="187" y="662" type="curve"/>
      <point x="187" y="722"/>
      <point x="187" y="662"/>
    </contour>
    <contour>
      <point x="147" y="722" type="curve"/>
      <point x="147" y="481"/>
      <point x="147" y="241"/>
      <point x="147" y="0" type="curve"/>
      <point x="223" y="0"/>
      <point x="147" y="0"/>
      <point x="223" y="0" type="curve"/>
      <point x="223" y="241"/>
      <point x="223" y="481"/>
      <point x="223" y="722" type="curve"/>
      <point x="147" y="722"/>
      <point x="223" y="722"/>
    </contour>
    <contour>
      <point x="187" y="0" type="curve"/>
      <point x="244" y="0"/>
      <point x="294" y="0"/>
      <point x="351" y="0" type="curve"/>
      <point x="566" y="0"/>
      <point x="668" y="133"/>
      <point x="668" y="354" type="curve"/>
      <point x="668" y="583"/>
      <point x="564" y="722"/>
      <point x="344" y="722" type="curve"/>
      <point x="289" y="722"/>
      <point x="241" y="722"/>
      <point x="187" y="722" type="curve"/>
      <point x="187" y="668"/>
      <point x="187" y="716"/>
      <point x="187" y="662" type="curve"/>
      <point x="240" y="662"/>
      <point x="286" y="662"/>
      <point x="340" y="662" type="curve"/>
      <point x="519" y="662"/>
      <point x="593" y="541"/>
      <point x="593" y="353" type="curve"/>
      <point x="593" y="176"/>
      <point x="525" y="60"/>
      <point x="358" y="60" type="curve"/>
      <point x="298" y="60"/>
      <point x="246" y="60"/>
      <point x="187" y="60" type="curve"/>
      <point x="187" y="6"/>
      <point x="187" y="54"/>
    </contour>
  </outline>
</glyph>
<glyph name="F" format="1">
  <advance width="578"/>
  <unicode hex="0046"/>
  <outline>
    <contour>
      <point x="186" y="0" type="curve"/>
      <point x="233" y="0"/>
      <point x="186" y="0"/>
      <point x="328" y="0" type="curve"/>
      <point x="328" y="60"/>
      <point x="328" y="0"/>
      <point x="328" y="60" type="curve"/>
      <point x="186" y="60"/>
      <point x="328" y="60"/>
      <point x="186" y="60" type="curve"/>
      <point x="186" y="0"/>
      <point x="186" y="60"/>
    </contour>
    <contour>
      <point x="186" y="722" type="curve"/>
      <point x="138" y="722"/>
      <point x="99" y="722"/>
      <point x="52" y="722" type="curve"/>
      <point x="52" y="662"/>
      <point x="52" y="722"/>
      <point x="52" y="662" type="curve"/>
      <point x="194" y="662"/>
      <point x="43" y="662"/>
      <point x="186" y="662" type="curve"/>
      <point x="186" y="722"/>
      <point x="186" y="662"/>
    </contour>
    <contour>
      <point x="186" y="60" type="curve"/>
      <point x="43" y="60"/>
      <point x="194" y="60"/>
      <point x="52" y="60" type="curve"/>
      <point x="52" y="0"/>
      <point x="52" y="60"/>
      <point x="52" y="0" type="curve"/>
      <point x="99" y="0"/>
      <point x="138" y="0"/>
      <point x="186" y="0" type="curve"/>
      <point x="186" y="60"/>
      <point x="186" y="0"/>
    </contour>
    <contour>
      <point x="477" y="692" type="curve"/>
      <point x="477" y="572"/>
      <point x="477" y="696"/>
      <point x="477" y="576" type="curve"/>
      <point x="538" y="576"/>
      <point x="477" y="576"/>
      <point x="538" y="576" type="curve"/>
      <point x="538" y="696"/>
      <point x="538" y="572"/>
      <point x="538" y="692" type="curve"/>
      <point x="477" y="692"/>
      <point x="538" y="692"/>
    </contour>
    <contour>
      <point x="189" y="343" type="curve"/>
      <point x="284" y="343"/>
      <point x="378" y="343"/>
      <point x="473" y="343" type="curve"/>
      <point x="473" y="403"/>
      <point x="473" y="343"/>
      <point x="473" y="403" type="curve"/>
      <point x="378" y="403"/>
      <point x="284" y="403"/>
      <point x="189" y="403" type="curve"/>
      <point x="189" y="343"/>
      <point x="189" y="403"/>
    </contour>
    <contour>
      <point x="224" y="0" type="curve"/>
      <point x="224" y="722" type="line"/>
      <point x="148" y="722"/>
      <point x="224" y="722"/>
      <point x="148" y="722" type="curve"/>
      <point x="148" y="481"/>
      <point x="148" y="241"/>
      <point x="148" y="0" type="curve"/>
      <point x="224" y="0"/>
      <point x="148" y="0"/>
    </contour>
    <contour>
      <point x="176" y="662" type="curve"/>
      <point x="296" y="662"/>
      <point x="417" y="662"/>
      <point x="538" y="662" type="curve"/>
      <point x="538" y="722"/>
      <point x="538" y="662"/>
      <point x="538" y="722" type="curve"/>
      <point x="417" y="722"/>
      <point x="296" y="722"/>
      <point x="176" y="722" type="curve"/>
      <point x="176" y="662"/>
      <point x="176" y="722"/>
    </contour>
  </outline>
</glyph>
<glyph name="G" format="1">
  <advance width="716"/>
  <unicode hex="0047"/>
  <outline>
    <contour>
      <point x="375" y="806" type="move" name="top"/>
    </contour>
    <contour>
      <point x="405" y="-31" type="move" name="bottom"/>
    </contour>
    <contour>
      <point x="574" y="643" type="curve"/>
      <point x="574" y="517"/>
      <point x="574" y="643"/>
      <point x="574" y="517" type="curve"/>
      <point x="634" y="517"/>
      <point x="574" y="517"/>
      <point x="634" y="517" type="curve"/>
      <point x="634" y="643"/>
      <point x="634" y="517"/>
      <point x="634" y="643" type="curve"/>
      <point x="574" y="643"/>
      <point x="634" y="643"/>
    </contour>
    <contour>
      <point x="628" y="341" type="curve"/>
      <point x="564" y="341"/>
      <point x="499" y="341"/>
      <point x="434" y="341" type="curve"/>
      <point x="434" y="281"/>
      <point x="434" y="341"/>
      <point x="434" y="281" type="curve"/>
      <point x="499" y="281"/>
      <point x="564" y="281"/>
      <point x="628" y="281" type="curve"/>
      <point x="628" y="341"/>
      <point x="628" y="281"/>
    </contour>
    <contour>
      <point x="649" y="78" type="curve"/>
      <point x="649" y="166"/>
      <point x="649" y="253"/>
      <point x="649" y="341" type="curve"/>
      <point x="580" y="341"/>
      <point x="649" y="341"/>
      <point x="580" y="341" type="curve"/>
      <point x="580" y="253"/>
      <point x="580" y="166"/>
      <point x="580" y="78" type="curve"/>
      <point x="649" y="78"/>
      <point x="580" y="78"/>
    </contour>
    <contour>
      <point x="634" y="643" type="curve"/>
      <point x="553" y="700"/>
      <point x="476" y="727"/>
      <point x="377" y="727" type="curve"/>
      <point x="165" y="727"/>
      <point x="59" y="585"/>
      <point x="59" y="363" type="curve"/>
      <point x="59" y="136"/>
      <point x="170" y="-5"/>
      <point x="387" y="-5" type="curve"/>
      <point x="492" y="-5"/>
      <point x="559" y="23"/>
      <point x="649" y="78" type="curve"/>
      <point x="610" y="124"/>
      <point x="649" y="78"/>
      <point x="610" y="124" type="curve"/>
      <point x="541" y="81"/>
      <point x="475" y="58"/>
      <point x="387" y="58" type="curve"/>
      <point x="212" y="58"/>
      <point x="135" y="182"/>
      <point x="135" y="369" type="curve"/>
      <point x="135" y="545"/>
      <point x="211" y="664"/>
      <point x="377" y="664" type="curve"/>
      <point x="462" y="664"/>
      <point x="527" y="640"/>
      <point x="596" y="593" type="curve"/>
      <point x="634" y="643"/>
      <point x="596" y="593"/>
    </contour>
  </outline>
</glyph>
<glyph name="H" format="1">
  <advance width="792"/>
  <unicode hex="0048"/>
  <outline>
    <contour>
      <point x="618" y="662" type="curve"/>
      <point x="764" y="662"/>
      <point x="606" y="662"/>
      <point x="752" y="662" type="curve"/>
      <point x="752" y="722"/>
      <point x="752" y="662"/>
      <point x="752" y="722" type="curve"/>
      <point x="704" y="722"/>
      <point x="667" y="722"/>
      <point x="618" y="722" type="curve"/>
      <point x="618" y="662"/>
      <point x="618" y="722"/>
    </contour>
    <contour>
      <point x="618" y="0" type="curve"/>
      <point x="667" y="0"/>
      <point x="704" y="0"/>
      <point x="752" y="0" type="curve"/>
      <point x="752" y="60"/>
      <point x="752" y="0"/>
      <point x="752" y="60" type="curve"/>
      <point x="606" y="60"/>
      <point x="764" y="60"/>
      <point x="618" y="60" type="curve"/>
      <point x="618" y="0"/>
      <point x="618" y="60"/>
    </contour>
    <contour>
      <point x="618" y="60" type="curve"/>
      <point x="472" y="60"/>
      <point x="630" y="60"/>
      <point x="484" y="60" type="curve"/>
      <point x="484" y="0"/>
      <point x="484" y="60"/>
      <point x="484" y="0" type="curve"/>
      <point x="532" y="0"/>
      <point x="570" y="0"/>
      <point x="618" y="0" type="curve"/>
      <point x="618" y="60"/>
      <point x="618" y="0"/>
    </contour>
    <contour>
      <point x="618" y="722" type="curve"/>
      <point x="570" y="722"/>
      <point x="532" y="722"/>
      <point x="484" y="722" type="curve"/>
      <point x="484" y="662"/>
      <point x="484" y="722"/>
      <point x="484" y="662" type="curve"/>
      <point x="630" y="662"/>
      <point x="472" y="662"/>
      <point x="618" y="662" type="curve"/>
      <point x="618" y="722"/>
      <point x="618" y="662"/>
    </contour>
    <contour>
      <point x="175" y="662" type="curve"/>
      <point x="321" y="662"/>
      <point x="163" y="662"/>
      <point x="309" y="662" type="curve"/>
      <point x="309" y="722"/>
      <point x="309" y="662"/>
      <point x="309" y="722" type="curve"/>
      <point x="261" y="722"/>
      <point x="224" y="722"/>
      <point x="175" y="722" type="curve"/>
      <point x="175" y="662"/>
      <point x="175" y="722"/>
    </contour>
    <contour>
      <point x="175" y="722" type="curve"/>
      <point x="126" y="722"/>
      <point x="89" y="722"/>
      <point x="41" y="722" type="curve"/>
      <point x="41" y="662"/>
      <point x="41" y="722"/>
      <point x="41" y="662" type="curve"/>
      <point x="186" y="662"/>
      <point x="29" y="662"/>
      <point x="175" y="662" type="curve"/>
      <point x="175" y="722"/>
      <point x="175" y="662"/>
    </contour>
    <contour>
      <point x="175" y="0" type="curve"/>
      <point x="224" y="0"/>
      <point x="163" y="0"/>
      <point x="309" y="0" type="curve"/>
      <point x="309" y="60"/>
      <point x="309" y="0"/>
      <point x="309" y="60" type="curve"/>
      <point x="163" y="60"/>
      <point x="321" y="60"/>
      <point x="175" y="60" type="curve"/>
      <point x="175" y="0"/>
      <point x="175" y="60"/>
    </contour>
    <contour>
      <point x="175" y="60" type="curve"/>
      <point x="29" y="60"/>
      <point x="186" y="60"/>
      <point x="41" y="60" type="curve"/>
      <point x="41" y="0"/>
      <point x="41" y="60"/>
      <point x="41" y="0" type="curve"/>
      <point x="89" y="0"/>
      <point x="126" y="0"/>
      <point x="175" y="0" type="curve"/>
      <point x="175" y="60"/>
      <point x="175" y="0"/>
    </contour>
    <contour>
      <point x="213" y="0" type="curve"/>
      <point x="213" y="722" type="line"/>
      <point x="137" y="722"/>
      <point x="213" y="722"/>
      <point x="137" y="722" type="curve"/>
      <point x="137" y="481"/>
      <point x="137" y="241"/>
      <point x="137" y="0" type="curve"/>
      <point x="213" y="0"/>
      <point x="137" y="0"/>
    </contour>
    <contour>
      <point x="615" y="393" type="curve"/>
      <point x="468" y="393"/>
      <point x="322" y="393"/>
      <point x="175" y="393" type="curve"/>
      <point x="175" y="333"/>
      <point x="175" y="393"/>
      <point x="175" y="333" type="curve"/>
      <point x="322" y="333"/>
      <point x="468" y="333"/>
      <point x="615" y="333" type="curve"/>
      <point x="615" y="393"/>
      <point x="615" y="333"/>
    </contour>
    <contour>
      <point x="655" y="21" type="curve"/>
      <point x="655" y="247"/>
      <point x="655" y="475"/>
      <point x="655" y="701" type="curve"/>
      <point x="579" y="701"/>
      <point x="655" y="701"/>
      <point x="579" y="701" type="curve"/>
      <point x="579" y="21" type="line"/>
      <point x="655" y="21"/>
      <point x="579" y="21"/>
    </contour>
  </outline>
</glyph>
<glyph name="J" format="1">
  <advance width="442"/>
  <unicode hex="004A"/>
  <outline>
    <contour>
      <point x="287" y="722" type="curve"/>
      <point x="239" y="722"/>
      <point x="203" y="722"/>
      <point x="156" y="722" type="curve"/>
      <point x="156" y="662"/>
      <point x="156" y="722"/>
      <point x="156" y="662" type="curve"/>
      <point x="299" y="662"/>
      <point x="144" y="662"/>
      <point x="287" y="662" type="curve"/>
      <point x="287" y="722"/>
      <point x="287" y="662"/>
    </contour>
    <contour>
      <point x="287" y="662" type="curve"/>
      <point x="429" y="662"/>
      <point x="275" y="662"/>
      <point x="418" y="662" type="curve"/>
      <point x="418" y="722"/>
      <point x="418" y="662"/>
      <point x="418" y="722" type="curve"/>
      <point x="370" y="722"/>
      <point x="334" y="722"/>
      <point x="287" y="722" type="curve"/>
      <point x="287" y="662"/>
      <point x="287" y="722"/>
    </contour>
    <contour>
      <point x="17" y="42" type="curve"/>
      <point x="46" y="19"/>
      <point x="85" y="-4"/>
      <point x="136" y="-4" type="curve"/>
      <point x="267" y="-4"/>
      <point x="324" y="81"/>
      <point x="324" y="228" type="curve"/>
      <point x="324" y="402"/>
      <point x="324" y="548"/>
      <point x="324" y="722" type="curve"/>
      <point x="255" y="722"/>
      <point x="318" y="722"/>
      <point x="248" y="722" type="curve"/>
      <point x="248" y="548"/>
      <point x="248" y="402"/>
      <point x="248" y="228" type="curve"/>
      <point x="248" y="130"/>
      <point x="224" y="57"/>
      <point x="136" y="57" type="curve"/>
      <point x="101" y="57"/>
      <point x="77" y="72"/>
      <point x="52" y="89" type="curve"/>
      <point x="20" y="46"/>
      <point x="49" y="84"/>
    </contour>
  </outline>
</glyph>
<glyph name="K" format="1">
  <advance width="674"/>
  <unicode hex="004B"/>
  <outline>
    <contour>
      <point x="377" y="-33" type="move" name="bottom"/>
    </contour>
    <contour>
      <point x="517" y="722" type="curve"/>
      <point x="468" y="722"/>
      <point x="422" y="722"/>
      <point x="374" y="722" type="curve"/>
      <point x="374" y="662"/>
      <point x="374" y="722"/>
      <point x="374" y="662" type="curve"/>
      <point x="521" y="662"/>
      <point x="369" y="662"/>
      <point x="517" y="662" type="curve"/>
      <point x="517" y="722"/>
      <point x="517" y="662"/>
    </contour>
    <contour>
      <point x="529" y="0" type="curve"/>
      <point x="583" y="0"/>
      <point x="600" y="0"/>
      <point x="655" y="0" type="curve"/>
      <point x="655" y="60"/>
      <point x="655" y="0"/>
      <point x="655" y="60" type="curve"/>
      <point x="492" y="60"/>
      <point x="692" y="60"/>
      <point x="529" y="60" type="curve"/>
      <point x="529" y="0"/>
      <point x="529" y="60"/>
    </contour>
    <contour>
      <point x="508" y="662" type="curve"/>
      <point x="651" y="662"/>
      <point x="485" y="662"/>
      <point x="629" y="662" type="curve"/>
      <point x="629" y="722"/>
      <point x="629" y="662"/>
      <point x="629" y="722" type="curve"/>
      <point x="581" y="722"/>
      <point x="556" y="722"/>
      <point x="508" y="722" type="curve"/>
      <point x="508" y="662"/>
      <point x="508" y="722"/>
    </contour>
    <contour>
      <point x="174" y="722" type="curve"/>
      <point x="125" y="722"/>
      <point x="89" y="722"/>
      <point x="41" y="722" type="curve"/>
      <point x="41" y="662"/>
      <point x="41" y="722"/>
      <point x="41" y="662" type="curve"/>
      <point x="185" y="662"/>
      <point x="29" y="662"/>
      <point x="174" y="662" type="curve"/>
      <point x="174" y="722"/>
      <point x="174" y="662"/>
    </contour>
    <contour>
      <point x="174" y="662" type="curve"/>
      <point x="318" y="662"/>
      <point x="148" y="662"/>
      <point x="292" y="662" type="curve"/>
      <point x="292" y="722"/>
      <point x="292" y="662"/>
      <point x="292" y="722" type="curve"/>
      <point x="243" y="722"/>
      <point x="222" y="722"/>
      <point x="174" y="722" type="curve"/>
      <point x="174" y="662"/>
      <point x="174" y="722"/>
    </contour>
    <contour>
      <point x="174" y="0" type="curve"/>
      <point x="224" y="0"/>
      <point x="146" y="0"/>
      <point x="297" y="0" type="curve"/>
      <point x="297" y="60"/>
      <point x="297" y="0"/>
      <point x="297" y="60" type="curve"/>
      <point x="146" y="60"/>
      <point x="324" y="60"/>
      <point x="174" y="60" type="curve"/>
      <point x="174" y="0"/>
      <point x="174" y="60"/>
    </contour>
    <contour>
      <point x="174" y="60" type="curve"/>
      <point x="29" y="60"/>
      <point x="185" y="60"/>
      <point x="41" y="60" type="curve"/>
      <point x="41" y="0"/>
      <point x="41" y="60"/>
      <point x="41" y="0" type="curve"/>
      <point x="89" y="0"/>
      <point x="125" y="0"/>
      <point x="174" y="0" type="curve"/>
      <point x="174" y="60"/>
      <point x="174" y="0"/>
    </contour>
    <contour>
      <point x="498" y="722" type="curve"/>
      <point x="193" y="380" type="line"/>
      <point x="283" y="380"/>
      <point x="192" y="380"/>
      <point x="282" y="380" type="curve"/>
      <point x="567" y="697" type="line"/>
      <point x="487" y="697"/>
      <point x="578" y="722"/>
    </contour>
    <contour>
      <point x="212" y="0" type="curve"/>
      <point x="212" y="722" type="line"/>
      <point x="136" y="722"/>
      <point x="212" y="722"/>
      <point x="136" y="722" type="curve"/>
      <point x="136" y="481"/>
      <point x="136" y="241"/>
      <point x="136" y="0" type="curve"/>
      <point x="212" y="0"/>
      <point x="136" y="0"/>
    </contour>
    <contour>
      <point x="593" y="22" type="curve"/>
      <point x="282" y="380" type="line"/>
      <point x="192" y="380"/>
      <point x="283" y="380"/>
      <point x="193" y="380" type="curve"/>
      <point x="518" y="0" type="line"/>
      <point x="605" y="0"/>
      <point x="507" y="22"/>
    </contour>
  </outline>
</glyph>
<glyph name="M" format="1">
  <advance width="914"/>
  <unicode hex="004D"/>
  <outline>
    <contour>
      <point x="760" y="0" type="curve"/>
      <point x="808" y="0"/>
      <point x="844" y="0"/>
      <point x="892" y="0" type="curve"/>
      <point x="892" y="60"/>
      <point x="892" y="0"/>
      <point x="892" y="60" type="curve"/>
      <point x="748" y="60"/>
      <point x="903" y="60"/>
      <point x="760" y="60" type="curve"/>
      <point x="760" y="0"/>
      <point x="760" y="60"/>
    </contour>
    <contour>
      <point x="760" y="60" type="curve"/>
      <point x="620" y="60"/>
      <point x="772" y="60"/>
      <point x="632" y="60" type="curve"/>
      <point x="632" y="0"/>
      <point x="632" y="60"/>
      <point x="632" y="0" type="curve"/>
      <point x="678" y="0"/>
      <point x="713" y="0"/>
      <point x="760" y="0" type="curve"/>
      <point x="760" y="60"/>
      <point x="760" y="0"/>
    </contour>
    <contour>
      <point x="155" y="60" type="curve"/>
      <point x="12" y="60"/>
      <point x="167" y="60"/>
      <point x="23" y="60" type="curve"/>
      <point x="23" y="0"/>
      <point x="23" y="60"/>
      <point x="23" y="0" type="curve"/>
      <point x="71" y="0"/>
      <point x="107" y="0"/>
      <point x="155" y="0" type="curve"/>
      <point x="155" y="60"/>
      <point x="155" y="0"/>
    </contour>
    <contour>
      <point x="205" y="722" type="curve"/>
      <point x="157" y="722"/>
      <point x="122" y="722"/>
      <point x="74" y="722" type="curve"/>
      <point x="74" y="662"/>
      <point x="74" y="722"/>
      <point x="74" y="662" type="curve"/>
      <point x="217" y="662"/>
      <point x="62" y="662"/>
      <point x="205" y="662" type="curve"/>
      <point x="205" y="722"/>
      <point x="205" y="662"/>
    </contour>
    <contour>
      <point x="707" y="662" type="curve"/>
      <point x="851" y="662"/>
      <point x="696" y="662"/>
      <point x="839" y="662" type="curve"/>
      <point x="839" y="722"/>
      <point x="839" y="662"/>
      <point x="839" y="722" type="curve"/>
      <point x="791" y="722"/>
      <point x="755" y="722"/>
      <point x="707" y="722" type="curve"/>
      <point x="707" y="662"/>
      <point x="707" y="722"/>
    </contour>
    <contour>
      <point x="155" y="0" type="curve"/>
      <point x="201" y="0"/>
      <point x="143" y="0"/>
      <point x="283" y="0" type="curve"/>
      <point x="283" y="60"/>
      <point x="283" y="0"/>
      <point x="283" y="60" type="curve"/>
      <point x="143" y="60"/>
      <point x="295" y="60"/>
      <point x="155" y="60" type="curve"/>
      <point x="155" y="0"/>
      <point x="155" y="60"/>
    </contour>
    <contour>
      <point x="801" y="0" type="curve"/>
      <point x="782" y="241"/>
      <point x="762" y="481"/>
      <point x="744" y="722" type="curve"/>
      <point x="674" y="722"/>
      <point x="744" y="722"/>
      <point x="674" y="722" type="curve"/>
      <point x="692" y="481"/>
      <point x="707" y="241"/>
      <point x="725" y="0" type="curve"/>
      <point x="801" y="0"/>
      <point x="725" y="0"/>
    </contour>
    <contour>
      <point x="188" y="0" type="curve"/>
      <point x="204" y="241"/>
      <point x="221" y="481"/>
      <point x="237" y="722" type="curve"/>
      <point x="170" y="722"/>
      <point x="237" y="722"/>
      <point x="170" y="722" type="curve"/>
      <point x="152" y="481"/>
      <point x="135" y="241"/>
      <point x="117" y="0" type="curve"/>
      <point x="188" y="0"/>
      <point x="117" y="0"/>
    </contour>
    <contour>
      <point x="488" y="0" type="curve"/>
      <point x="406" y="241"/>
      <point x="323" y="481"/>
      <point x="240" y="722" type="curve"/>
      <point x="172" y="722"/>
      <point x="239" y="722"/>
      <point x="172" y="722" type="curve"/>
      <point x="255" y="481"/>
      <point x="336" y="241"/>
      <point x="419" y="0" type="curve"/>
      <point x="488" y="0"/>
      <point x="419" y="0"/>
    </contour>
    <contour>
      <point x="496" y="0" type="curve"/>
      <point x="577" y="241"/>
      <point x="658" y="481"/>
      <point x="739" y="722" type="curve"/>
      <point x="671" y="722"/>
      <point x="738" y="722"/>
      <point x="671" y="722" type="curve"/>
      <point x="589" y="481"/>
      <point x="508" y="241"/>
      <point x="426" y="0" type="curve"/>
      <point x="496" y="0"/>
      <point x="426" y="0"/>
    </contour>
  </outline>
</glyph>
<glyph name="O" format="1">
  <advance width="704"/>
  <unicode hex="004F"/>
  <outline>
    <contour>
      <point x="352" y="806" type="move" name="top"/>
    </contour>
    <contour>
      <point x="137" y="360" type="curve"/>
      <point x="137" y="531"/>
      <point x="192" y="665"/>
      <point x="350" y="665" type="curve"/>
      <point x="506" y="665"/>
      <point x="568" y="533"/>
      <point x="568" y="363" type="curve"/>
      <point x="568" y="193"/>
      <point x="512" y="58"/>
      <point x="355" y="58" type="curve"/>
      <point x="196" y="58"/>
      <point x="137" y="189"/>
      <point x="137" y="360" type="curve"/>
      <point x="60" y="360"/>
      <point x="137" y="360"/>
      <point x="60" y="360" type="curve"/>
      <point x="60" y="148"/>
      <point x="153" y="-5"/>
      <point x="351" y="-5" type="curve"/>
      <point x="551" y="-5"/>
      <point x="644" y="150"/>
      <point x="644" y="363" type="curve"/>
      <point x="644" y="573"/>
      <point x="552" y="727"/>
      <point x="354" y="727" type="curve"/>
      <point x="154" y="727"/>
      <point x="60" y="572"/>
      <point x="60" y="360" type="curve"/>
      <point x="137" y="360"/>
      <point x="60" y="360"/>
    </contour>
  </outline>
</glyph>
<glyph name="P" format="1">
  <advance width="591"/>
  <unicode hex="0050"/>
  <outline>
    <contour>
      <point x="186" y="722" type="curve"/>
      <point x="139" y="722"/>
      <point x="100" y="722"/>
      <point x="52" y="722" type="curve"/>
      <point x="52" y="662"/>
      <point x="52" y="722"/>
      <point x="52" y="662" type="curve"/>
      <point x="194" y="662"/>
      <point x="43" y="662"/>
      <point x="186" y="662" type="curve"/>
      <point x="186" y="722"/>
      <point x="186" y="662"/>
    </contour>
    <contour>
      <point x="186" y="60" type="curve"/>
      <point x="43" y="60"/>
      <point x="194" y="60"/>
      <point x="52" y="60" type="curve"/>
      <point x="52" y="0"/>
      <point x="52" y="60"/>
      <point x="52" y="0" type="curve"/>
      <point x="100" y="0"/>
      <point x="139" y="0"/>
      <point x="186" y="0" type="curve"/>
      <point x="186" y="60"/>
      <point x="186" y="0"/>
    </contour>
    <contour>
      <point x="186" y="0" type="curve"/>
      <point x="234" y="0"/>
      <point x="178" y="0"/>
      <point x="320" y="0" type="curve"/>
      <point x="320" y="60"/>
      <point x="320" y="0"/>
      <point x="320" y="60" type="curve"/>
      <point x="178" y="60"/>
      <point x="329" y="60"/>
      <point x="186" y="60" type="curve"/>
      <point x="186" y="0"/>
      <point x="186" y="60"/>
    </contour>
    <contour>
      <point x="176" y="312" type="curve"/>
      <point x="224" y="286"/>
      <point x="276" y="267"/>
      <point x="334" y="267" type="curve"/>
      <point x="464" y="269"/>
      <point x="543" y="349"/>
      <point x="543" y="487" type="curve"/>
      <point x="543" y="631"/>
      <point x="450" y="722"/>
      <point x="306" y="722" type="curve"/>
      <point x="267" y="722"/>
      <point x="227" y="722"/>
      <point x="189" y="722" type="curve"/>
      <point x="189" y="662"/>
      <point x="189" y="722"/>
      <point x="189" y="662" type="curve"/>
      <point x="224" y="662"/>
      <point x="260" y="662"/>
      <point x="296" y="662" type="curve"/>
      <point x="402" y="662"/>
      <point x="467" y="594"/>
      <point x="467" y="488" type="curve"/>
      <point x="467" y="392"/>
      <point x="417" y="326"/>
      <point x="327" y="326" type="curve"/>
      <point x="277" y="326"/>
      <point x="243" y="340"/>
      <point x="200" y="364" type="curve"/>
      <point x="176" y="314"/>
      <point x="200" y="364"/>
    </contour>
    <contour>
      <point x="224" y="0" type="curve"/>
      <point x="224" y="241"/>
      <point x="224" y="481"/>
      <point x="224" y="722" type="curve"/>
      <point x="147" y="722"/>
      <point x="224" y="722"/>
      <point x="147" y="722" type="curve"/>
      <point x="147" y="481"/>
      <point x="147" y="241"/>
      <point x="147" y="0" type="curve"/>
      <point x="224" y="0"/>
      <point x="147" y="0"/>
    </contour>
  </outline>
</glyph>
<glyph name="Q" format="1">
  <advance width="713"/>
  <unicode hex="0051"/>
  <outline>
    <contour>
      <point x="327" y="14" type="curve"/>
      <point x="418" y="-157"/>
      <point x="527" y="-227"/>
      <point x="709" y="-227" type="curve"/>
      <point x="709" y="-165"/>
      <point x="709" y="-227"/>
      <point x="709" y="-165" type="curve"/>
      <point x="557" y="-165"/>
      <point x="470" y="-101"/>
      <point x="393" y="44" type="curve"/>
      <point x="327" y="14"/>
      <point x="393" y="44"/>
    </contour>
    <contour>
      <point x="136" y="360" type="curve"/>
      <point x="136" y="530"/>
      <point x="196" y="662"/>
      <point x="351" y="662" type="curve"/>
      <point x="507" y="662"/>
      <point x="569" y="532"/>
      <point x="569" y="362" type="curve"/>
      <point x="569" y="191"/>
      <point x="512" y="58"/>
      <point x="356" y="58" type="curve"/>
      <point x="198" y="58"/>
      <point x="136" y="189"/>
      <point x="136" y="360" type="curve"/>
      <point x="60" y="360"/>
      <point x="136" y="360"/>
      <point x="60" y="360" type="curve"/>
      <point x="60" y="148"/>
      <point x="155" y="-5"/>
      <point x="352" y="-5" type="curve"/>
      <point x="552" y="-5"/>
      <point x="645" y="151"/>
      <point x="645" y="365" type="curve"/>
      <point x="645" y="575"/>
      <point x="553" y="729"/>
      <point x="356" y="729" type="curve"/>
      <point x="156" y="729"/>
      <point x="60" y="573"/>
      <point x="60" y="360" type="curve"/>
      <point x="136" y="360"/>
      <point x="60" y="360"/>
    </contour>
  </outline>
</glyph>
<glyph name="V" format="1">
  <advance width="731"/>
  <unicode hex="0056"/>
  <outline>
    <contour>
      <point x="586" y="722" type="curve"/>
      <point x="539" y="722"/>
      <point x="495" y="722"/>
      <point x="447" y="722" type="curve"/>
      <point x="447" y="662"/>
      <point x="447" y="722"/>
      <point x="447" y="662" type="curve"/>
      <point x="590" y="662"/>
      <point x="443" y="662"/>
      <point x="586" y="662" type="curve"/>
      <point x="586" y="722"/>
      <point x="586" y="662"/>
    </contour>
    <contour>
      <point x="116" y="722" type="curve"/>
      <point x="74" y="722"/>
      <point x="33" y="722"/>
      <point x="-10" y="722" type="curve"/>
      <point x="-10" y="662"/>
      <point x="-10" y="722"/>
      <point x="-10" y="662" type="curve"/>
      <point x="120" y="662"/>
      <point x="-14" y="662"/>
      <point x="116" y="662" type="curve"/>
      <point x="116" y="722"/>
      <point x="116" y="662"/>
    </contour>
    <contour>
      <point x="592" y="662" type="curve"/>
      <point x="722" y="662"/>
      <point x="588" y="662"/>
      <point x="718" y="662" type="curve"/>
      <point x="718" y="722"/>
      <point x="718" y="662"/>
      <point x="718" y="722" type="curve"/>
      <point x="675" y="722"/>
      <point x="635" y="722"/>
      <point x="592" y="722" type="curve"/>
      <point x="592" y="662"/>
      <point x="592" y="722"/>
    </contour>
    <contour>
      <point x="122" y="662" type="curve"/>
      <point x="266" y="662"/>
      <point x="118" y="662"/>
      <point x="262" y="662" type="curve"/>
      <point x="262" y="722"/>
      <point x="262" y="662"/>
      <point x="262" y="722" type="curve"/>
      <point x="214" y="722"/>
      <point x="170" y="722"/>
      <point x="122" y="722" type="curve"/>
      <point x="122" y="662"/>
      <point x="122" y="722"/>
    </contour>
    <contour>
      <point x="565" y="722" type="curve"/>
      <point x="484" y="481"/>
      <point x="404" y="241"/>
      <point x="325" y="0" type="curve"/>
      <point x="404" y="0"/>
      <point x="320" y="0"/>
      <point x="399" y="0" type="curve"/>
      <point x="480" y="241"/>
      <point x="561" y="481"/>
      <point x="644" y="722" type="curve"/>
      <point x="565" y="722"/>
      <point x="644" y="722"/>
    </contour>
    <contour>
      <point x="66" y="722" type="curve"/>
      <point x="148" y="481"/>
      <point x="231" y="241"/>
      <point x="314" y="0" type="curve"/>
      <point x="393" y="0"/>
      <point x="310" y="0"/>
      <point x="390" y="0" type="curve"/>
      <point x="308" y="241"/>
      <point x="227" y="481"/>
      <point x="145" y="722" type="curve"/>
      <point x="66" y="722"/>
      <point x="145" y="722"/>
    </contour>
  </outline>
</glyph>
<glyph name="W" format="1">
  <advance width="913"/>
  <unicode hex="0057"/>
  <outline>
    <contour>
      <point x="132" y="662" type="curve"/>
      <point x="260" y="662"/>
      <point x="128" y="662"/>
      <point x="256" y="662" type="curve"/>
      <point x="256" y="722"/>
      <point x="256" y="662"/>
      <point x="256" y="722" type="curve"/>
      <point x="213" y="722"/>
      <point x="174" y="722"/>
      <point x="132" y="722" type="curve"/>
      <point x="132" y="662"/>
      <point x="132" y="722"/>
    </contour>
    <contour>
      <point x="128" y="722" type="curve"/>
      <point x="85" y="722"/>
      <point x="44" y="722"/>
      <point x="0" y="722" type="curve"/>
      <point x="0" y="662"/>
      <point x="0" y="722"/>
      <point x="0" y="662" type="curve"/>
      <point x="132" y="662"/>
      <point x="-4" y="662"/>
      <point x="128" y="662" type="curve"/>
      <point x="128" y="722"/>
      <point x="128" y="662"/>
    </contour>
    <contour>
      <point x="772" y="722" type="curve"/>
      <point x="729" y="722"/>
      <point x="690" y="722"/>
      <point x="648" y="722" type="curve"/>
      <point x="648" y="662"/>
      <point x="648" y="722"/>
      <point x="648" y="662" type="curve"/>
      <point x="776" y="662"/>
      <point x="644" y="662"/>
      <point x="772" y="662" type="curve"/>
      <point x="772" y="722"/>
      <point x="772" y="662"/>
    </contour>
    <contour>
      <point x="774" y="662" type="curve"/>
      <point x="905" y="662"/>
      <point x="770" y="662"/>
      <point x="902" y="662" type="curve"/>
      <point x="902" y="722"/>
      <point x="902" y="662"/>
      <point x="902" y="722" type="curve"/>
      <point x="858" y="722"/>
      <point x="817" y="722"/>
      <point x="774" y="722" type="curve"/>
      <point x="774" y="662"/>
      <point x="774" y="722"/>
    </contour>
    <contour>
      <point x="310" y="0" type="curve"/>
      <point x="369" y="241"/>
      <point x="427" y="481"/>
      <point x="486" y="722" type="curve"/>
      <point x="418" y="722"/>
      <point x="487" y="722"/>
      <point x="419" y="722" type="curve"/>
      <point x="363" y="481"/>
      <point x="306" y="241"/>
      <point x="250" y="0" type="curve"/>
      <point x="313" y="0"/>
      <point x="247" y="0"/>
    </contour>
    <contour>
      <point x="427" y="722" type="curve"/>
      <point x="480" y="481"/>
      <point x="532" y="241"/>
      <point x="586" y="0" type="curve"/>
      <point x="649" y="0"/>
      <point x="580" y="0"/>
      <point x="644" y="0" type="curve"/>
      <point x="593" y="242"/>
      <point x="544" y="481"/>
      <point x="493" y="722" type="curve"/>
      <point x="425" y="722"/>
      <point x="495" y="722"/>
    </contour>
    <contour>
      <point x="80" y="722" type="curve"/>
      <point x="134" y="481"/>
      <point x="187" y="241"/>
      <point x="241" y="0" type="curve"/>
      <point x="305" y="0"/>
      <point x="242" y="0"/>
      <point x="305" y="0" type="curve"/>
      <point x="253" y="241"/>
      <point x="202" y="481"/>
      <point x="150" y="722" type="curve"/>
      <point x="80" y="722"/>
      <point x="150" y="722"/>
    </contour>
    <contour>
      <point x="752" y="722" type="curve"/>
      <point x="698" y="481"/>
      <point x="644" y="241"/>
      <point x="591" y="0" type="curve"/>
      <point x="655" y="0"/>
      <point x="591" y="0"/>
      <point x="654" y="0" type="curve"/>
      <point x="710" y="241"/>
      <point x="766" y="481"/>
      <point x="822" y="722" type="curve"/>
      <point x="752" y="722"/>
      <point x="822" y="722"/>
    </contour>
  </outline>
</glyph>
<glyph name="X" format="1">
  <advance width="685"/>
  <unicode hex="0058"/>
  <outline>
    <contour>
      <point x="141" y="0" type="curve"/>
      <point x="188" y="0"/>
      <point x="137" y="0"/>
      <point x="276" y="0" type="curve"/>
      <point x="276" y="60"/>
      <point x="276" y="0"/>
      <point x="276" y="60" type="curve"/>
      <point x="137" y="60"/>
      <point x="280" y="60"/>
      <point x="141" y="60" type="curve"/>
      <point x="141" y="0"/>
      <point x="141" y="60"/>
    </contour>
    <contour>
      <point x="135" y="60" type="curve"/>
      <point x="2" y="60"/>
      <point x="139" y="60"/>
      <point x="6" y="60" type="curve"/>
      <point x="6" y="0"/>
      <point x="6" y="60"/>
      <point x="6" y="0" type="curve"/>
      <point x="50" y="0"/>
      <point x="91" y="0"/>
      <point x="135" y="0" type="curve"/>
      <point x="135" y="60"/>
      <point x="135" y="0"/>
    </contour>
    <contour>
      <point x="547" y="0" type="curve"/>
      <point x="591" y="0"/>
      <point x="632" y="0"/>
      <point x="676" y="0" type="curve"/>
      <point x="676" y="60"/>
      <point x="676" y="0"/>
      <point x="676" y="60" type="curve"/>
      <point x="543" y="60"/>
      <point x="680" y="60"/>
      <point x="547" y="60" type="curve"/>
      <point x="547" y="0"/>
      <point x="547" y="60"/>
    </contour>
    <contour>
      <point x="540" y="60" type="curve"/>
      <point x="402" y="60"/>
      <point x="544" y="60"/>
      <point x="406" y="60" type="curve"/>
      <point x="406" y="0"/>
      <point x="406" y="60"/>
      <point x="406" y="0" type="curve"/>
      <point x="451" y="0"/>
      <point x="495" y="0"/>
      <point x="540" y="0" type="curve"/>
      <point x="540" y="60"/>
      <point x="540" y="0"/>
    </contour>
    <contour>
      <point x="525" y="662" type="curve"/>
      <point x="658" y="662"/>
      <point x="521" y="662"/>
      <point x="655" y="662" type="curve"/>
      <point x="655" y="722"/>
      <point x="655" y="662"/>
      <point x="655" y="722" type="curve"/>
      <point x="610" y="722"/>
      <point x="569" y="722"/>
      <point x="525" y="722" type="curve"/>
      <point x="525" y="662"/>
      <point x="525" y="722"/>
    </contour>
    <contour>
      <point x="529" y="722" type="curve"/>
      <point x="483" y="722"/>
      <point x="439" y="722"/>
      <point x="392" y="722" type="curve"/>
      <point x="392" y="662"/>
      <point x="392" y="722"/>
      <point x="392" y="662" type="curve"/>
      <point x="534" y="662"/>
      <point x="388" y="662"/>
      <point x="529" y="662" type="curve"/>
      <point x="529" y="722"/>
      <point x="529" y="662"/>
    </contour>
    <contour>
      <point x="161" y="722" type="curve"/>
      <point x="117" y="722"/>
      <point x="76" y="722"/>
      <point x="32" y="722" type="curve"/>
      <point x="32" y="662"/>
      <point x="32" y="722"/>
      <point x="32" y="662" type="curve"/>
      <point x="165" y="662"/>
      <point x="28" y="662"/>
      <point x="161" y="662" type="curve"/>
      <point x="161" y="722"/>
      <point x="161" y="662"/>
    </contour>
    <contour>
      <point x="156" y="662" type="curve"/>
      <point x="298" y="662"/>
      <point x="153" y="662"/>
      <point x="295" y="662" type="curve"/>
      <point x="295" y="722"/>
      <point x="295" y="662"/>
      <point x="295" y="722" type="curve"/>
      <point x="247" y="722"/>
      <point x="204" y="722"/>
      <point x="156" y="722" type="curve"/>
      <point x="156" y="662"/>
      <point x="156" y="722"/>
    </contour>
    <contour>
      <point x="512" y="722" type="curve"/>
      <point x="367" y="483"/>
      <point x="221" y="245"/>
      <point x="76" y="6" type="curve"/>
      <point x="154" y="6"/>
      <point x="76" y="0"/>
      <point x="154" y="0" type="curve"/>
      <point x="299" y="239"/>
      <point x="442" y="478"/>
      <point x="587" y="717" type="curve"/>
      <point x="512" y="717"/>
      <point x="587" y="722"/>
    </contour>
    <contour>
      <point x="101" y="717" type="curve"/>
      <point x="245" y="478"/>
      <point x="387" y="239"/>
      <point x="530" y="0" type="curve"/>
      <point x="608" y="0"/>
      <point x="530" y="4"/>
      <point x="608" y="4" type="curve"/>
      <point x="464" y="244"/>
      <point x="320" y="482"/>
      <point x="175" y="722" type="curve"/>
      <point x="101" y="722"/>
      <point x="175" y="717"/>
    </contour>
  </outline>
</glyph>
<glyph name="bracketleft" format="1">
  <advance width="287"/>
  <unicode hex="005B"/>
  <outline>
    <contour>
      <point x="245" y="770" type="curve"/>
      <point x="199" y="770"/>
      <point x="155" y="770"/>
      <point x="110" y="770" type="curve"/>
      <point x="101" y="770"/>
      <point x="86" y="770"/>
      <point x="78" y="770" type="curve"/>
      <point x="78" y="762"/>
      <point x="78" y="751"/>
      <point x="78" y="743" type="curve"/>
      <point x="78" y="464"/>
      <point x="78" y="185"/>
      <point x="78" y="-94" type="curve"/>
      <point x="78" y="-102"/>
      <point x="78" y="-110"/>
      <point x="78" y="-119" type="curve"/>
      <point x="85" y="-119"/>
      <point x="100" y="-119"/>
      <point x="109" y="-119" type="curve"/>
      <point x="154" y="-119"/>
      <point x="199" y="-119"/>
      <point x="245" y="-119" type="curve"/>
      <point x="245" y="-53"/>
      <point x="245" y="-119"/>
      <point x="245" y="-53" type="curve"/>
      <point x="199" y="-53"/>
      <point x="154" y="-53"/>
      <point x="109" y="-53" type="curve"/>
      <point x="153" y="-53"/>
      <point x="109" y="-53"/>
      <point x="153" y="-53" type="curve"/>
      <point x="153" y="-94"/>
      <point x="153" y="-53"/>
      <point x="153" y="-94" type="curve"/>
      <point x="153" y="185"/>
      <point x="153" y="464"/>
      <point x="153" y="743" type="curve"/>
      <point x="153" y="705"/>
      <point x="153" y="743"/>
      <point x="153" y="705" type="curve"/>
      <point x="110" y="705"/>
      <point x="153" y="705"/>
      <point x="110" y="705" type="curve"/>
      <point x="155" y="705"/>
      <point x="199" y="705"/>
      <point x="245" y="705" type="curve"/>
      <point x="245" y="770"/>
      <point x="245" y="705"/>
    </contour>
  </outline>
</glyph>
<glyph name="backslash" format="1">
  <advance width="495"/>
  <unicode hex="005C"/>
  <outline>
    <contour>
      <point x="460" y="-68" type="curve"/>
      <point x="345" y="236"/>
      <point x="230" y="540"/>
      <point x="114" y="844" type="curve"/>
      <point x="35" y="844"/>
      <point x="114" y="844"/>
      <point x="35" y="844" type="curve"/>
      <point x="151" y="540"/>
      <point x="266" y="236"/>
      <point x="381" y="-68" type="curve"/>
      <point x="460" y="-68"/>
      <point x="381" y="-68"/>
    </contour>
  </outline>
</glyph>
<glyph name="bracketright" format="1">
  <advance width="288"/>
  <unicode hex="005D"/>
  <outline>
    <contour>
      <point x="43" y="705" type="curve"/>
      <point x="88" y="705"/>
      <point x="133" y="705"/>
      <point x="178" y="705" type="curve"/>
      <point x="171" y="711"/>
      <point x="160" y="713"/>
      <point x="153" y="721" type="curve"/>
      <point x="146" y="728"/>
      <point x="141" y="736"/>
      <point x="134" y="743" type="curve"/>
      <point x="134" y="464"/>
      <point x="134" y="185"/>
      <point x="134" y="-94" type="curve"/>
      <point x="141" y="-86"/>
      <point x="148" y="-79"/>
      <point x="155" y="-71" type="curve"/>
      <point x="163" y="-64"/>
      <point x="172" y="-61"/>
      <point x="179" y="-53" type="curve"/>
      <point x="133" y="-53"/>
      <point x="88" y="-53"/>
      <point x="43" y="-53" type="curve"/>
      <point x="43" y="-119"/>
      <point x="43" y="-53"/>
      <point x="43" y="-119" type="curve"/>
      <point x="88" y="-119"/>
      <point x="133" y="-119"/>
      <point x="179" y="-119" type="curve"/>
      <point x="210" y="-119"/>
      <point x="179" y="-119"/>
      <point x="210" y="-119" type="curve"/>
      <point x="210" y="-94"/>
      <point x="210" y="-119"/>
      <point x="210" y="-94" type="curve"/>
      <point x="210" y="185"/>
      <point x="210" y="464"/>
      <point x="210" y="743" type="curve"/>
      <point x="210" y="770"/>
      <point x="210" y="743"/>
      <point x="210" y="770" type="curve"/>
      <point x="178" y="770"/>
      <point x="210" y="770"/>
      <point x="178" y="770" type="curve"/>
      <point x="133" y="770"/>
      <point x="88" y="770"/>
      <point x="43" y="770" type="curve"/>
      <point x="43" y="705"/>
      <point x="43" y="770"/>
    </contour>
  </outline>
</glyph>
<glyph name="asciicircum" format="1">
  <advance width="509"/>
  <unicode hex="005E"/>
  <outline>
    <contour>
      <point x="138" y="461" type="curve"/>
      <point x="189" y="569"/>
      <point x="240" y="677"/>
      <point x="291" y="786" type="curve"/>
      <point x="216" y="786"/>
      <point x="291" y="786"/>
      <point x="216" y="786" type="curve"/>
      <point x="164" y="677"/>
      <point x="113" y="569"/>
      <point x="62" y="461" type="curve"/>
      <point x="138" y="461"/>
      <point x="63" y="461"/>
    </contour>
    <contour>
      <point x="447" y="461" type="curve"/>
      <point x="397" y="567"/>
      <point x="343" y="680"/>
      <point x="292" y="786" type="curve"/>
      <point x="216" y="786"/>
      <point x="291" y="786"/>
      <point x="216" y="786" type="curve"/>
      <point x="266" y="680"/>
      <point x="321" y="567"/>
      <point x="371" y="461" type="curve"/>
      <point x="447" y="461"/>
      <point x="372" y="461"/>
    </contour>
  </outline>
</glyph>
<glyph name="underscore" format="1">
  <advance width="601"/>
  <unicode hex="005F"/>
  <outline>
    <contour>
      <point x="-1" y="-198" type="curve"/>
      <point x="200" y="-198"/>
      <point x="401" y="-198"/>
      <point x="601" y="-198" type="curve"/>
      <point x="601" y="-138"/>
      <point x="601" y="-198"/>
      <point x="601" y="-138" type="curve"/>
      <point x="401" y="-138"/>
      <point x="200" y="-138"/>
      <point x="-1" y="-138" type="curve"/>
      <point x="-1" y="-198"/>
      <point x="-1" y="-138"/>
    </contour>
  </outline>
</glyph>
<glyph name="grave" format="1">
  <advance width="372"/>
  <unicode hex="0060"/>
  <outline>
    <contour>
      <point x="213" y="584" type="move" name="_top"/>
    </contour>
    <contour>
      <point x="253" y="584" type="line"/>
      <point x="153" y="750" type="line"/>
      <point x="57" y="750" type="line"/>
      <point x="178" y="584" type="line"/>
    </contour>
  </outline>
</glyph>
<glyph name="c" format="1">
  <advance width="506"/>
  <unicode hex="0063"/>
  <outline>
    <contour>
      <point x="281" y="645" type="move" name="top"/>
    </contour>
    <contour>
      <point x="299" y="1" type="move" name="bottom"/>
    </contour>
    <contour>
      <point x="387" y="471" type="curve"/>
      <point x="387" y="346"/>
      <point x="387" y="475"/>
      <point x="387" y="350" type="curve"/>
      <point x="448" y="350"/>
      <point x="387" y="350"/>
      <point x="448" y="350" type="curve"/>
      <point x="448" y="475"/>
      <point x="448" y="346"/>
      <point x="448" y="471" type="curve"/>
      <point x="387" y="471"/>
      <point x="448" y="471"/>
    </contour>
    <contour>
      <point x="448" y="471" type="curve"/>
      <point x="405" y="508"/>
      <point x="349" y="538"/>
      <point x="289" y="538" type="curve"/>
      <point x="131" y="538"/>
      <point x="54" y="435"/>
      <point x="54" y="267" type="curve"/>
      <point x="54" y="100"/>
      <point x="129" y="-5"/>
      <point x="286" y="-5" type="curve"/>
      <point x="355" y="-5"/>
      <point x="418" y="28"/>
      <point x="457" y="87" type="curve"/>
      <point x="408" y="126"/>
      <point x="457" y="87"/>
      <point x="408" y="126" type="curve"/>
      <point x="380" y="90"/>
      <point x="338" y="57"/>
      <point x="290" y="57" type="curve"/>
      <point x="176" y="57"/>
      <point x="130" y="141"/>
      <point x="130" y="267" type="curve"/>
      <point x="130" y="392"/>
      <point x="176" y="476"/>
      <point x="287" y="476" type="curve"/>
      <point x="330" y="476"/>
      <point x="372" y="456"/>
      <point x="404" y="430" type="curve"/>
      <point x="448" y="471"/>
      <point x="404" y="430"/>
    </contour>
  </outline>
</glyph>
<glyph name="f" format="1">
  <advance width="438"/>
  <unicode hex="0066"/>
  <outline>
    <contour>
      <point x="363" y="773" type="curve"/>
      <point x="363" y="651"/>
      <point x="363" y="777"/>
      <point x="363" y="655" type="curve"/>
      <point x="423" y="655"/>
      <point x="363" y="655"/>
      <point x="423" y="655" type="curve"/>
      <point x="423" y="777"/>
      <point x="423" y="651"/>
      <point x="423" y="773" type="curve"/>
      <point x="363" y="773"/>
      <point x="423" y="773"/>
    </contour>
    <contour>
      <point x="194" y="0" type="curve"/>
      <point x="241" y="0"/>
      <point x="280" y="0"/>
      <point x="327" y="0" type="curve"/>
      <point x="327" y="60"/>
      <point x="327" y="0"/>
      <point x="327" y="60" type="curve"/>
      <point x="187" y="60"/>
      <point x="335" y="60"/>
      <point x="194" y="60" type="curve"/>
      <point x="194" y="0"/>
      <point x="194" y="60"/>
    </contour>
    <contour>
      <point x="194" y="60" type="curve"/>
      <point x="53" y="60"/>
      <point x="201" y="60"/>
      <point x="60" y="60" type="curve"/>
      <point x="60" y="0"/>
      <point x="60" y="60"/>
      <point x="60" y="0" type="curve"/>
      <point x="107" y="0"/>
      <point x="147" y="0"/>
      <point x="194" y="0" type="curve"/>
      <point x="194" y="60"/>
      <point x="194" y="0"/>
    </contour>
    <contour>
      <point x="33" y="473" type="curve"/>
      <point x="386" y="473" type="line"/>
      <point x="386" y="533"/>
      <point x="386" y="473"/>
      <point x="386" y="533" type="curve"/>
      <point x="33" y="533" type="line"/>
      <point x="33" y="473"/>
      <point x="33" y="533"/>
    </contour>
    <contour>
      <point x="232" y="0" type="curve"/>
      <point x="232" y="624" type="line"/>
      <point x="231" y="694"/>
      <point x="255" y="747"/>
      <point x="318" y="747" type="curve"/>
      <point x="345" y="747"/>
      <point x="370" y="737"/>
      <point x="393" y="725" type="curve"/>
      <point x="423" y="773"/>
      <point x="393" y="725"/>
      <point x="423" y="773" type="curve"/>
      <point x="391" y="790"/>
      <point x="355" y="805"/>
      <point x="318" y="805" type="curve"/>
      <point x="214" y="805"/>
      <point x="155" y="732"/>
      <point x="156" y="624" type="curve"/>
      <point x="156" y="0" type="line"/>
      <point x="232" y="0"/>
      <point x="156" y="0"/>
    </contour>
  </outline>
</glyph>
<glyph name="h" format="1">
  <advance width="607"/>
  <unicode hex="0068"/>
  <outline>
    <contour>
      <point x="469" y="0" type="curve"/>
      <point x="516" y="0"/>
      <point x="557" y="0"/>
      <point x="603" y="0" type="curve"/>
      <point x="603" y="60"/>
      <point x="603" y="0"/>
      <point x="603" y="60" type="curve"/>
      <point x="462" y="60"/>
      <point x="611" y="60"/>
      <point x="469" y="60" type="curve"/>
      <point x="469" y="0"/>
      <point x="469" y="60"/>
    </contour>
    <contour>
      <point x="142" y="0" type="curve"/>
      <point x="183" y="0"/>
      <point x="135" y="0"/>
      <point x="259" y="0" type="curve"/>
      <point x="259" y="60"/>
      <point x="259" y="0"/>
      <point x="259" y="60" type="curve"/>
      <point x="135" y="60"/>
      <point x="266" y="60"/>
      <point x="142" y="60" type="curve"/>
      <point x="142" y="0"/>
      <point x="142" y="60"/>
    </contour>
    <contour>
      <point x="142" y="800" type="curve"/>
      <point x="95" y="800"/>
      <point x="54" y="800"/>
      <point x="7" y="800" type="curve"/>
      <point x="7" y="740"/>
      <point x="7" y="800"/>
      <point x="7" y="740" type="curve"/>
      <point x="149" y="740"/>
      <point x="0" y="740"/>
      <point x="142" y="740" type="curve"/>
      <point x="142" y="800"/>
      <point x="142" y="740"/>
    </contour>
    <contour>
      <point x="142" y="60" type="curve"/>
      <point x="0" y="60"/>
      <point x="149" y="60"/>
      <point x="7" y="60" type="curve"/>
      <point x="7" y="0"/>
      <point x="7" y="60"/>
      <point x="7" y="0" type="curve"/>
      <point x="54" y="0"/>
      <point x="95" y="0"/>
      <point x="142" y="0" type="curve"/>
      <point x="142" y="60"/>
      <point x="142" y="0"/>
    </contour>
    <contour>
      <point x="162" y="327" type="curve"/>
      <point x="186" y="404"/>
      <point x="245" y="477"/>
      <point x="322" y="477" type="curve"/>
      <point x="405" y="477"/>
      <point x="432" y="413"/>
      <point x="432" y="325" type="curve"/>
      <point x="432" y="217"/>
      <point x="432" y="109"/>
      <point x="432" y="0" type="curve"/>
      <point x="508" y="0"/>
      <point x="432" y="0"/>
      <point x="508" y="0" type="curve"/>
      <point x="508" y="111"/>
      <point x="508" y="222"/>
      <point x="508" y="333" type="curve"/>
      <point x="508" y="457"/>
      <point x="460" y="536"/>
      <point x="340" y="536" type="curve"/>
      <point x="241" y="536"/>
      <point x="162" y="459"/>
      <point x="135" y="359" type="curve"/>
      <point x="164" y="328"/>
      <point x="134" y="358"/>
    </contour>
    <contour>
      <point x="180" y="0" type="curve"/>
      <point x="180" y="267"/>
      <point x="180" y="533"/>
      <point x="180" y="800" type="curve"/>
      <point x="104" y="800"/>
      <point x="180" y="800"/>
      <point x="104" y="800" type="curve"/>
      <point x="104" y="533"/>
      <point x="104" y="267"/>
      <point x="104" y="0" type="curve"/>
      <point x="180" y="0"/>
      <point x="104" y="0"/>
    </contour>
  </outline>
</glyph>
<glyph name="i" format="1">
  <advance width="307"/>
  <unicode hex="0069"/>
  <outline>
    <contour>
      <point x="164" y="645" type="move" name="top"/>
    </contour>
    <contour>
      <point x="202" y="3" type="move" name="bottom"/>
    </contour>
    <contour>
      <point x="166" y="60" type="curve"/>
      <point x="25" y="60"/>
      <point x="173" y="60"/>
      <point x="32" y="60" type="curve"/>
      <point x="32" y="0"/>
      <point x="32" y="60"/>
      <point x="32" y="0" type="curve"/>
      <point x="79" y="0"/>
      <point x="119" y="0"/>
      <point x="166" y="0" type="curve"/>
      <point x="166" y="60"/>
      <point x="166" y="0"/>
    </contour>
    <contour>
      <point x="166" y="0" type="curve"/>
      <point x="210" y="0"/>
      <point x="248" y="0"/>
      <point x="293" y="0" type="curve"/>
      <point x="293" y="60"/>
      <point x="293" y="0"/>
      <point x="293" y="60" type="curve"/>
      <point x="160" y="60"/>
      <point x="299" y="60"/>
      <point x="166" y="60" type="curve"/>
      <point x="166" y="0"/>
      <point x="166" y="60"/>
    </contour>
    <contour>
      <point x="166" y="533" type="curve"/>
      <point x="119" y="533"/>
      <point x="79" y="533"/>
      <point x="32" y="533" type="curve"/>
      <point x="32" y="473"/>
      <point x="32" y="533"/>
      <point x="32" y="473" type="curve"/>
      <point x="173" y="473"/>
      <point x="25" y="473"/>
      <point x="166" y="473" type="curve"/>
      <point x="166" y="533"/>
      <point x="166" y="473"/>
    </contour>
    <contour>
      <point x="207" y="0" type="curve"/>
      <point x="207" y="178"/>
      <point x="207" y="355"/>
      <point x="207" y="533" type="curve"/>
      <point x="126" y="533"/>
      <point x="207" y="533"/>
      <point x="126" y="533" type="curve"/>
      <point x="126" y="355"/>
      <point x="126" y="178"/>
      <point x="126" y="0" type="curve"/>
      <point x="207" y="0"/>
      <point x="126" y="0"/>
    </contour>
    <contour>
      <point x="208" y="683" type="curve"/>
      <point x="208" y="710"/>
      <point x="189" y="723"/>
      <point x="163" y="723" type="curve"/>
      <point x="137" y="723"/>
      <point x="121" y="708"/>
      <point x="121" y="683" type="curve"/>
      <point x="204" y="683"/>
      <point x="124" y="683"/>
      <point x="208" y="683" type="curve"/>
      <point x="208" y="656"/>
      <point x="189" y="642"/>
      <point x="163" y="642" type="curve"/>
      <point x="137" y="642"/>
      <point x="121" y="656"/>
      <point x="121" y="683" type="curve"/>
      <point x="204" y="683"/>
      <point x="124" y="683"/>
    </contour>
  </outline>
</glyph>
<glyph name="j" format="1">
  <advance width="285"/>
  <unicode hex="006A"/>
  <outline>
    <contour>
      <point x="156" y="533" type="curve"/>
      <point x="108" y="533"/>
      <point x="65" y="533"/>
      <point x="18" y="533" type="curve"/>
      <point x="18" y="473"/>
      <point x="18" y="533"/>
      <point x="18" y="473" type="curve"/>
      <point x="160" y="473"/>
      <point x="14" y="473"/>
      <point x="156" y="473" type="curve"/>
      <point x="156" y="533"/>
      <point x="156" y="473"/>
    </contour>
    <contour>
      <point x="-4" y="-302" type="curve"/>
      <point x="4" y="-303"/>
      <point x="15" y="-304"/>
      <point x="26" y="-304" type="curve"/>
      <point x="127" y="-304"/>
      <point x="195" y="-235"/>
      <point x="195" y="-132" type="curve"/>
      <point x="195" y="89"/>
      <point x="195" y="311"/>
      <point x="195" y="533" type="curve"/>
      <point x="119" y="533"/>
      <point x="195" y="533"/>
      <point x="119" y="533" type="curve"/>
      <point x="119" y="311"/>
      <point x="119" y="89"/>
      <point x="119" y="-132" type="curve"/>
      <point x="119" y="-193"/>
      <point x="88" y="-245"/>
      <point x="29" y="-245" type="curve"/>
      <point x="22" y="-245"/>
      <point x="14" y="-244"/>
      <point x="8" y="-243" type="curve"/>
      <point x="-3" y="-300"/>
      <point x="7" y="-245"/>
    </contour>
    <contour>
      <point x="200" y="680" type="curve"/>
      <point x="200" y="707"/>
      <point x="182" y="721"/>
      <point x="156" y="721" type="curve"/>
      <point x="130" y="721"/>
      <point x="113" y="706"/>
      <point x="113" y="680" type="curve"/>
      <point x="197" y="680"/>
      <point x="117" y="680"/>
      <point x="200" y="680" type="curve"/>
      <point x="200" y="653"/>
      <point x="182" y="640"/>
      <point x="156" y="640" type="curve"/>
      <point x="130" y="640"/>
      <point x="113" y="654"/>
      <point x="113" y="680" type="curve"/>
      <point x="197" y="680"/>
      <point x="117" y="680"/>
    </contour>
  </outline>
</glyph>
<glyph name="k" format="1">
  <advance width="560"/>
  <unicode hex="006B"/>
  <outline>
    <contour>
      <point x="341" y="-34" type="move" name="bottom"/>
    </contour>
    <contour>
      <point x="141" y="60" type="curve"/>
      <point x="0" y="60"/>
      <point x="148" y="60"/>
      <point x="7" y="60" type="curve"/>
      <point x="7" y="0"/>
      <point x="7" y="60"/>
      <point x="7" y="0" type="curve"/>
      <point x="54" y="0"/>
      <point x="94" y="0"/>
      <point x="141" y="0" type="curve"/>
      <point x="141" y="60"/>
      <point x="141" y="0"/>
    </contour>
    <contour>
      <point x="416" y="0" type="curve"/>
      <point x="461" y="0"/>
      <point x="498" y="0"/>
      <point x="544" y="0" type="curve"/>
      <point x="544" y="60"/>
      <point x="544" y="0"/>
      <point x="544" y="60" type="curve"/>
      <point x="408" y="60"/>
      <point x="553" y="60"/>
      <point x="417" y="60" type="curve"/>
      <point x="417" y="0"/>
      <point x="416" y="60"/>
    </contour>
    <contour>
      <point x="408" y="473" type="curve"/>
      <point x="525" y="473"/>
      <point x="399" y="473"/>
      <point x="516" y="473" type="curve"/>
      <point x="516" y="533"/>
      <point x="516" y="473"/>
      <point x="516" y="533" type="curve"/>
      <point x="477" y="533"/>
      <point x="446" y="533"/>
      <point x="408" y="533" type="curve"/>
      <point x="408" y="473"/>
      <point x="408" y="533"/>
    </contour>
    <contour>
      <point x="141" y="0" type="curve"/>
      <point x="181" y="0"/>
      <point x="137" y="0"/>
      <point x="256" y="0" type="curve"/>
      <point x="256" y="60"/>
      <point x="256" y="0"/>
      <point x="256" y="60" type="curve"/>
      <point x="137" y="60"/>
      <point x="260" y="60"/>
      <point x="141" y="60" type="curve"/>
      <point x="141" y="0"/>
      <point x="141" y="60"/>
    </contour>
    <contour>
      <point x="420" y="533" type="curve"/>
      <point x="366" y="533"/>
      <point x="318" y="533"/>
      <point x="264" y="533" type="curve"/>
      <point x="264" y="473"/>
      <point x="264" y="533"/>
      <point x="264" y="473" type="curve"/>
      <point x="424" y="473"/>
      <point x="259" y="473"/>
      <point x="420" y="473" type="curve"/>
      <point x="420" y="533"/>
      <point x="420" y="473"/>
    </contour>
    <contour>
      <point x="143" y="800" type="curve"/>
      <point x="96" y="800"/>
      <point x="56" y="800"/>
      <point x="8" y="800" type="curve"/>
      <point x="8" y="740"/>
      <point x="8" y="800"/>
      <point x="8" y="740" type="curve"/>
      <point x="150" y="740"/>
      <point x="1" y="740"/>
      <point x="143" y="740" type="curve"/>
      <point x="143" y="800"/>
      <point x="143" y="740"/>
    </contour>
    <contour>
      <point x="179" y="0" type="curve"/>
      <point x="179" y="800" type="line"/>
      <point x="103" y="800"/>
      <point x="179" y="800"/>
      <point x="103" y="800" type="curve"/>
      <point x="103" y="533"/>
      <point x="103" y="267"/>
      <point x="103" y="0" type="curve"/>
      <point x="179" y="0"/>
      <point x="103" y="0"/>
    </contour>
    <contour>
      <point x="389" y="533" type="curve"/>
      <point x="160" y="275" type="line"/>
      <point x="245" y="275"/>
      <point x="158" y="275"/>
      <point x="244" y="275" type="curve"/>
      <point x="464" y="512" type="line"/>
      <point x="381" y="512"/>
      <point x="472" y="533"/>
    </contour>
    <contour>
      <point x="482" y="28" type="curve"/>
      <point x="244" y="275" type="line"/>
      <point x="158" y="275"/>
      <point x="245" y="275"/>
      <point x="160" y="275" type="curve"/>
      <point x="411" y="0" type="line"/>
      <point x="492" y="0"/>
      <point x="402" y="28"/>
    </contour>
  </outline>
</glyph>
<glyph name="l" format="1">
  <advance width="309"/>
  <unicode hex="006C"/>
  <outline>
    <contour>
      <point x="155" y="889" type="move" name="top"/>
    </contour>
    <contour>
      <point x="181" y="-32" type="move" name="bottom"/>
    </contour>
    <contour>
      <point x="155" y="60" type="curve"/>
      <point x="13" y="60"/>
      <point x="155" y="60"/>
      <point x="13" y="60" type="curve"/>
      <point x="13" y="0"/>
      <point x="13" y="60"/>
      <point x="13" y="0" type="curve"/>
      <point x="61" y="0"/>
      <point x="107" y="0"/>
      <point x="155" y="0" type="curve"/>
      <point x="155" y="60"/>
      <point x="155" y="0"/>
    </contour>
    <contour>
      <point x="157" y="800" type="curve"/>
      <point x="110" y="800"/>
      <point x="63" y="800"/>
      <point x="15" y="800" type="curve"/>
      <point x="15" y="740"/>
      <point x="15" y="800"/>
      <point x="15" y="740" type="curve"/>
      <point x="157" y="740"/>
      <point x="15" y="740"/>
      <point x="157" y="740" type="curve"/>
      <point x="157" y="800"/>
      <point x="157" y="740"/>
    </contour>
    <contour>
      <point x="155" y="0" type="curve"/>
      <point x="203" y="0"/>
      <point x="250" y="0"/>
      <point x="297" y="0" type="curve"/>
      <point x="297" y="60"/>
      <point x="297" y="0"/>
      <point x="297" y="60" type="curve"/>
      <point x="155" y="60"/>
      <point x="297" y="60"/>
      <point x="155" y="60" type="curve"/>
      <point x="155" y="0"/>
      <point x="155" y="60"/>
    </contour>
    <contour>
      <point x="192" y="0" type="curve"/>
      <point x="192" y="267"/>
      <point x="192" y="533"/>
      <point x="192" y="800" type="curve"/>
      <point x="116" y="800"/>
      <point x="192" y="800"/>
      <point x="116" y="800" type="curve"/>
      <point x="116" y="533"/>
      <point x="116" y="267"/>
      <point x="116" y="0" type="curve"/>
      <point x="192" y="0"/>
      <point x="116" y="0"/>
    </contour>
  </outline>
</glyph>
<glyph name="p" format="1">
  <advance width="608"/>
  <unicode hex="0070"/>
  <outline>
    <contour>
      <point x="142" y="-240" type="curve"/>
      <point x="-1" y="-240"/>
      <point x="149" y="-240"/>
      <point x="6" y="-240" type="curve"/>
      <point x="6" y="-300"/>
      <point x="6" y="-240"/>
      <point x="6" y="-300" type="curve"/>
      <point x="54" y="-300"/>
      <point x="94" y="-300"/>
      <point x="142" y="-300" type="curve"/>
      <point x="142" y="-240"/>
      <point x="142" y="-300"/>
    </contour>
    <contour>
      <point x="142" y="-300" type="curve"/>
      <point x="187" y="-300"/>
      <point x="224" y="-300"/>
      <point x="269" y="-300" type="curve"/>
      <point x="269" y="-240"/>
      <point x="269" y="-300"/>
      <point x="269" y="-240" type="curve"/>
      <point x="134" y="-240"/>
      <point x="277" y="-240"/>
      <point x="142" y="-240" type="curve"/>
      <point x="142" y="-300"/>
      <point x="142" y="-240"/>
    </contour>
    <contour>
      <point x="143" y="533" type="curve"/>
      <point x="96" y="533"/>
      <point x="55" y="533"/>
      <point x="7" y="533" type="curve"/>
      <point x="7" y="473"/>
      <point x="7" y="533"/>
      <point x="7" y="473" type="curve"/>
      <point x="150" y="473"/>
      <point x="0" y="473"/>
      <point x="143" y="473" type="curve"/>
      <point x="143" y="533"/>
      <point x="143" y="473"/>
    </contour>
    <contour>
      <point x="161" y="360" type="curve"/>
      <point x="190" y="419"/>
      <point x="251" y="478"/>
      <point x="327" y="478" type="curve"/>
      <point x="437" y="478"/>
      <point x="479" y="386"/>
      <point x="479" y="270" type="curve"/>
      <point x="480" y="150"/>
      <point x="437" y="54"/>
      <point x="327" y="55" type="curve"/>
      <point x="257" y="55"/>
      <point x="208" y="90"/>
      <point x="164" y="143" type="curve"/>
      <point x="136" y="115"/>
      <point x="159" y="136"/>
      <point x="131" y="108" type="curve"/>
      <point x="184" y="38"/>
      <point x="248" y="-5"/>
      <point x="339" y="-5" type="curve"/>
      <point x="490" y="-5"/>
      <point x="555" y="117"/>
      <point x="554" y="274" type="curve"/>
      <point x="554" y="422"/>
      <point x="489" y="538"/>
      <point x="341" y="538" type="curve"/>
      <point x="246" y="538"/>
      <point x="175" y="477"/>
      <point x="135" y="409" type="curve"/>
      <point x="158" y="367"/>
      <point x="138" y="402"/>
    </contour>
    <contour>
      <point x="180" y="-300" type="curve"/>
      <point x="180" y="-22"/>
      <point x="180" y="255"/>
      <point x="180" y="533" type="curve"/>
      <point x="104" y="533"/>
      <point x="180" y="533"/>
      <point x="104" y="533" type="curve"/>
      <point x="104" y="255"/>
      <point x="104" y="-22"/>
      <point x="104" y="-300" type="curve"/>
      <point x="180" y="-300"/>
      <point x="104" y="-300"/>
    </contour>
  </outline>
</glyph>
<glyph name="q" format="1">
  <advance width="614"/>
  <unicode hex="0071"/>
  <outline>
    <contour>
      <point x="468" y="473" type="curve"/>
      <point x="587" y="473"/>
      <point x="474" y="473"/>
      <point x="593" y="473" type="curve"/>
      <point x="593" y="525"/>
      <point x="593" y="482"/>
      <point x="593" y="533" type="curve"/>
      <point x="548" y="533"/>
      <point x="512" y="533"/>
      <point x="468" y="533" type="curve"/>
      <point x="468" y="482"/>
      <point x="468" y="525"/>
    </contour>
    <contour>
      <point x="467" y="-240" type="curve"/>
      <point x="339" y="-240"/>
      <point x="461" y="-240"/>
      <point x="333" y="-240" type="curve"/>
      <point x="333" y="-292"/>
      <point x="333" y="-248"/>
      <point x="333" y="-300" type="curve"/>
      <point x="381" y="-300"/>
      <point x="420" y="-300"/>
      <point x="467" y="-300" type="curve"/>
      <point x="467" y="-248"/>
      <point x="467" y="-292"/>
    </contour>
    <contour>
      <point x="467" y="-300" type="curve"/>
      <point x="512" y="-300"/>
      <point x="548" y="-300"/>
      <point x="593" y="-300" type="curve"/>
      <point x="593" y="-248"/>
      <point x="593" y="-292"/>
      <point x="593" y="-240" type="curve"/>
      <point x="473" y="-240"/>
      <point x="587" y="-240"/>
      <point x="467" y="-240" type="curve"/>
      <point x="467" y="-292"/>
      <point x="467" y="-248"/>
    </contour>
    <contour>
      <point x="475" y="417" type="curve"/>
      <point x="427" y="493"/>
      <point x="352" y="538"/>
      <point x="268" y="538" type="curve"/>
      <point x="118" y="538"/>
      <point x="53" y="419"/>
      <point x="53" y="264" type="curve"/>
      <point x="54" y="110"/>
      <point x="123" y="-6"/>
      <point x="273" y="-6" type="curve"/>
      <point x="361" y="-6"/>
      <point x="431" y="53"/>
      <point x="478" y="126" type="curve"/>
      <point x="452" y="156"/>
      <point x="472" y="134"/>
      <point x="447" y="163" type="curve"/>
      <point x="411" y="100"/>
      <point x="352" y="54"/>
      <point x="283" y="54" type="curve"/>
      <point x="174" y="54"/>
      <point x="130" y="149"/>
      <point x="130" y="267" type="curve"/>
      <point x="130" y="383"/>
      <point x="173" y="477"/>
      <point x="280" y="477" type="curve"/>
      <point x="346" y="477"/>
      <point x="405" y="443"/>
      <point x="450" y="378" type="curve"/>
      <point x="469" y="410"/>
      <point x="455" y="385"/>
    </contour>
    <contour>
      <point x="506" y="-300" type="curve"/>
      <point x="506" y="-19"/>
      <point x="506" y="252"/>
      <point x="506" y="533" type="curve"/>
      <point x="438" y="533"/>
      <point x="494" y="533"/>
      <point x="427" y="533" type="curve"/>
      <point x="427" y="252"/>
      <point x="427" y="-19"/>
      <point x="427" y="-300" type="curve"/>
      <point x="494" y="-300"/>
      <point x="438" y="-300"/>
    </contour>
  </outline>
</glyph>
<glyph name="t" format="1">
  <advance width="381"/>
  <unicode hex="0074"/>
  <outline>
    <contour>
      <point x="269" y="-31" type="move" name="bottom"/>
    </contour>
    <contour>
      <point x="17" y="473" type="curve"/>
      <point x="357" y="473" type="line"/>
      <point x="357" y="533"/>
      <point x="357" y="473"/>
      <point x="357" y="533" type="curve"/>
      <point x="17" y="533" type="line"/>
      <point x="17" y="473"/>
      <point x="17" y="533"/>
    </contour>
    <contour>
      <point x="329" y="81" type="curve"/>
      <point x="306" y="66"/>
      <point x="287" y="57"/>
      <point x="260" y="57" type="curve"/>
      <point x="207" y="57"/>
      <point x="191" y="97"/>
      <point x="191" y="158" type="curve"/>
      <point x="191" y="681" type="line"/>
      <point x="143" y="651"/>
      <point x="163" y="661"/>
      <point x="115" y="631" type="curve"/>
      <point x="115" y="155" type="line"/>
      <point x="115" y="54"/>
      <point x="157" y="-5"/>
      <point x="250" y="-5" type="curve"/>
      <point x="293" y="-5"/>
      <point x="322" y="7"/>
      <point x="359" y="27" type="curve"/>
      <point x="329" y="81"/>
      <point x="359" y="27"/>
    </contour>
  </outline>
</glyph>
<glyph name="w" format="1">
  <advance width="904"/>
  <unicode hex="0077"/>
  <outline>
    <contour>
      <point x="770" y="473" type="curve"/>
      <point x="901" y="473"/>
      <point x="766" y="473"/>
      <point x="897" y="473" type="curve"/>
      <point x="897" y="533"/>
      <point x="897" y="473"/>
      <point x="897" y="533" type="curve"/>
      <point x="854" y="533"/>
      <point x="813" y="533"/>
      <point x="770" y="533" type="curve"/>
      <point x="770" y="473"/>
      <point x="770" y="533"/>
    </contour>
    <contour>
      <point x="770" y="533" type="curve"/>
      <point x="726" y="533"/>
      <point x="694" y="533"/>
      <point x="650" y="533" type="curve"/>
      <point x="650" y="473"/>
      <point x="650" y="533"/>
      <point x="650" y="473" type="curve"/>
      <point x="782" y="473"/>
      <point x="639" y="473"/>
      <point x="770" y="473" type="curve"/>
      <point x="770" y="533"/>
      <point x="770" y="473"/>
    </contour>
    <contour>
      <point x="135" y="533" type="curve"/>
      <point x="92" y="533"/>
      <point x="51" y="533"/>
      <point x="8" y="533" type="curve"/>
      <point x="8" y="473"/>
      <point x="8" y="533"/>
      <point x="8" y="473" type="curve"/>
      <point x="139" y="473"/>
      <point x="4" y="473"/>
      <point x="135" y="473" type="curve"/>
      <point x="135" y="533"/>
      <point x="135" y="473"/>
    </contour>
    <contour>
      <point x="135" y="473" type="curve"/>
      <point x="265" y="473"/>
      <point x="128" y="473"/>
      <point x="258" y="473" type="curve"/>
      <point x="258" y="533"/>
      <point x="258" y="473"/>
      <point x="258" y="533" type="curve"/>
      <point x="215" y="533"/>
      <point x="178" y="533"/>
      <point x="135" y="533" type="curve"/>
      <point x="135" y="473"/>
      <point x="135" y="533"/>
    </contour>
    <contour>
      <point x="312" y="0" type="curve"/>
      <point x="372" y="178"/>
      <point x="432" y="355"/>
      <point x="491" y="533" type="curve"/>
      <point x="420" y="533"/>
      <point x="491" y="533"/>
      <point x="420" y="533" type="curve"/>
      <point x="362" y="355"/>
      <point x="302" y="178"/>
      <point x="243" y="0" type="curve"/>
      <point x="312" y="0"/>
      <point x="243" y="0"/>
    </contour>
    <contour>
      <point x="752" y="533" type="curve"/>
      <point x="697" y="355"/>
      <point x="642" y="178"/>
      <point x="588" y="0" type="curve"/>
      <point x="656" y="0"/>
      <point x="588" y="0"/>
      <point x="656" y="0" type="curve"/>
      <point x="712" y="178"/>
      <point x="768" y="355"/>
      <point x="824" y="533" type="curve"/>
      <point x="752" y="533"/>
      <point x="824" y="533"/>
    </contour>
    <contour>
      <point x="426" y="533" type="curve"/>
      <point x="479" y="355"/>
      <point x="533" y="178"/>
      <point x="587" y="0" type="curve"/>
      <point x="655" y="0"/>
      <point x="587" y="0"/>
      <point x="655" y="0" type="curve"/>
      <point x="602" y="178"/>
      <point x="548" y="355"/>
      <point x="495" y="533" type="curve"/>
      <point x="426" y="533"/>
      <point x="495" y="533"/>
    </contour>
    <contour>
      <point x="82" y="533" type="curve"/>
      <point x="135" y="355"/>
      <point x="190" y="178"/>
      <point x="243" y="0" type="curve"/>
      <point x="311" y="0"/>
      <point x="243" y="0"/>
      <point x="311" y="0" type="curve"/>
      <point x="258" y="178"/>
      <point x="206" y="355"/>
      <point x="153" y="533" type="curve"/>
      <point x="82" y="533"/>
      <point x="153" y="533"/>
    </contour>
  </outline>
</glyph>
<glyph name="x" format="1">
  <advance width="618"/>
  <unicode hex="0078"/>
  <outline>
    <contour>
      <point x="126" y="60" type="curve"/>
      <point x="8" y="60"/>
      <point x="131" y="60"/>
      <point x="13" y="60" type="curve"/>
      <point x="13" y="0"/>
      <point x="13" y="60"/>
      <point x="13" y="0" type="curve"/>
      <point x="52" y="0"/>
      <point x="87" y="0"/>
      <point x="126" y="0" type="curve"/>
      <point x="126" y="60"/>
      <point x="126" y="0"/>
    </contour>
    <contour>
      <point x="502" y="60" type="curve"/>
      <point x="357" y="60"/>
      <point x="506" y="60"/>
      <point x="361" y="60" type="curve"/>
      <point x="361" y="0"/>
      <point x="361" y="60"/>
      <point x="361" y="0" type="curve"/>
      <point x="409" y="0"/>
      <point x="453" y="0"/>
      <point x="502" y="0" type="curve"/>
      <point x="502" y="60"/>
      <point x="502" y="0"/>
    </contour>
    <contour>
      <point x="496" y="0" type="curve"/>
      <point x="535" y="0"/>
      <point x="572" y="0"/>
      <point x="611" y="0" type="curve"/>
      <point x="611" y="60"/>
      <point x="611" y="0"/>
      <point x="611" y="60" type="curve"/>
      <point x="493" y="60"/>
      <point x="613" y="60"/>
      <point x="496" y="60" type="curve"/>
      <point x="496" y="0"/>
      <point x="496" y="60"/>
    </contour>
    <contour>
      <point x="119" y="0" type="curve"/>
      <point x="168" y="0"/>
      <point x="115" y="0"/>
      <point x="260" y="0" type="curve"/>
      <point x="260" y="60"/>
      <point x="260" y="0"/>
      <point x="260" y="60" type="curve"/>
      <point x="115" y="60"/>
      <point x="265" y="60"/>
      <point x="119" y="60" type="curve"/>
      <point x="119" y="0"/>
      <point x="119" y="60"/>
    </contour>
    <contour>
      <point x="479" y="473" type="curve"/>
      <point x="600" y="473"/>
      <point x="479" y="473"/>
      <point x="599" y="473" type="curve"/>
      <point x="599" y="533"/>
      <point x="599" y="473"/>
      <point x="599" y="533" type="curve"/>
      <point x="559" y="533"/>
      <point x="519" y="533"/>
      <point x="479" y="533" type="curve"/>
      <point x="479" y="473"/>
      <point x="479" y="533"/>
    </contour>
    <contour>
      <point x="155" y="533" type="curve"/>
      <point x="113" y="533"/>
      <point x="76" y="533"/>
      <point x="34" y="533" type="curve"/>
      <point x="34" y="473"/>
      <point x="34" y="533"/>
      <point x="34" y="473" type="curve"/>
      <point x="159" y="473"/>
      <point x="31" y="473"/>
      <point x="155" y="473" type="curve"/>
      <point x="155" y="533"/>
      <point x="155" y="473"/>
    </contour>
    <contour>
      <point x="143" y="473" type="curve"/>
      <point x="281" y="473"/>
      <point x="130" y="473"/>
      <point x="269" y="473" type="curve"/>
      <point x="269" y="533"/>
      <point x="269" y="473"/>
      <point x="269" y="533" type="curve"/>
      <point x="223" y="533"/>
      <point x="189" y="533"/>
      <point x="143" y="533" type="curve"/>
      <point x="143" y="473"/>
      <point x="143" y="533"/>
    </contour>
    <contour>
      <point x="488" y="533" type="curve"/>
      <point x="442" y="533"/>
      <point x="408" y="533"/>
      <point x="362" y="533" type="curve"/>
      <point x="362" y="473"/>
      <point x="362" y="533"/>
      <point x="362" y="473" type="curve"/>
      <point x="501" y="473"/>
      <point x="349" y="473"/>
      <point x="488" y="473" type="curve"/>
      <point x="488" y="533"/>
      <point x="488" y="473"/>
    </contour>
    <contour>
      <point x="539" y="19" type="curve"/>
      <point x="468" y="122"/>
      <point x="233" y="430"/>
      <point x="162" y="533" type="curve"/>
      <point x="101" y="533"/>
      <point x="162" y="512"/>
      <point x="100" y="512" type="curve"/>
      <point x="171" y="408"/>
      <point x="402" y="103"/>
      <point x="471" y="0" type="curve"/>
      <point x="538" y="0"/>
      <point x="472" y="19"/>
    </contour>
    <contour>
      <point x="470" y="533" type="curve"/>
      <point x="399" y="430"/>
      <point x="156" y="125"/>
      <point x="85" y="21" type="curve"/>
      <point x="150" y="21"/>
      <point x="86" y="0"/>
      <point x="151" y="0" type="curve"/>
      <point x="221" y="103"/>
      <point x="461" y="410"/>
      <point x="532" y="513" type="curve"/>
      <point x="470" y="513"/>
      <point x="532" y="533"/>
    </contour>
  </outline>
</glyph>
<glyph name="y" format="1">
  <advance width="663"/>
  <unicode hex="0079"/>
  <outline>
    <contour>
      <point x="339" y="645" type="move" name="top"/>
    </contour>
    <contour>
      <point x="215" y="-240" type="curve"/>
      <point x="92" y="-240"/>
      <point x="219" y="-240"/>
      <point x="96" y="-240" type="curve"/>
      <point x="96" y="-300"/>
      <point x="96" y="-240"/>
      <point x="96" y="-300" type="curve"/>
      <point x="137" y="-300"/>
      <point x="174" y="-300"/>
      <point x="215" y="-300" type="curve"/>
      <point x="215" y="-240"/>
      <point x="215" y="-300"/>
    </contour>
    <contour>
      <point x="137" y="533" type="curve"/>
      <point x="95" y="533"/>
      <point x="55" y="533"/>
      <point x="11" y="533" type="curve"/>
      <point x="11" y="473"/>
      <point x="11" y="533"/>
      <point x="11" y="473" type="curve"/>
      <point x="142" y="474"/>
      <point x="7" y="473"/>
      <point x="137" y="474" type="curve"/>
      <point x="137" y="533"/>
      <point x="137" y="474"/>
    </contour>
    <contour>
      <point x="137" y="474" type="curve"/>
      <point x="272" y="473"/>
      <point x="133" y="474"/>
      <point x="269" y="473" type="curve"/>
      <point x="269" y="533"/>
      <point x="269" y="473"/>
      <point x="269" y="533" type="curve"/>
      <point x="224" y="533"/>
      <point x="183" y="533"/>
      <point x="137" y="533" type="curve"/>
      <point x="137" y="474"/>
      <point x="137" y="533"/>
    </contour>
    <contour>
      <point x="534" y="533" type="curve"/>
      <point x="489" y="533"/>
      <point x="448" y="533"/>
      <point x="404" y="533" type="curve"/>
      <point x="404" y="473"/>
      <point x="404" y="533"/>
      <point x="404" y="473" type="curve"/>
      <point x="538" y="474"/>
      <point x="400" y="473"/>
      <point x="534" y="474" type="curve"/>
      <point x="534" y="533"/>
      <point x="534" y="474"/>
    </contour>
    <contour>
      <point x="534" y="474" type="curve"/>
      <point x="659" y="473"/>
      <point x="529" y="474"/>
      <point x="656" y="473" type="curve"/>
      <point x="656" y="533"/>
      <point x="656" y="473"/>
      <point x="656" y="533" type="curve"/>
      <point x="613" y="533"/>
      <point x="575" y="533"/>
      <point x="534" y="533" type="curve"/>
      <point x="534" y="474"/>
      <point x="534" y="533"/>
    </contour>
    <contour>
      <point x="362" y="-4" type="curve"/>
      <point x="327" y="80"/>
      <point x="197" y="449"/>
      <point x="161" y="533" type="curve"/>
      <point x="82" y="533"/>
      <point x="161" y="533"/>
      <point x="82" y="533" type="curve"/>
      <point x="119" y="449"/>
      <point x="256" y="74"/>
      <point x="292" y="-10" type="curve"/>
      <point x="362" y="-10"/>
      <point x="292" y="-4"/>
    </contour>
    <contour>
      <point x="245" y="-300" type="curve"/>
      <point x="304" y="-171"/>
      <point x="527" y="404"/>
      <point x="587" y="533" type="curve"/>
      <point x="508" y="533"/>
      <point x="587" y="533"/>
      <point x="508" y="533" type="curve"/>
      <point x="449" y="404"/>
      <point x="224" y="-171"/>
      <point x="165" y="-300" type="curve"/>
      <point x="245" y="-300"/>
      <point x="165" y="-300"/>
    </contour>
  </outline>
</glyph>
<glyph name="braceleft" format="1">
  <advance width="290"/>
  <unicode hex="007B"/>
  <outline>
    <contour>
      <point x="242" y="-57" type="curve"/>
      <point x="189" y="-57"/>
      <point x="174" y="-14"/>
      <point x="174" y="43" type="curve"/>
      <point x="174" y="99"/>
      <point x="174" y="154"/>
      <point x="174" y="210" type="curve"/>
      <point x="174" y="304"/>
      <point x="128" y="371"/>
      <point x="38" y="371" type="curve"/>
      <point x="38" y="308"/>
      <point x="38" y="371"/>
      <point x="38" y="308" type="curve"/>
      <point x="87" y="308"/>
      <point x="105" y="269"/>
      <point x="105" y="216" type="curve"/>
      <point x="105" y="159"/>
      <point x="105" y="102"/>
      <point x="105" y="46" type="curve"/>
      <point x="105" y="-50"/>
      <point x="151" y="-117"/>
      <point x="242" y="-117" type="curve"/>
      <point x="242" y="-57"/>
      <point x="242" y="-117"/>
    </contour>
    <contour>
      <point x="242" y="796" type="curve"/>
      <point x="151" y="796"/>
      <point x="105" y="731"/>
      <point x="105" y="634" type="curve"/>
      <point x="105" y="577"/>
      <point x="105" y="519"/>
      <point x="105" y="461" type="curve"/>
      <point x="105" y="408"/>
      <point x="87" y="371"/>
      <point x="38" y="371" type="curve"/>
      <point x="38" y="308"/>
      <point x="38" y="371"/>
      <point x="38" y="308" type="curve"/>
      <point x="128" y="308"/>
      <point x="174" y="374"/>
      <point x="174" y="470" type="curve"/>
      <point x="174" y="525"/>
      <point x="174" y="579"/>
      <point x="174" y="634" type="curve"/>
      <point x="174" y="692"/>
      <point x="189" y="736"/>
      <point x="242" y="736" type="curve"/>
      <point x="242" y="796"/>
      <point x="242" y="736"/>
    </contour>
  </outline>
</glyph>
<glyph name="bar" format="1">
  <advance width="233"/>
  <unicode hex="007C"/>
  <outline>
    <contour>
      <point x="154" y="-300" type="curve"/>
      <point x="154" y="67"/>
      <point x="154" y="433"/>
      <point x="154" y="800" type="curve"/>
      <point x="79" y="800"/>
      <point x="154" y="800"/>
      <point x="79" y="800" type="curve"/>
      <point x="79" y="433"/>
      <point x="79" y="67"/>
      <point x="79" y="-300" type="curve"/>
      <point x="154" y="-300"/>
      <point x="79" y="-300"/>
    </contour>
  </outline>
</glyph>
<glyph name="braceright" format="1">
  <advance width="290"/>
  <unicode hex="007D"/>
  <outline>
    <contour>
      <point x="48" y="-117" type="curve"/>
      <point x="140" y="-117"/>
      <point x="185" y="-50"/>
      <point x="185" y="46" type="curve"/>
      <point x="185" y="102"/>
      <point x="185" y="159"/>
      <point x="185" y="216" type="curve"/>
      <point x="185" y="269"/>
      <point x="203" y="308"/>
      <point x="252" y="308" type="curve"/>
      <point x="252" y="371"/>
      <point x="252" y="308"/>
      <point x="252" y="371" type="curve"/>
      <point x="162" y="371"/>
      <point x="116" y="304"/>
      <point x="116" y="210" type="curve"/>
      <point x="116" y="154"/>
      <point x="116" y="99"/>
      <point x="116" y="43" type="curve"/>
      <point x="116" y="-14"/>
      <point x="101" y="-57"/>
      <point x="48" y="-57" type="curve"/>
      <point x="48" y="-117"/>
      <point x="48" y="-57"/>
    </contour>
    <contour>
      <point x="48" y="736" type="curve"/>
      <point x="101" y="736"/>
      <point x="116" y="692"/>
      <point x="116" y="634" type="curve"/>
      <point x="116" y="579"/>
      <point x="116" y="525"/>
      <point x="116" y="470" type="curve"/>
      <point x="116" y="374"/>
      <point x="162" y="308"/>
      <point x="252" y="308" type="curve"/>
      <point x="252" y="371"/>
      <point x="252" y="308"/>
      <point x="252" y="371" type="curve"/>
      <point x="204" y="371"/>
      <point x="185" y="408"/>
      <point x="185" y="461" type="curve"/>
      <point x="185" y="519"/>
      <point x="185" y="577"/>
      <point x="185" y="634" type="curve"/>
      <point x="185" y="730"/>
      <point x="139" y="796"/>
      <point x="48" y="796" type="curve"/>
      <point x="48" y="736"/>
      <point x="48" y="796"/>
    </contour>
  </outline>
</glyph>
<glyph name="asciitilde" format="1">
  <advance width="637"/>
  <unicode hex="007E"/>
  <outline>
    <contour>
      <point x="501" y="359" type="curve"/>
      <point x="486" y="315"/>
      <point x="471" y="270"/>
      <point x="427" y="270" type="curve"/>
      <point x="390" y="270"/>
      <point x="369" y="283"/>
      <point x="342" y="308" type="curve"/>
      <point x="302" y="344"/>
      <point x="272" y="366"/>
      <point x="218" y="366" type="curve"/>
      <point x="133" y="366"/>
      <point x="97" y="315"/>
      <point x="76" y="233" type="curve"/>
      <point x="107" y="223"/>
      <point x="106" y="222"/>
      <point x="136" y="212" type="curve"/>
      <point x="149" y="262"/>
      <point x="167" y="303"/>
      <point x="215" y="303" type="curve"/>
      <point x="248" y="303"/>
      <point x="267" y="290"/>
      <point x="291" y="269" type="curve"/>
      <point x="334" y="230"/>
      <point x="366" y="208"/>
      <point x="425" y="208" type="curve"/>
      <point x="506" y="208"/>
      <point x="536" y="262"/>
      <point x="561" y="339" type="curve"/>
      <point x="530" y="349"/>
      <point x="532" y="350"/>
    </contour>
  </outline>
</glyph>
<glyph name="cent" format="1">
  <advance width="599"/>
  <unicode hex="00A2"/>
  <outline>
    <contour>
      <point x="352" y="-53" type="curve"/>
      <point x="352" y="-13"/>
      <point x="352" y="27"/>
      <point x="352" y="67" type="curve"/>
      <point x="276" y="67"/>
      <point x="352" y="67"/>
      <point x="276" y="67" type="curve"/>
      <point x="276" y="27"/>
      <point x="276" y="-13"/>
      <point x="276" y="-53" type="curve"/>
      <point x="352" y="-53"/>
      <point x="276" y="-53"/>
    </contour>
    <contour>
      <point x="295" y="778" type="curve"/>
      <point x="295" y="742"/>
      <point x="295" y="706"/>
      <point x="295" y="670" type="curve"/>
      <point x="370" y="670"/>
      <point x="295" y="670"/>
      <point x="370" y="670" type="curve"/>
      <point x="370" y="706"/>
      <point x="370" y="742"/>
      <point x="370" y="778" type="curve"/>
      <point x="295" y="778"/>
      <point x="370" y="778"/>
    </contour>
    <contour>
      <point x="541" y="608" type="curve"/>
      <point x="476" y="661"/>
      <point x="420" y="682"/>
      <point x="339" y="682" type="curve"/>
      <point x="155" y="682"/>
      <point x="55" y="555"/>
      <point x="55" y="365" type="curve"/>
      <point x="55" y="182"/>
      <point x="137" y="50"/>
      <point x="310" y="50" type="curve"/>
      <point x="405" y="50"/>
      <point x="469" y="80"/>
      <point x="539" y="146" type="curve"/>
      <point x="495" y="192"/>
      <point x="539" y="146"/>
      <point x="495" y="192" type="curve"/>
      <point x="438" y="142"/>
      <point x="391" y="113"/>
      <point x="317" y="113" type="curve"/>
      <point x="186" y="113"/>
      <point x="131" y="222"/>
      <point x="131" y="368" type="curve"/>
      <point x="131" y="515"/>
      <point x="199" y="619"/>
      <point x="332" y="619" type="curve"/>
      <point x="400" y="619"/>
      <point x="445" y="600"/>
      <point x="500" y="559" type="curve"/>
      <point x="541" y="608"/>
      <point x="500" y="559"/>
    </contour>
    <contour>
      <point x="480" y="608" type="curve"/>
      <point x="480" y="488"/>
      <point x="480" y="598"/>
      <point x="480" y="477" type="curve"/>
      <point x="541" y="477"/>
      <point x="480" y="477"/>
      <point x="541" y="477" type="curve"/>
      <point x="541" y="598"/>
      <point x="541" y="488"/>
      <point x="541" y="608" type="curve"/>
      <point x="480" y="608"/>
      <point x="541" y="608"/>
    </contour>
  </outline>
</glyph>
<glyph name="currency" format="1">
  <advance width="623"/>
  <unicode hex="00A4"/>
  <outline>
    <contour>
      <point x="217" y="313" type="curve"/>
      <point x="217" y="381"/>
      <point x="247" y="433"/>
      <point x="311" y="433" type="curve"/>
      <point x="377" y="433"/>
      <point x="404" y="383"/>
      <point x="404" y="313" type="curve"/>
      <point x="404" y="243"/>
      <point x="380" y="187"/>
      <point x="315" y="187" type="curve"/>
      <point x="246" y="187"/>
      <point x="217" y="240"/>
      <point x="217" y="313" type="curve"/>
      <point x="142" y="313"/>
      <point x="220" y="313"/>
      <point x="144" y="313" type="curve"/>
      <point x="144" y="201"/>
      <point x="205" y="127"/>
      <point x="314" y="127" type="curve"/>
      <point x="421" y="127"/>
      <point x="479" y="204"/>
      <point x="479" y="315" type="curve"/>
      <point x="479" y="422"/>
      <point x="421" y="493"/>
      <point x="317" y="493" type="curve"/>
      <point x="208" y="493"/>
      <point x="144" y="423"/>
      <point x="144" y="313" type="curve"/>
      <point x="220" y="313"/>
      <point x="142" y="313"/>
    </contour>
    <contour>
      <point x="413" y="382" type="line"/>
      <point x="560" y="521" type="line"/>
      <point x="503" y="579" type="line"/>
      <point x="364" y="431" type="line"/>
    </contour>
    <contour>
      <point x="366" y="195" type="line"/>
      <point x="505" y="48" type="line"/>
      <point x="563" y="105" type="line"/>
      <point x="415" y="244" type="line"/>
    </contour>
    <contour>
      <point x="207" y="245" type="line"/>
      <point x="60" y="106" type="line"/>
      <point x="117" y="48" type="line"/>
      <point x="257" y="195" type="line"/>
    </contour>
    <contour>
      <point x="260" y="432" type="line"/>
      <point x="122" y="580" type="line"/>
      <point x="64" y="522" type="line"/>
      <point x="212" y="383" type="line"/>
    </contour>
  </outline>
</glyph>
<glyph name="yen" format="1">
  <advance width="715"/>
  <unicode hex="00A5"/>
  <outline>
    <contour>
      <point x="551" y="395" type="curve"/>
      <point x="489" y="395"/>
      <point x="427" y="395"/>
      <point x="365" y="395" type="curve"/>
      <point x="365" y="329"/>
      <point x="365" y="395"/>
      <point x="365" y="329" type="curve"/>
      <point x="427" y="329"/>
      <point x="489" y="329"/>
      <point x="551" y="329" type="curve"/>
      <point x="551" y="395"/>
      <point x="551" y="329"/>
    </contour>
    <contour>
      <point x="340" y="395" type="curve"/>
      <point x="278" y="395"/>
      <point x="218" y="395"/>
      <point x="157" y="395" type="curve"/>
      <point x="157" y="329"/>
      <point x="157" y="395"/>
      <point x="157" y="329" type="curve"/>
      <point x="218" y="329"/>
      <point x="278" y="329"/>
      <point x="340" y="329" type="curve"/>
      <point x="340" y="395"/>
      <point x="340" y="329"/>
    </contour>
    <contour>
      <point x="551" y="263" type="curve"/>
      <point x="420" y="263"/>
      <point x="288" y="263"/>
      <point x="157" y="263" type="curve"/>
      <point x="157" y="197"/>
      <point x="157" y="263"/>
      <point x="157" y="197" type="curve"/>
      <point x="288" y="197"/>
      <point x="420" y="197"/>
      <point x="551" y="197" type="curve"/>
      <point x="551" y="263"/>
      <point x="551" y="197"/>
    </contour>
    <contour>
      <point x="351" y="60" type="curve"/>
      <point x="208" y="60"/>
      <point x="355" y="60"/>
      <point x="212" y="60" type="curve"/>
      <point x="212" y="0"/>
      <point x="212" y="60"/>
      <point x="212" y="0" type="curve"/>
      <point x="259" y="0"/>
      <point x="303" y="0"/>
      <point x="351" y="0" type="curve"/>
      <point x="351" y="60"/>
      <point x="351" y="0"/>
    </contour>
    <contour>
      <point x="351" y="0" type="curve"/>
      <point x="398" y="0"/>
      <point x="442" y="0"/>
      <point x="490" y="0" type="curve"/>
      <point x="490" y="60"/>
      <point x="490" y="0"/>
      <point x="490" y="60" type="curve"/>
      <point x="347" y="60"/>
      <point x="494" y="60"/>
      <point x="351" y="60" type="curve"/>
      <point x="351" y="0"/>
      <point x="351" y="60"/>
    </contour>
    <contour>
      <point x="546" y="722" type="curve"/>
      <point x="499" y="722"/>
      <point x="456" y="722"/>
      <point x="410" y="722" type="curve"/>
      <point x="410" y="662"/>
      <point x="410" y="722"/>
      <point x="410" y="662" type="curve"/>
      <point x="550" y="662"/>
      <point x="406" y="662"/>
      <point x="546" y="662" type="curve"/>
      <point x="546" y="722"/>
      <point x="546" y="662"/>
    </contour>
    <contour>
      <point x="161" y="722" type="curve"/>
      <point x="118" y="722"/>
      <point x="78" y="722"/>
      <point x="36" y="722" type="curve"/>
      <point x="35" y="662"/>
      <point x="36" y="722"/>
      <point x="35" y="662" type="curve"/>
      <point x="165" y="662"/>
      <point x="31" y="662"/>
      <point x="161" y="662" type="curve"/>
      <point x="161" y="722"/>
      <point x="161" y="662"/>
    </contour>
    <contour>
      <point x="167" y="662" type="curve"/>
      <point x="306" y="662"/>
      <point x="163" y="662"/>
      <point x="303" y="662" type="curve"/>
      <point x="303" y="722"/>
      <point x="303" y="662"/>
      <point x="303" y="722" type="curve"/>
      <point x="257" y="722"/>
      <point x="213" y="722"/>
      <point x="167" y="722" type="curve"/>
      <point x="167" y="662"/>
      <point x="167" y="722"/>
    </contour>
    <contour>
      <point x="552" y="662" type="curve"/>
      <point x="683" y="662"/>
      <point x="548" y="662"/>
      <point x="679" y="662" type="curve"/>
      <point x="679" y="722"/>
      <point x="679" y="662"/>
      <point x="679" y="722" type="curve"/>
      <point x="636" y="722"/>
      <point x="596" y="722"/>
      <point x="552" y="722" type="curve"/>
      <point x="552" y="662"/>
      <point x="552" y="722"/>
    </contour>
    <contour>
      <point x="108" y="717" type="curve"/>
      <point x="176" y="591"/>
      <point x="243" y="465"/>
      <point x="310" y="336" type="curve"/>
      <point x="387" y="336"/>
      <point x="304" y="336"/>
      <point x="381" y="336" type="curve"/>
      <point x="315" y="467"/>
      <point x="250" y="593"/>
      <point x="183" y="722" type="curve"/>
      <point x="108" y="722"/>
      <point x="183" y="717"/>
    </contour>
    <contour>
      <point x="530" y="722" type="curve"/>
      <point x="458" y="592"/>
      <point x="389" y="466"/>
      <point x="317" y="336" type="curve"/>
      <point x="394" y="336"/>
      <point x="314" y="336"/>
      <point x="391" y="336" type="curve"/>
      <point x="463" y="465"/>
      <point x="533" y="591"/>
      <point x="605" y="718" type="curve"/>
      <point x="530" y="718"/>
      <point x="605" y="722"/>
    </contour>
    <contour>
      <point x="392" y="0" type="curve"/>
      <point x="392" y="114"/>
      <point x="392" y="227"/>
      <point x="392" y="341" type="curve"/>
      <point x="309" y="341"/>
      <point x="392" y="341"/>
      <point x="309" y="341" type="curve"/>
      <point x="309" y="227"/>
      <point x="309" y="114"/>
      <point x="309" y="0" type="curve"/>
      <point x="392" y="0"/>
      <point x="309" y="0"/>
    </contour>
  </outline>
</glyph>
<glyph name="brokenbar" format="1">
  <advance width="254"/>
  <unicode hex="00A6"/>
  <outline>
    <contour>
      <point x="165" y="-300" type="curve"/>
      <point x="165" y="-176"/>
      <point x="165" y="-52"/>
      <point x="165" y="72" type="curve"/>
      <point x="89" y="72"/>
      <point x="165" y="72"/>
      <point x="89" y="72" type="curve"/>
      <point x="89" y="-52"/>
      <point x="89" y="-176"/>
      <point x="89" y="-300" type="curve"/>
      <point x="165" y="-300"/>
      <point x="89" y="-300"/>
    </contour>
    <contour>
      <point x="165" y="428" type="curve"/>
      <point x="165" y="552"/>
      <point x="165" y="676"/>
      <point x="165" y="800" type="curve"/>
      <point x="89" y="800"/>
      <point x="165" y="800"/>
      <point x="89" y="800" type="curve"/>
      <point x="89" y="676"/>
      <point x="89" y="552"/>
      <point x="89" y="428" type="curve"/>
      <point x="165" y="428"/>
      <point x="89" y="428"/>
    </contour>
  </outline>
</glyph>
<glyph name="section" format="1">
  <advance width="483"/>
  <unicode hex="00A7"/>
  <outline>
    <contour>
      <point x="385" y="705" type="curve"/>
      <point x="337" y="735"/>
      <point x="300" y="750"/>
      <point x="245" y="750" type="curve"/>
      <point x="151" y="750"/>
      <point x="91" y="700"/>
      <point x="91" y="613" type="curve"/>
      <point x="91" y="534"/>
      <point x="139" y="489"/>
      <point x="214" y="460" type="curve"/>
      <point x="281" y="434"/>
      <point x="350" y="423"/>
      <point x="350" y="360" type="curve"/>
      <point x="350" y="300"/>
      <point x="314" y="265"/>
      <point x="252" y="251" type="curve"/>
      <point x="297" y="203"/>
      <point x="252" y="251"/>
      <point x="297" y="203" type="curve"/>
      <point x="380" y="225"/>
      <point x="425" y="277"/>
      <point x="425" y="361" type="curve"/>
      <point x="424" y="455"/>
      <point x="345" y="484"/>
      <point x="252" y="516" type="curve"/>
      <point x="202" y="535"/>
      <point x="164" y="562"/>
      <point x="164" y="613" type="curve"/>
      <point x="164" y="660"/>
      <point x="192" y="691"/>
      <point x="242" y="691" type="curve"/>
      <point x="286" y="691"/>
      <point x="313" y="678"/>
      <point x="350" y="657" type="curve"/>
      <point x="385" y="705"/>
      <point x="350" y="657"/>
    </contour>
    <contour>
      <point x="185" y="519" type="curve"/>
      <point x="109" y="493"/>
      <point x="61" y="447"/>
      <point x="61" y="367" type="curve"/>
      <point x="61" y="276"/>
      <point x="129" y="240"/>
      <point x="218" y="209" type="curve"/>
      <point x="274" y="187"/>
      <point x="326" y="169"/>
      <point x="326" y="113" type="curve"/>
      <point x="326" y="64"/>
      <point x="294" y="31"/>
      <point x="243" y="31" type="curve"/>
      <point x="194" y="31"/>
      <point x="163" y="48"/>
      <point x="122" y="77" type="curve"/>
      <point x="81" y="33"/>
      <point x="122" y="77"/>
      <point x="81" y="33" type="curve"/>
      <point x="132" y="-9"/>
      <point x="177" y="-28"/>
      <point x="241" y="-28" type="curve"/>
      <point x="336" y="-28"/>
      <point x="400" y="22"/>
      <point x="400" y="114" type="curve"/>
      <point x="399" y="196"/>
      <point x="345" y="238"/>
      <point x="266" y="265" type="curve"/>
      <point x="201" y="290"/>
      <point x="137" y="306"/>
      <point x="137" y="368" type="curve"/>
      <point x="137" y="424"/>
      <point x="169" y="455"/>
      <point x="223" y="475" type="curve"/>
      <point x="185" y="519"/>
      <point x="223" y="475"/>
    </contour>
    <contour>
      <point x="142" y="33" type="curve"/>
      <point x="142" y="153"/>
      <point x="142" y="33"/>
      <point x="142" y="153" type="curve"/>
      <point x="81" y="153"/>
      <point x="142" y="153"/>
      <point x="81" y="153" type="curve"/>
      <point x="81" y="33"/>
      <point x="81" y="153"/>
      <point x="81" y="33" type="curve"/>
      <point x="142" y="33"/>
      <point x="81" y="33"/>
    </contour>
    <contour>
      <point x="385" y="585" type="curve"/>
      <point x="385" y="705"/>
      <point x="385" y="585"/>
      <point x="385" y="705" type="curve"/>
      <point x="324" y="705"/>
      <point x="385" y="705"/>
      <point x="324" y="705" type="curve"/>
      <point x="324" y="585"/>
      <point x="324" y="705"/>
      <point x="324" y="585" type="curve"/>
      <point x="385" y="585"/>
      <point x="324" y="585"/>
    </contour>
  </outline>
</glyph>
<glyph name="copyright" format="1">
  <advance width="718"/>
  <unicode hex="00A9"/>
  <outline>
    <contour>
      <point x="124" y="321" type="curve"/>
      <point x="124" y="480"/>
      <point x="211" y="596"/>
      <point x="363" y="596" type="curve"/>
      <point x="511" y="596"/>
      <point x="595" y="478"/>
      <point x="595" y="320" type="curve"/>
      <point x="595" y="166"/>
      <point x="514" y="50"/>
      <point x="368" y="50" type="curve"/>
      <point x="217" y="50"/>
      <point x="124" y="162"/>
      <point x="124" y="321" type="curve"/>
      <point x="60" y="321"/>
      <point x="124" y="321"/>
      <point x="61" y="321" type="curve"/>
      <point x="61" y="132"/>
      <point x="179" y="0"/>
      <point x="366" y="0" type="curve"/>
      <point x="547" y="0"/>
      <point x="657" y="135"/>
      <point x="657" y="322" type="curve"/>
      <point x="657" y="510"/>
      <point x="545" y="646"/>
      <point x="363" y="646" type="curve"/>
      <point x="177" y="646"/>
      <point x="61" y="511"/>
      <point x="61" y="321" type="curve"/>
      <point x="124" y="321"/>
      <point x="60" y="321"/>
    </contour>
    <contour>
      <point x="428" y="436" type="curve"/>
      <point x="428" y="419"/>
      <point x="428" y="397"/>
      <point x="428" y="377" type="curve"/>
      <point x="486" y="377"/>
      <point x="428" y="377"/>
      <point x="486" y="377" type="curve"/>
      <point x="486" y="406"/>
      <point x="486" y="438"/>
      <point x="486" y="464" type="curve"/>
      <point x="428" y="438"/>
      <point x="486" y="463"/>
    </contour>
    <contour>
      <point x="486" y="464" type="curve"/>
      <point x="451" y="492"/>
      <point x="415" y="504"/>
      <point x="368" y="504" type="curve"/>
      <point x="261" y="504"/>
      <point x="204" y="430"/>
      <point x="204" y="321" type="curve"/>
      <point x="204" y="215"/>
      <point x="254" y="143"/>
      <point x="355" y="143" type="curve"/>
      <point x="410" y="143"/>
      <point x="450" y="154"/>
      <point x="491" y="196" type="curve"/>
      <point x="453" y="229"/>
      <point x="491" y="196"/>
      <point x="453" y="229" type="curve"/>
      <point x="422" y="204"/>
      <point x="397" y="193"/>
      <point x="358" y="193" type="curve"/>
      <point x="290" y="193"/>
      <point x="265" y="249"/>
      <point x="265" y="323" type="curve"/>
      <point x="265" y="399"/>
      <point x="294" y="453"/>
      <point x="365" y="453" type="curve"/>
      <point x="392" y="453"/>
      <point x="410" y="448"/>
      <point x="428" y="436" type="curve"/>
      <point x="486" y="463"/>
      <point x="428" y="438"/>
    </contour>
  </outline>
</glyph>
<glyph name="ordfeminine" format="1">
  <advance width="428"/>
  <unicode hex="00AA"/>
  <outline>
    <contour>
      <point x="81" y="720" type="curve"/>
      <point x="81" y="677"/>
      <point x="81" y="698"/>
      <point x="81" y="655" type="curve"/>
      <point x="118" y="655"/>
      <point x="89" y="655"/>
      <point x="125" y="655" type="curve"/>
      <point x="125" y="698"/>
      <point x="125" y="677"/>
      <point x="125" y="720" type="curve"/>
      <point x="89" y="720"/>
      <point x="118" y="720"/>
    </contour>
    <contour>
      <point x="320" y="427" type="curve"/>
      <point x="320" y="515"/>
      <point x="320" y="586"/>
      <point x="320" y="674" type="curve"/>
      <point x="320" y="741"/>
      <point x="269" y="770"/>
      <point x="200" y="770" type="curve"/>
      <point x="148" y="770"/>
      <point x="111" y="749"/>
      <point x="81" y="720" type="curve"/>
      <point x="100" y="690"/>
      <point x="87" y="714"/>
      <point x="105" y="683" type="curve"/>
      <point x="125" y="704"/>
      <point x="153" y="725"/>
      <point x="192" y="725" type="curve"/>
      <point x="235" y="725"/>
      <point x="264" y="706"/>
      <point x="264" y="664" type="curve"/>
      <point x="264" y="580"/>
      <point x="264" y="512"/>
      <point x="264" y="427" type="curve"/>
      <point x="310" y="427"/>
      <point x="274" y="427"/>
    </contour>
    <contour>
      <point x="293" y="427" type="curve"/>
      <point x="317" y="427"/>
      <point x="337" y="427"/>
      <point x="361" y="427" type="curve"/>
      <point x="361" y="463"/>
      <point x="361" y="435"/>
      <point x="361" y="471" type="curve"/>
      <point x="313" y="471"/>
      <point x="342" y="471"/>
      <point x="293" y="471" type="curve"/>
      <point x="293" y="435"/>
      <point x="293" y="463"/>
    </contour>
    <contour>
      <point x="290" y="640" type="curve"/>
      <point x="248" y="634"/>
      <point x="220" y="632"/>
      <point x="177" y="626" type="curve"/>
      <point x="112" y="616"/>
      <point x="65" y="588"/>
      <point x="65" y="524" type="curve"/>
      <point x="65" y="460"/>
      <point x="106" y="424"/>
      <point x="172" y="424" type="curve"/>
      <point x="237" y="424"/>
      <point x="269" y="467"/>
      <point x="305" y="517" type="curve"/>
      <point x="283" y="536"/>
      <point x="300" y="521"/>
      <point x="278" y="540" type="curve"/>
      <point x="254" y="501"/>
      <point x="231" y="467"/>
      <point x="184" y="467" type="curve"/>
      <point x="143" y="467"/>
      <point x="119" y="488"/>
      <point x="119" y="526" type="curve"/>
      <point x="119" y="561"/>
      <point x="144" y="581"/>
      <point x="177" y="587" type="curve"/>
      <point x="221" y="593"/>
      <point x="249" y="596"/>
      <point x="292" y="603" type="curve"/>
      <point x="291" y="633"/>
      <point x="292" y="610"/>
    </contour>
  </outline>
</glyph>
<glyph name="guillemotleft" format="1">
  <advance width="556"/>
  <unicode hex="00AB"/>
  <outline>
    <contour>
      <point x="266" y="436" type="curve"/>
      <point x="245" y="421"/>
      <point x="84" y="331"/>
      <point x="63" y="317" type="curve"/>
      <point x="63" y="251"/>
      <point x="63" y="311"/>
      <point x="63" y="245" type="curve"/>
      <point x="84" y="259"/>
      <point x="245" y="353"/>
      <point x="266" y="367" type="curve"/>
      <point x="266" y="433"/>
      <point x="266" y="370"/>
    </contour>
    <contour>
      <point x="266" y="195" type="curve"/>
      <point x="245" y="210"/>
      <point x="84" y="302"/>
      <point x="63" y="317" type="curve"/>
      <point x="63" y="251"/>
      <point x="63" y="311"/>
      <point x="63" y="245" type="curve"/>
      <point x="84" y="230"/>
      <point x="245" y="141"/>
      <point x="266" y="127" type="curve"/>
      <point x="266" y="192"/>
      <point x="266" y="130"/>
    </contour>
    <contour>
      <point x="471" y="436" type="curve"/>
      <point x="450" y="421"/>
      <point x="290" y="331"/>
      <point x="268" y="317" type="curve"/>
      <point x="268" y="251"/>
      <point x="268" y="311"/>
      <point x="268" y="245" type="curve"/>
      <point x="290" y="259"/>
      <point x="450" y="353"/>
      <point x="471" y="367" type="curve"/>
      <point x="471" y="433"/>
      <point x="471" y="370"/>
    </contour>
    <contour>
      <point x="471" y="195" type="curve"/>
      <point x="450" y="210"/>
      <point x="290" y="302"/>
      <point x="268" y="317" type="curve"/>
      <point x="268" y="251"/>
      <point x="268" y="311"/>
      <point x="268" y="245" type="curve"/>
      <point x="290" y="230"/>
      <point x="450" y="141"/>
      <point x="471" y="127" type="curve"/>
      <point x="471" y="192"/>
      <point x="471" y="130"/>
    </contour>
  </outline>
</glyph>
<glyph name="logicalnot" format="1">
  <advance width="645"/>
  <unicode hex="00AC"/>
  <outline>
    <contour>
      <point x="95" y="279" type="curve"/>
      <point x="565" y="279" type="line"/>
      <point x="565" y="344"/>
      <point x="565" y="279"/>
      <point x="565" y="344" type="curve"/>
      <point x="95" y="344" type="line"/>
      <point x="95" y="279"/>
      <point x="95" y="344"/>
    </contour>
    <contour>
      <point x="565" y="147" type="curve"/>
      <point x="565" y="344" type="line"/>
      <point x="489" y="344"/>
      <point x="566" y="344"/>
      <point x="490" y="344" type="curve"/>
      <point x="490" y="147" type="line"/>
      <point x="566" y="147"/>
      <point x="489" y="147"/>
    </contour>
  </outline>
</glyph>
<glyph name="degree" format="1">
  <advance width="456"/>
  <unicode hex="00B0"/>
  <outline>
    <contour>
      <point x="392" y="497" type="curve"/>
      <point x="392" y="612"/>
      <point x="338" y="693"/>
      <point x="228" y="693" type="curve"/>
      <point x="118" y="693"/>
      <point x="65" y="612"/>
      <point x="65" y="498" type="curve"/>
      <point x="107" y="498"/>
      <point x="87" y="498"/>
      <point x="129" y="498" type="curve"/>
      <point x="129" y="576"/>
      <point x="153" y="637"/>
      <point x="226" y="637" type="curve"/>
      <point x="298" y="637"/>
      <point x="325" y="577"/>
      <point x="325" y="497" type="curve"/>
      <point x="325" y="416"/>
      <point x="302" y="352"/>
      <point x="228" y="352" type="curve"/>
      <point x="154" y="352"/>
      <point x="129" y="417"/>
      <point x="129" y="498" type="curve"/>
      <point x="87" y="498"/>
      <point x="107" y="498"/>
      <point x="65" y="498" type="curve"/>
      <point x="65" y="380"/>
      <point x="115" y="296"/>
      <point x="227" y="296" type="curve"/>
      <point x="339" y="296"/>
      <point x="392" y="379"/>
    </contour>
  </outline>
</glyph>
<glyph name="plusminus" format="1">
  <advance width="668"/>
  <unicode hex="00B1"/>
  <outline>
    <contour>
      <point x="67" y="30" type="line"/>
      <point x="602" y="30" type="line"/>
      <point x="602" y="95" type="line"/>
      <point x="67" y="95" type="line"/>
    </contour>
    <contour>
      <point x="67" y="279" type="curve"/>
      <point x="602" y="279" type="line"/>
      <point x="602" y="344"/>
      <point x="602" y="279"/>
      <point x="602" y="344" type="curve"/>
      <point x="67" y="344" type="line"/>
      <point x="67" y="279"/>
      <point x="67" y="344"/>
    </contour>
    <contour>
      <point x="370" y="30" type="curve"/>
      <point x="370" y="585" type="line"/>
      <point x="294" y="585"/>
      <point x="374" y="585"/>
      <point x="298" y="585" type="curve"/>
      <point x="298" y="30" type="line"/>
      <point x="374" y="30"/>
      <point x="294" y="30"/>
    </contour>
  </outline>
</glyph>
<glyph name="twosuperior" format="1">
  <advance width="454"/>
  <unicode hex="00B2"/>
  <outline>
    <contour>
      <point x="238" y="740" type="move" name="_top"/>
    </contour>
    <contour>
      <point x="222" y="315" type="move" name="_bottom"/>
    </contour>
    <contour>
      <point x="383" y="316" type="curve"/>
      <point x="383" y="357"/>
      <point x="383" y="384"/>
      <point x="383" y="426" type="curve"/>
      <point x="325" y="426"/>
      <point x="389" y="426"/>
      <point x="331" y="426" type="curve"/>
      <point x="331" y="402"/>
      <point x="331" y="392"/>
      <point x="331" y="369" type="curve"/>
      <point x="391" y="318"/>
      <point x="324" y="367"/>
    </contour>
    <contour>
      <point x="73" y="316" type="curve"/>
      <point x="181" y="316"/>
      <point x="288" y="316"/>
      <point x="383" y="316" type="curve"/>
      <point x="324" y="367"/>
      <point x="391" y="318"/>
      <point x="331" y="369" type="curve"/>
      <point x="247" y="369"/>
      <point x="157" y="369"/>
      <point x="73" y="369" type="curve"/>
      <point x="73" y="316"/>
      <point x="73" y="369"/>
    </contour>
    <contour>
      <point x="142" y="623" type="curve"/>
      <point x="162" y="660"/>
      <point x="184" y="688"/>
      <point x="227" y="688" type="curve"/>
      <point x="274" y="688"/>
      <point x="300" y="657"/>
      <point x="300" y="610" type="curve"/>
      <point x="300" y="565"/>
      <point x="272" y="542"/>
      <point x="241" y="510" type="curve"/>
      <point x="185" y="463"/>
      <point x="128" y="416"/>
      <point x="73" y="369" type="curve"/>
      <point x="79" y="316"/>
      <point x="73" y="369"/>
      <point x="79" y="316" type="curve"/>
      <point x="149" y="369"/>
      <point x="222" y="418"/>
      <point x="281" y="469" type="curve"/>
      <point x="328" y="514"/>
      <point x="365" y="548"/>
      <point x="365" y="613" type="curve"/>
      <point x="365" y="693"/>
      <point x="312" y="740"/>
      <point x="232" y="740" type="curve"/>
      <point x="165" y="740"/>
      <point x="120" y="712"/>
      <point x="94" y="646" type="curve"/>
      <point x="142" y="623"/>
      <point x="94" y="646"/>
    </contour>
  </outline>
</glyph>
<glyph name="threesuperior" format="1">
  <advance width="409"/>
  <unicode hex="00B3"/>
  <outline>
    <contour>
      <point x="208" y="738" type="move" name="_top"/>
    </contour>
    <contour>
      <point x="198" y="310" type="move" name="_bottom"/>
    </contour>
    <contour>
      <point x="111" y="648" type="curve"/>
      <point x="132" y="670"/>
      <point x="156" y="687"/>
      <point x="186" y="687" type="curve"/>
      <point x="231" y="687"/>
      <point x="260" y="664"/>
      <point x="260" y="620" type="curve"/>
      <point x="260" y="571"/>
      <point x="206" y="555"/>
      <point x="148" y="551" type="curve"/>
      <point x="148" y="506"/>
      <point x="148" y="551"/>
      <point x="148" y="506" type="curve"/>
      <point x="246" y="508"/>
      <point x="326" y="537"/>
      <point x="326" y="625" type="curve"/>
      <point x="326" y="701"/>
      <point x="272" y="738"/>
      <point x="193" y="738" type="curve"/>
      <point x="145" y="738"/>
      <point x="103" y="716"/>
      <point x="73" y="683" type="curve"/>
      <point x="111" y="648"/>
      <point x="73" y="683"/>
    </contour>
    <contour>
      <point x="70" y="345" type="curve"/>
      <point x="104" y="323"/>
      <point x="138" y="310"/>
      <point x="179" y="310" type="curve"/>
      <point x="274" y="307"/>
      <point x="342" y="345"/>
      <point x="340" y="433" type="curve"/>
      <point x="340" y="524"/>
      <point x="251" y="540"/>
      <point x="148" y="543" type="curve"/>
      <point x="148" y="504"/>
      <point x="148" y="543"/>
      <point x="148" y="504" type="curve"/>
      <point x="217" y="500"/>
      <point x="273" y="483"/>
      <point x="273" y="431" type="curve"/>
      <point x="273" y="383"/>
      <point x="237" y="359"/>
      <point x="185" y="361" type="curve"/>
      <point x="156" y="361"/>
      <point x="128" y="368"/>
      <point x="101" y="385" type="curve"/>
      <point x="70" y="345"/>
      <point x="101" y="385"/>
    </contour>
  </outline>
</glyph>
<glyph name="acute" format="1">
  <advance width="330"/>
  <unicode hex="00B4"/>
  <outline>
    <contour>
      <point x="67" y="590" type="move" name="_top"/>
    </contour>
    <contour>
      <point x="101" y="590" type="line"/>
      <point x="222" y="756" type="line"/>
      <point x="125" y="756" type="line"/>
      <point x="26" y="590" type="line"/>
    </contour>
  </outline>
</glyph>
<glyph name="periodcentered" format="1">
  <advance width="234"/>
  <unicode hex="00B7"/>
  <outline>
    <contour>
      <point x="160" y="440" type="curve"/>
      <point x="160" y="467"/>
      <point x="142" y="481"/>
      <point x="116" y="481" type="curve"/>
      <point x="90" y="481"/>
      <point x="73" y="466"/>
      <point x="73" y="440" type="curve"/>
      <point x="156" y="440"/>
      <point x="76" y="440"/>
      <point x="160" y="440" type="curve"/>
      <point x="160" y="413"/>
      <point x="142" y="400"/>
      <point x="115" y="400" type="curve"/>
      <point x="90" y="400"/>
      <point x="73" y="413"/>
      <point x="73" y="440" type="curve"/>
      <point x="156" y="440"/>
      <point x="76" y="440"/>
    </contour>
  </outline>
</glyph>
<glyph name="cedilla" format="1">
  <advance width="343"/>
  <unicode hex="00B8"/>
  <outline>
    <contour>
      <point x="180" y="40" type="move" name="_bottom"/>
    </contour>
    <contour>
      <point x="129" y="82" type="curve"/>
      <point x="116" y="57"/>
      <point x="87" y="0"/>
      <point x="74" y="-24" type="curve"/>
      <point x="127" y="-73"/>
      <point x="74" y="-24"/>
      <point x="127" y="-73" type="curve"/>
      <point x="141" y="-45"/>
      <point x="174" y="13"/>
      <point x="187" y="40" type="curve"/>
      <point x="129" y="82"/>
      <point x="187" y="40"/>
    </contour>
    <contour>
      <point x="127" y="-73" type="curve"/>
      <point x="136" y="-65"/>
      <point x="143" y="-62"/>
      <point x="155" y="-62" type="curve"/>
      <point x="176" y="-62"/>
      <point x="186" y="-77"/>
      <point x="186" y="-100" type="curve"/>
      <point x="186" y="-125"/>
      <point x="168" y="-138"/>
      <point x="142" y="-138" type="curve"/>
      <point x="120" y="-138"/>
      <point x="103" y="-135"/>
      <point x="82" y="-122" type="curve"/>
      <point x="56" y="-166"/>
      <point x="82" y="-122"/>
      <point x="56" y="-166" type="curve"/>
      <point x="82" y="-183"/>
      <point x="106" y="-191"/>
      <point x="138" y="-191" type="curve"/>
      <point x="201" y="-191"/>
      <point x="243" y="-159"/>
      <point x="243" y="-99" type="curve"/>
      <point x="243" y="-41"/>
      <point x="209" y="-4"/>
      <point x="153" y="-4" type="curve"/>
      <point x="123" y="-4"/>
      <point x="102" y="-10"/>
      <point x="75" y="-24" type="curve"/>
      <point x="127" y="-73"/>
      <point x="75" y="-24"/>
    </contour>
  </outline>
</glyph>
<glyph name="onesuperior" format="1">
  <advance width="360"/>
  <unicode hex="00B9"/>
  <outline>
    <contour>
      <point x="203" y="729" type="move" name="_top"/>
    </contour>
    <contour>
      <point x="208" y="317" type="move" name="_bottom"/>
    </contour>
    <contour>
      <point x="174" y="316" type="curve"/>
      <point x="217" y="316"/>
      <point x="254" y="316"/>
      <point x="297" y="316" type="curve"/>
      <point x="297" y="369"/>
      <point x="297" y="315"/>
      <point x="297" y="368" type="curve"/>
      <point x="276" y="368"/>
      <point x="261" y="368"/>
      <point x="240" y="368" type="curve"/>
      <point x="174" y="315"/>
      <point x="240" y="369"/>
    </contour>
    <contour>
      <point x="240" y="368" type="curve"/>
      <point x="196" y="368"/>
      <point x="158" y="368"/>
      <point x="114" y="368" type="curve"/>
      <point x="114" y="315"/>
      <point x="114" y="369"/>
      <point x="114" y="316" type="curve"/>
      <point x="136" y="316"/>
      <point x="151" y="316"/>
      <point x="174" y="316" type="curve"/>
      <point x="240" y="369"/>
      <point x="174" y="315"/>
    </contour>
    <contour>
      <point x="99" y="589" type="line"/>
      <point x="239" y="726" type="line"/>
      <point x="174" y="731" type="line"/>
      <point x="62" y="627" type="line"/>
    </contour>
    <contour>
      <point x="240" y="368" type="curve"/>
      <point x="240" y="731" type="line"/>
      <point x="174" y="731" type="line"/>
      <point x="174" y="316" type="line"/>
      <point x="240" y="369"/>
      <point x="174" y="315"/>
    </contour>
  </outline>
</glyph>
<glyph name="ordmasculine" format="1">
  <advance width="417"/>
  <unicode hex="00BA"/>
  <outline>
    <contour>
      <point x="115" y="601" type="curve"/>
      <point x="115" y="672"/>
      <point x="141" y="726"/>
      <point x="208" y="726" type="curve"/>
      <point x="274" y="726"/>
      <point x="300" y="671"/>
      <point x="300" y="599" type="curve"/>
      <point x="300" y="523"/>
      <point x="275" y="466"/>
      <point x="213" y="466" type="curve"/>
      <point x="141" y="466"/>
      <point x="115" y="524"/>
      <point x="115" y="601" type="curve"/>
      <point x="91" y="601"/>
      <point x="87" y="601"/>
      <point x="63" y="601" type="curve"/>
      <point x="63" y="495"/>
      <point x="110" y="422"/>
      <point x="211" y="422" type="curve"/>
      <point x="307" y="422"/>
      <point x="355" y="493"/>
      <point x="355" y="599" type="curve"/>
      <point x="355" y="701"/>
      <point x="307" y="769"/>
      <point x="211" y="769" type="curve"/>
      <point x="111" y="769"/>
      <point x="63" y="701"/>
      <point x="63" y="601" type="curve"/>
      <point x="87" y="601"/>
      <point x="91" y="601"/>
    </contour>
  </outline>
</glyph>
<glyph name="guillemotright" format="1">
  <advance width="556"/>
  <unicode hex="00BB"/>
  <outline>
    <contour>
      <point x="290" y="436" type="curve"/>
      <point x="312" y="421"/>
      <point x="471" y="331"/>
      <point x="493" y="317" type="curve"/>
      <point x="493" y="251"/>
      <point x="493" y="311"/>
      <point x="493" y="245" type="curve"/>
      <point x="471" y="259"/>
      <point x="312" y="353"/>
      <point x="290" y="367" type="curve"/>
      <point x="290" y="433"/>
      <point x="290" y="370"/>
    </contour>
    <contour>
      <point x="290" y="195" type="curve"/>
      <point x="311" y="210"/>
      <point x="471" y="302"/>
      <point x="493" y="317" type="curve"/>
      <point x="493" y="251"/>
      <point x="493" y="311"/>
      <point x="493" y="245" type="curve"/>
      <point x="471" y="230"/>
      <point x="311" y="141"/>
      <point x="290" y="127" type="curve"/>
      <point x="290" y="192"/>
      <point x="290" y="130"/>
    </contour>
    <contour>
      <point x="85" y="436" type="curve"/>
      <point x="107" y="421"/>
      <point x="267" y="331"/>
      <point x="288" y="317" type="curve"/>
      <point x="288" y="251"/>
      <point x="288" y="311"/>
      <point x="288" y="245" type="curve"/>
      <point x="267" y="259"/>
      <point x="107" y="353"/>
      <point x="85" y="367" type="curve"/>
      <point x="85" y="433"/>
      <point x="85" y="370"/>
    </contour>
    <contour>
      <point x="85" y="195" type="curve"/>
      <point x="106" y="210"/>
      <point x="267" y="302"/>
      <point x="288" y="317" type="curve"/>
      <point x="288" y="251"/>
      <point x="288" y="311"/>
      <point x="288" y="245" type="curve"/>
      <point x="267" y="230"/>
      <point x="106" y="141"/>
      <point x="85" y="127" type="curve"/>
      <point x="85" y="192"/>
      <point x="85" y="130"/>
    </contour>
  </outline>
</glyph>
<glyph name="onequarter" format="1">
  <advance width="884"/>
  <unicode hex="00BC"/>
  <outline>
    <contour>
      <point x="296" y="-68" type="line"/>
      <point x="673" y="736" type="line"/>
      <point x="600" y="736" type="line"/>
      <point x="224" y="-68" type="line"/>
    </contour>
    <contour>
      <point x="151" y="323" type="curve"/>
      <point x="194" y="323"/>
      <point x="231" y="323"/>
      <point x="274" y="323" type="curve"/>
      <point x="274" y="376"/>
      <point x="274" y="322"/>
      <point x="274" y="374" type="curve"/>
      <point x="253" y="374"/>
      <point x="239" y="374"/>
      <point x="218" y="374" type="curve"/>
      <point x="151" y="322"/>
      <point x="218" y="376"/>
    </contour>
    <contour>
      <point x="218" y="374" type="curve"/>
      <point x="174" y="374"/>
      <point x="136" y="374"/>
      <point x="92" y="374" type="curve"/>
      <point x="92" y="322"/>
      <point x="92" y="376"/>
      <point x="92" y="323" type="curve"/>
      <point x="113" y="323"/>
      <point x="129" y="323"/>
      <point x="151" y="323" type="curve"/>
      <point x="218" y="376"/>
      <point x="151" y="322"/>
    </contour>
    <contour>
      <point x="76" y="595" type="line"/>
      <point x="217" y="733" type="line"/>
      <point x="151" y="738" type="line"/>
      <point x="40" y="634" type="line"/>
    </contour>
    <contour>
      <point x="218" y="374" type="curve"/>
      <point x="218" y="738" type="line"/>
      <point x="151" y="738" type="line"/>
      <point x="151" y="323" type="line"/>
      <point x="218" y="376"/>
      <point x="151" y="322"/>
    </contour>
    <contour>
      <point x="853" y="100" type="line"/>
      <point x="510" y="100" type="line"/>
      <point x="510" y="48" type="line"/>
      <point x="853" y="48" type="line"/>
    </contour>
    <contour>
      <point x="535" y="52" type="line"/>
      <point x="754" y="355" type="line"/>
      <point x="702" y="367" type="line"/>
      <point x="510" y="100" type="line"/>
    </contour>
    <contour>
      <point x="769" y="-68" type="line"/>
      <point x="769" y="367" type="line"/>
      <point x="702" y="367" type="line"/>
      <point x="702" y="-68" type="line"/>
    </contour>
    <contour>
      <point x="735" y="-21" type="line"/>
      <point x="639" y="-21" type="line"/>
      <point x="639" y="-69" type="line"/>
      <point x="735" y="-69" type="line"/>
    </contour>
    <contour>
      <point x="735" y="-69" type="line"/>
      <point x="831" y="-69" type="line"/>
      <point x="831" y="-21" type="line"/>
      <point x="735" y="-21" type="line"/>
    </contour>
  </outline>
</glyph>
<glyph name="onehalf" format="1">
  <advance width="939"/>
  <unicode hex="00BD"/>
  <outline>
    <contour>
      <point x="313" y="-68" type="line"/>
      <point x="689" y="736" type="line"/>
      <point x="617" y="736" type="line"/>
      <point x="241" y="-68" type="line"/>
    </contour>
    <contour>
      <point x="149" y="323" type="curve"/>
      <point x="192" y="323"/>
      <point x="230" y="323"/>
      <point x="273" y="323" type="curve"/>
      <point x="273" y="376"/>
      <point x="273" y="322"/>
      <point x="273" y="374" type="curve"/>
      <point x="251" y="374"/>
      <point x="237" y="374"/>
      <point x="216" y="374" type="curve"/>
      <point x="149" y="322"/>
      <point x="216" y="376"/>
    </contour>
    <contour>
      <point x="216" y="374" type="curve"/>
      <point x="173" y="374"/>
      <point x="134" y="374"/>
      <point x="90" y="374" type="curve"/>
      <point x="90" y="322"/>
      <point x="90" y="376"/>
      <point x="90" y="323" type="curve"/>
      <point x="112" y="323"/>
      <point x="127" y="323"/>
      <point x="149" y="323" type="curve"/>
      <point x="216" y="376"/>
      <point x="149" y="322"/>
    </contour>
    <contour>
      <point x="74" y="595" type="line"/>
      <point x="216" y="733" type="line"/>
      <point x="149" y="738" type="line"/>
      <point x="38" y="634" type="line"/>
    </contour>
    <contour>
      <point x="216" y="374" type="curve"/>
      <point x="216" y="738" type="line"/>
      <point x="149" y="738" type="line"/>
      <point x="149" y="323" type="line"/>
      <point x="216" y="376"/>
      <point x="149" y="322"/>
    </contour>
    <contour>
      <point x="901" y="-68" type="curve"/>
      <point x="901" y="-27"/>
      <point x="901" y="1"/>
      <point x="901" y="43" type="curve"/>
      <point x="843" y="43"/>
      <point x="906" y="43"/>
      <point x="849" y="43" type="curve"/>
      <point x="849" y="19"/>
      <point x="849" y="8"/>
      <point x="849" y="-15" type="curve"/>
      <point x="908" y="-66"/>
      <point x="841" y="-17"/>
    </contour>
    <contour>
      <point x="590" y="-68" type="curve"/>
      <point x="699" y="-68"/>
      <point x="806" y="-68"/>
      <point x="901" y="-68" type="curve"/>
      <point x="841" y="-17"/>
      <point x="908" y="-66"/>
      <point x="849" y="-15" type="curve"/>
      <point x="765" y="-15"/>
      <point x="675" y="-15"/>
      <point x="590" y="-15" type="curve"/>
      <point x="590" y="-67"/>
      <point x="590" y="-15"/>
    </contour>
    <contour>
      <point x="659" y="239" type="curve"/>
      <point x="679" y="276"/>
      <point x="701" y="304"/>
      <point x="745" y="304" type="curve"/>
      <point x="792" y="304"/>
      <point x="818" y="274"/>
      <point x="818" y="226" type="curve"/>
      <point x="818" y="182"/>
      <point x="791" y="158"/>
      <point x="759" y="126" type="curve"/>
      <point x="703" y="79"/>
      <point x="646" y="32"/>
      <point x="590" y="-15" type="curve"/>
      <point x="597" y="-67"/>
      <point x="591" y="-15"/>
      <point x="597" y="-67" type="curve"/>
      <point x="666" y="-15"/>
      <point x="740" y="35"/>
      <point x="799" y="85" type="curve"/>
      <point x="846" y="130"/>
      <point x="883" y="164"/>
      <point x="883" y="229" type="curve"/>
      <point x="883" y="309"/>
      <point x="830" y="357"/>
      <point x="749" y="357" type="curve"/>
      <point x="683" y="357"/>
      <point x="638" y="328"/>
      <point x="611" y="262" type="curve"/>
      <point x="659" y="239"/>
      <point x="611" y="262"/>
    </contour>
  </outline>
</glyph>
<glyph name="threequarters" format="1">
  <advance width="900"/>
  <unicode hex="00BE"/>
  <outline>
    <contour>
      <point x="317" y="-68" type="line"/>
      <point x="693" y="736" type="line"/>
      <point x="621" y="736" type="line"/>
      <point x="244" y="-68" type="line"/>
    </contour>
    <contour>
      <point x="85" y="646" type="curve"/>
      <point x="107" y="668"/>
      <point x="131" y="684"/>
      <point x="160" y="684" type="curve"/>
      <point x="205" y="684"/>
      <point x="235" y="662"/>
      <point x="235" y="618" type="curve"/>
      <point x="235" y="568"/>
      <point x="181" y="552"/>
      <point x="123" y="548" type="curve"/>
      <point x="123" y="503"/>
      <point x="123" y="548"/>
      <point x="123" y="503" type="curve"/>
      <point x="221" y="506"/>
      <point x="302" y="535"/>
      <point x="302" y="622" type="curve"/>
      <point x="302" y="699"/>
      <point x="247" y="736"/>
      <point x="167" y="736" type="curve"/>
      <point x="120" y="736"/>
      <point x="77" y="714"/>
      <point x="48" y="681" type="curve"/>
      <point x="85" y="646"/>
      <point x="48" y="681"/>
    </contour>
    <contour>
      <point x="45" y="343" type="curve"/>
      <point x="78" y="320"/>
      <point x="113" y="308"/>
      <point x="153" y="308" type="curve"/>
      <point x="248" y="305"/>
      <point x="317" y="343"/>
      <point x="315" y="431" type="curve"/>
      <point x="315" y="522"/>
      <point x="226" y="537"/>
      <point x="123" y="541" type="curve"/>
      <point x="123" y="501"/>
      <point x="123" y="541"/>
      <point x="123" y="501" type="curve"/>
      <point x="192" y="497"/>
      <point x="249" y="482"/>
      <point x="249" y="429" type="curve"/>
      <point x="248" y="381"/>
      <point x="212" y="357"/>
      <point x="160" y="358" type="curve"/>
      <point x="130" y="358"/>
      <point x="103" y="367"/>
      <point x="76" y="382" type="curve"/>
      <point x="45" y="343"/>
      <point x="76" y="382"/>
    </contour>
    <contour>
      <point x="871" y="100" type="line"/>
      <point x="529" y="100" type="line"/>
      <point x="529" y="48" type="line"/>
      <point x="871" y="48" type="line"/>
    </contour>
    <contour>
      <point x="553" y="52" type="line"/>
      <point x="772" y="355" type="line"/>
      <point x="720" y="367" type="line"/>
      <point x="529" y="100" type="line"/>
    </contour>
    <contour>
      <point x="786" y="-68" type="line"/>
      <point x="786" y="367" type="line"/>
      <point x="720" y="367" type="line"/>
      <point x="720" y="-68" type="line"/>
    </contour>
    <contour>
      <point x="753" y="-21" type="line"/>
      <point x="657" y="-21" type="line"/>
      <point x="657" y="-69" type="line"/>
      <point x="753" y="-69" type="line"/>
    </contour>
    <contour>
      <point x="753" y="-69" type="line"/>
      <point x="849" y="-69" type="line"/>
      <point x="849" y="-21" type="line"/>
      <point x="753" y="-21" type="line"/>
    </contour>
  </outline>
</glyph>
<glyph name="Atilde" format="1">
  <advance width="734"/>
  <unicode hex="00C3"/>
  <outline>
    <contour>
      <point x="112" y="60" type="curve"/>
      <point x="-27" y="60"/>
      <point x="124" y="60"/>
      <point x="-15" y="60" type="curve"/>
      <point x="-15" y="0"/>
      <point x="-15" y="60"/>
      <point x="-15" y="0" type="curve"/>
      <point x="31" y="0"/>
      <point x="66" y="0"/>
      <point x="112" y="0" type="curve"/>
      <point x="112" y="60"/>
      <point x="112" y="0"/>
    </contour>
    <contour>
      <point x="112" y="0" type="curve"/>
      <point x="165" y="0"/>
      <point x="103" y="0"/>
      <point x="262" y="0" type="curve"/>
      <point x="262" y="60"/>
      <point x="262" y="0"/>
      <point x="262" y="60" type="curve"/>
      <point x="103" y="60"/>
      <point x="270" y="60"/>
      <point x="112" y="60" type="curve"/>
      <point x="112" y="0"/>
      <point x="112" y="60"/>
    </contour>
    <contour>
      <point x="594" y="0" type="curve"/>
      <point x="640" y="0"/>
      <point x="674" y="0"/>
      <point x="721" y="0" type="curve"/>
      <point x="721" y="60"/>
      <point x="721" y="0"/>
      <point x="721" y="60" type="curve"/>
      <point x="583" y="60"/>
      <point x="732" y="60"/>
      <point x="594" y="60" type="curve"/>
      <point x="594" y="0"/>
      <point x="594" y="60"/>
    </contour>
    <contour>
      <point x="594" y="60" type="curve"/>
      <point x="435" y="60"/>
      <point x="603" y="60"/>
      <point x="444" y="60" type="curve"/>
      <point x="444" y="0"/>
      <point x="444" y="60"/>
      <point x="444" y="0" type="curve"/>
      <point x="497" y="0"/>
      <point x="541" y="0"/>
      <point x="594" y="0" type="curve"/>
      <point x="594" y="60"/>
      <point x="594" y="0"/>
    </contour>
    <contour>
      <point x="506" y="287" type="curve"/>
      <point x="409" y="287"/>
      <point x="313" y="287"/>
      <point x="217" y="287" type="curve"/>
      <point x="185" y="224"/>
      <point x="217" y="287"/>
      <point x="185" y="224" type="curve"/>
      <point x="300" y="224"/>
      <point x="415" y="224"/>
      <point x="530" y="224" type="curve"/>
      <point x="506" y="287"/>
      <point x="530" y="224"/>
    </contour>
    <contour>
      <point x="644" y="0" type="curve"/>
      <point x="564" y="241"/>
      <point x="482" y="481"/>
      <point x="402" y="722" type="curve"/>
      <point x="333" y="722"/>
      <point x="402" y="722"/>
      <point x="333" y="722" type="curve"/>
      <point x="411" y="481"/>
      <point x="486" y="241"/>
      <point x="564" y="0" type="curve"/>
      <point x="644" y="0"/>
      <point x="564" y="0"/>
    </contour>
    <contour>
      <point x="143" y="0" type="curve"/>
      <point x="230" y="241"/>
      <point x="313" y="481"/>
      <point x="400" y="722" type="curve"/>
      <point x="331" y="722"/>
      <point x="400" y="722"/>
      <point x="331" y="722" type="curve"/>
      <point x="243" y="481"/>
      <point x="148" y="241"/>
      <point x="59" y="0" type="curve"/>
      <point x="143" y="0"/>
      <point x="59" y="0"/>
    </contour>
    <contour>
      <point x="498" y="957" type="curve"/>
      <point x="485" y="912"/>
      <point x="473" y="877"/>
      <point x="442" y="877" type="curve"/>
      <point x="410" y="877"/>
      <point x="393" y="891"/>
      <point x="371" y="915" type="curve"/>
      <point x="344" y="943"/>
      <point x="324" y="961"/>
      <point x="287" y="961" type="curve"/>
      <point x="220" y="961"/>
      <point x="193" y="903"/>
      <point x="175" y="835" type="curve"/>
      <point x="232" y="807"/>
      <point x="175" y="836"/>
      <point x="232" y="807" type="curve"/>
      <point x="246" y="856"/>
      <point x="261" y="889"/>
      <point x="297" y="889" type="curve"/>
      <point x="326" y="889"/>
      <point x="339" y="873"/>
      <point x="358" y="852" type="curve"/>
      <point x="388" y="822"/>
      <point x="410" y="804"/>
      <point x="452" y="804" type="curve"/>
      <point x="519" y="804"/>
      <point x="539" y="863"/>
      <point x="559" y="931" type="curve"/>
      <point x="498" y="957"/>
      <point x="559" y="930"/>
    </contour>
  </outline>
</glyph>
<glyph name="Adieresis" format="1">
  <advance width="734"/>
  <unicode hex="00C4"/>
  <outline>
    <contour>
      <point x="112" y="60" type="curve"/>
      <point x="-27" y="60"/>
      <point x="124" y="60"/>
      <point x="-15" y="60" type="curve"/>
      <point x="-15" y="0"/>
      <point x="-15" y="60"/>
      <point x="-15" y="0" type="curve"/>
      <point x="31" y="0"/>
      <point x="66" y="0"/>
      <point x="112" y="0" type="curve"/>
      <point x="112" y="60"/>
      <point x="112" y="0"/>
    </contour>
    <contour>
      <point x="112" y="0" type="curve"/>
      <point x="165" y="0"/>
      <point x="103" y="0"/>
      <point x="262" y="0" type="curve"/>
      <point x="262" y="60"/>
      <point x="262" y="0"/>
      <point x="262" y="60" type="curve"/>
      <point x="103" y="60"/>
      <point x="270" y="60"/>
      <point x="112" y="60" type="curve"/>
      <point x="112" y="0"/>
      <point x="112" y="60"/>
    </contour>
    <contour>
      <point x="594" y="0" type="curve"/>
      <point x="640" y="0"/>
      <point x="674" y="0"/>
      <point x="721" y="0" type="curve"/>
      <point x="721" y="60"/>
      <point x="721" y="0"/>
      <point x="721" y="60" type="curve"/>
      <point x="583" y="60"/>
      <point x="732" y="60"/>
      <point x="594" y="60" type="curve"/>
      <point x="594" y="0"/>
      <point x="594" y="60"/>
    </contour>
    <contour>
      <point x="594" y="60" type="curve"/>
      <point x="435" y="60"/>
      <point x="603" y="60"/>
      <point x="444" y="60" type="curve"/>
      <point x="444" y="0"/>
      <point x="444" y="60"/>
      <point x="444" y="0" type="curve"/>
      <point x="497" y="0"/>
      <point x="541" y="0"/>
      <point x="594" y="0" type="curve"/>
      <point x="594" y="60"/>
      <point x="594" y="0"/>
    </contour>
    <contour>
      <point x="506" y="287" type="curve"/>
      <point x="409" y="287"/>
      <point x="313" y="287"/>
      <point x="217" y="287" type="curve"/>
      <point x="185" y="224"/>
      <point x="217" y="287"/>
      <point x="185" y="224" type="curve"/>
      <point x="300" y="224"/>
      <point x="415" y="224"/>
      <point x="530" y="224" type="curve"/>
      <point x="506" y="287"/>
      <point x="530" y="224"/>
    </contour>
    <contour>
      <point x="644" y="0" type="curve"/>
      <point x="564" y="241"/>
      <point x="482" y="481"/>
      <point x="402" y="722" type="curve"/>
      <point x="333" y="722"/>
      <point x="402" y="722"/>
      <point x="333" y="722" type="curve"/>
      <point x="411" y="481"/>
      <point x="486" y="241"/>
      <point x="564" y="0" type="curve"/>
      <point x="644" y="0"/>
      <point x="564" y="0"/>
    </contour>
    <contour>
      <point x="143" y="0" type="curve"/>
      <point x="230" y="241"/>
      <point x="313" y="481"/>
      <point x="400" y="722" type="curve"/>
      <point x="331" y="722"/>
      <point x="400" y="722"/>
      <point x="331" y="722" type="curve"/>
      <point x="243" y="481"/>
      <point x="148" y="241"/>
      <point x="59" y="0" type="curve"/>
      <point x="143" y="0"/>
      <point x="59" y="0"/>
    </contour>
    <contour>
      <point x="334" y="843" type="curve"/>
      <point x="334" y="870"/>
      <point x="315" y="883"/>
      <point x="289" y="883" type="curve"/>
      <point x="264" y="883"/>
      <point x="247" y="868"/>
      <point x="247" y="843" type="curve"/>
      <point x="330" y="843"/>
      <point x="250" y="843"/>
      <point x="334" y="843" type="curve"/>
      <point x="334" y="816"/>
      <point x="315" y="803"/>
      <point x="289" y="803" type="curve"/>
      <point x="263" y="803"/>
      <point x="247" y="816"/>
      <point x="247" y="843" type="curve"/>
      <point x="330" y="843"/>
      <point x="250" y="843"/>
    </contour>
    <contour>
      <point x="483" y="843" type="curve"/>
      <point x="483" y="870"/>
      <point x="465" y="883"/>
      <point x="439" y="883" type="curve"/>
      <point x="413" y="883"/>
      <point x="396" y="868"/>
      <point x="396" y="843" type="curve"/>
      <point x="480" y="843"/>
      <point x="400" y="843"/>
      <point x="483" y="843" type="curve"/>
      <point x="483" y="816"/>
      <point x="465" y="803"/>
      <point x="439" y="803" type="curve"/>
      <point x="412" y="803"/>
      <point x="396" y="816"/>
      <point x="396" y="843" type="curve"/>
      <point x="480" y="843"/>
      <point x="400" y="843"/>
    </contour>
  </outline>
</glyph>
<glyph name="AE" format="1">
  <advance width="897"/>
  <unicode hex="00C6"/>
  <outline>
    <contour>
      <point x="105" y="60" type="curve"/>
      <point x="-14" y="60"/>
      <point x="109" y="60"/>
      <point x="-10" y="60" type="curve"/>
      <point x="-10" y="0"/>
      <point x="-10" y="60"/>
      <point x="-10" y="0" type="curve"/>
      <point x="30" y="0"/>
      <point x="65" y="0"/>
      <point x="105" y="0" type="curve"/>
      <point x="105" y="60"/>
      <point x="105" y="0"/>
    </contour>
    <contour>
      <point x="105" y="0" type="curve"/>
      <point x="156" y="0"/>
      <point x="99" y="0"/>
      <point x="251" y="0" type="curve"/>
      <point x="251" y="60"/>
      <point x="251" y="0"/>
      <point x="251" y="60" type="curve"/>
      <point x="99" y="60"/>
      <point x="258" y="60"/>
      <point x="105" y="60" type="curve"/>
      <point x="105" y="0"/>
      <point x="105" y="60"/>
    </contour>
    <contour>
      <point x="462" y="273" type="curve"/>
      <point x="365" y="273"/>
      <point x="320" y="273"/>
      <point x="224" y="273" type="curve"/>
      <point x="193" y="210"/>
      <point x="224" y="273"/>
      <point x="193" y="210" type="curve"/>
      <point x="308" y="210"/>
      <point x="371" y="210"/>
      <point x="486" y="210" type="curve"/>
      <point x="462" y="273"/>
      <point x="486" y="210"/>
    </contour>
    <contour>
      <point x="136" y="0" type="curve"/>
      <point x="518" y="722" type="line"/>
      <point x="449" y="722"/>
      <point x="517" y="722"/>
      <point x="448" y="722" type="curve"/>
      <point x="52" y="0" type="line"/>
      <point x="136" y="0"/>
      <point x="53" y="0"/>
    </contour>
    <contour>
      <point x="852" y="30" type="curve"/>
      <point x="852" y="150"/>
      <point x="852" y="26"/>
      <point x="852" y="146" type="curve"/>
      <point x="791" y="146"/>
      <point x="852" y="146"/>
      <point x="791" y="146" type="curve"/>
      <point x="791" y="26"/>
      <point x="791" y="150"/>
      <point x="791" y="30" type="curve"/>
      <point x="852" y="30"/>
      <point x="791" y="30"/>
    </contour>
    <contour>
      <point x="762" y="692" type="curve"/>
      <point x="762" y="572"/>
      <point x="762" y="696"/>
      <point x="762" y="576" type="curve"/>
      <point x="823" y="576"/>
      <point x="762" y="576"/>
      <point x="823" y="576" type="curve"/>
      <point x="823" y="696"/>
      <point x="823" y="572"/>
      <point x="823" y="692" type="curve"/>
      <point x="762" y="692"/>
      <point x="823" y="692"/>
    </contour>
    <contour>
      <point x="474" y="60" type="curve"/>
      <point x="332" y="60"/>
      <point x="483" y="60"/>
      <point x="340" y="60" type="curve"/>
      <point x="340" y="0"/>
      <point x="340" y="60"/>
      <point x="340" y="0" type="curve"/>
      <point x="388" y="0"/>
      <point x="427" y="0"/>
      <point x="474" y="0" type="curve"/>
      <point x="474" y="60"/>
      <point x="474" y="0"/>
    </contour>
    <contour>
      <point x="474" y="722" type="curve"/>
      <point x="427" y="722"/>
      <point x="388" y="722"/>
      <point x="340" y="722" type="curve"/>
      <point x="340" y="662"/>
      <point x="340" y="722"/>
      <point x="340" y="662" type="curve"/>
      <point x="483" y="662"/>
      <point x="332" y="662"/>
      <point x="474" y="662" type="curve"/>
      <point x="474" y="722"/>
      <point x="474" y="662"/>
    </contour>
    <contour>
      <point x="477" y="343" type="curve"/>
      <point x="574" y="343"/>
      <point x="670" y="343"/>
      <point x="767" y="343" type="curve"/>
      <point x="767" y="403"/>
      <point x="767" y="343"/>
      <point x="767" y="403" type="curve"/>
      <point x="670" y="403"/>
      <point x="574" y="403"/>
      <point x="477" y="403" type="curve"/>
      <point x="477" y="343"/>
      <point x="477" y="403"/>
    </contour>
    <contour>
      <point x="463" y="662" type="curve"/>
      <point x="584" y="662"/>
      <point x="702" y="662"/>
      <point x="823" y="662" type="curve"/>
      <point x="823" y="722"/>
      <point x="823" y="662"/>
      <point x="823" y="722" type="curve"/>
      <point x="702" y="722"/>
      <point x="584" y="722"/>
      <point x="463" y="722" type="curve"/>
      <point x="463" y="662"/>
      <point x="463" y="722"/>
    </contour>
    <contour>
      <point x="511" y="0" type="curve"/>
      <point x="511" y="722" type="line"/>
      <point x="436" y="722"/>
      <point x="511" y="722"/>
      <point x="436" y="722" type="curve"/>
      <point x="436" y="481"/>
      <point x="436" y="241"/>
      <point x="436" y="0" type="curve"/>
      <point x="511" y="0"/>
      <point x="436" y="0"/>
    </contour>
    <contour>
      <point x="463" y="0" type="curve"/>
      <point x="594" y="0"/>
      <point x="722" y="0"/>
      <point x="852" y="0" type="curve"/>
      <point x="852" y="60"/>
      <point x="852" y="0"/>
      <point x="852" y="60" type="curve"/>
      <point x="722" y="60"/>
      <point x="594" y="60"/>
      <point x="463" y="60" type="curve"/>
      <point x="463" y="0"/>
      <point x="463" y="60"/>
    </contour>
  </outline>
</glyph>
<glyph name="Egrave" format="1">
  <advance width="609"/>
  <unicode hex="00C8"/>
  <outline>
    <contour>
      <point x="564" y="30" type="curve"/>
      <point x="564" y="150"/>
      <point x="564" y="26"/>
      <point x="564" y="146" type="curve"/>
      <point x="503" y="146"/>
      <point x="564" y="146"/>
      <point x="503" y="146" type="curve"/>
      <point x="503" y="26"/>
      <point x="503" y="150"/>
      <point x="503" y="30" type="curve"/>
      <point x="564" y="30"/>
      <point x="503" y="30"/>
    </contour>
    <contour>
      <point x="473" y="692" type="curve"/>
      <point x="473" y="572"/>
      <point x="473" y="696"/>
      <point x="473" y="576" type="curve"/>
      <point x="534" y="576"/>
      <point x="473" y="576"/>
      <point x="534" y="576" type="curve"/>
      <point x="534" y="696"/>
      <point x="534" y="572"/>
      <point x="534" y="692" type="curve"/>
      <point x="473" y="692"/>
      <point x="534" y="692"/>
    </contour>
    <contour>
      <point x="186" y="60" type="curve"/>
      <point x="43" y="60"/>
      <point x="194" y="60"/>
      <point x="52" y="60" type="curve"/>
      <point x="52" y="0"/>
      <point x="52" y="60"/>
      <point x="52" y="0" type="curve"/>
      <point x="99" y="0"/>
      <point x="138" y="0"/>
      <point x="186" y="0" type="curve"/>
      <point x="186" y="60"/>
      <point x="186" y="0"/>
    </contour>
    <contour>
      <point x="186" y="722" type="curve"/>
      <point x="138" y="722"/>
      <point x="99" y="722"/>
      <point x="52" y="722" type="curve"/>
      <point x="52" y="662"/>
      <point x="52" y="722"/>
      <point x="52" y="662" type="curve"/>
      <point x="194" y="662"/>
      <point x="43" y="662"/>
      <point x="186" y="662" type="curve"/>
      <point x="186" y="722"/>
      <point x="186" y="662"/>
    </contour>
    <contour>
      <point x="189" y="343" type="curve"/>
      <point x="285" y="343"/>
      <point x="382" y="343"/>
      <point x="478" y="343" type="curve"/>
      <point x="478" y="403"/>
      <point x="478" y="343"/>
      <point x="478" y="403" type="curve"/>
      <point x="382" y="403"/>
      <point x="285" y="403"/>
      <point x="189" y="403" type="curve"/>
      <point x="189" y="343"/>
      <point x="189" y="403"/>
    </contour>
    <contour>
      <point x="175" y="662" type="curve"/>
      <point x="295" y="662"/>
      <point x="414" y="662"/>
      <point x="534" y="662" type="curve"/>
      <point x="534" y="722"/>
      <point x="534" y="662"/>
      <point x="534" y="722" type="curve"/>
      <point x="414" y="722"/>
      <point x="295" y="722"/>
      <point x="175" y="722" type="curve"/>
      <point x="175" y="662"/>
      <point x="175" y="722"/>
    </contour>
    <contour>
      <point x="224" y="0" type="curve"/>
      <point x="224" y="722" type="line"/>
      <point x="147" y="722"/>
      <point x="224" y="722"/>
      <point x="147" y="722" type="curve"/>
      <point x="147" y="481"/>
      <point x="147" y="241"/>
      <point x="147" y="0" type="curve"/>
      <point x="224" y="0"/>
      <point x="147" y="0"/>
    </contour>
    <contour>
      <point x="175" y="0" type="curve"/>
      <point x="305" y="0"/>
      <point x="434" y="0"/>
      <point x="564" y="0" type="curve"/>
      <point x="564" y="60"/>
      <point x="564" y="0"/>
      <point x="564" y="60" type="curve"/>
      <point x="434" y="60"/>
      <point x="305" y="60"/>
      <point x="175" y="60" type="curve"/>
      <point x="175" y="0"/>
      <point x="175" y="60"/>
    </contour>
    <contour>
      <point x="356" y="806" type="line"/>
      <point x="256" y="972" type="line"/>
      <point x="160" y="972" type="line"/>
      <point x="282" y="806" type="line"/>
    </contour>
  </outline>
</glyph>
<glyph name="Igrave" format="1">
  <advance width="354"/>
  <unicode hex="00CC"/>
  <outline>
    <contour>
      <point x="178" y="722" type="curve"/>
      <point x="130" y="722"/>
      <point x="93" y="722"/>
      <point x="44" y="722" type="curve"/>
      <point x="44" y="662"/>
      <point x="44" y="722"/>
      <point x="44" y="662" type="curve"/>
      <point x="191" y="662"/>
      <point x="32" y="662"/>
      <point x="178" y="662" type="curve"/>
      <point x="178" y="722"/>
      <point x="178" y="662"/>
    </contour>
    <contour>
      <point x="178" y="662" type="curve"/>
      <point x="325" y="662"/>
      <point x="167" y="662"/>
      <point x="313" y="662" type="curve"/>
      <point x="313" y="722"/>
      <point x="313" y="662"/>
      <point x="313" y="722" type="curve"/>
      <point x="264" y="722"/>
      <point x="227" y="722"/>
      <point x="178" y="722" type="curve"/>
      <point x="178" y="662"/>
      <point x="178" y="722"/>
    </contour>
    <contour>
      <point x="178" y="0" type="curve"/>
      <point x="227" y="0"/>
      <point x="264" y="0"/>
      <point x="313" y="0" type="curve"/>
      <point x="313" y="60"/>
      <point x="313" y="0"/>
      <point x="313" y="60" type="curve"/>
      <point x="167" y="60"/>
      <point x="325" y="60"/>
      <point x="178" y="60" type="curve"/>
      <point x="178" y="0"/>
      <point x="178" y="60"/>
    </contour>
    <contour>
      <point x="178" y="60" type="curve"/>
      <point x="32" y="60"/>
      <point x="191" y="60"/>
      <point x="44" y="60" type="curve"/>
      <point x="44" y="0"/>
      <point x="44" y="60"/>
      <point x="44" y="0" type="curve"/>
      <point x="93" y="0"/>
      <point x="130" y="0"/>
      <point x="178" y="0" type="curve"/>
      <point x="178" y="60"/>
      <point x="178" y="0"/>
    </contour>
    <contour>
      <point x="216" y="0" type="curve"/>
      <point x="216" y="241"/>
      <point x="216" y="481"/>
      <point x="216" y="722" type="curve"/>
      <point x="140" y="722"/>
      <point x="216" y="722"/>
      <point x="140" y="722" type="curve"/>
      <point x="140" y="481"/>
      <point x="140" y="241"/>
      <point x="140" y="0" type="curve"/>
      <point x="216" y="0"/>
      <point x="140" y="0"/>
    </contour>
    <contour>
      <point x="219" y="806" type="line"/>
      <point x="120" y="972" type="line"/>
      <point x="23" y="972" type="line"/>
      <point x="145" y="806" type="line"/>
    </contour>
  </outline>
</glyph>
<glyph name="Idieresis" format="1">
  <advance width="352"/>
  <unicode hex="00CF"/>
  <outline>
    <contour>
      <point x="177" y="722" type="curve"/>
      <point x="128" y="722"/>
      <point x="91" y="722"/>
      <point x="42" y="722" type="curve"/>
      <point x="42" y="662"/>
      <point x="42" y="722"/>
      <point x="42" y="662" type="curve"/>
      <point x="188" y="662"/>
      <point x="30" y="662"/>
      <point x="177" y="662" type="curve"/>
      <point x="177" y="722"/>
      <point x="177" y="662"/>
    </contour>
    <contour>
      <point x="177" y="662" type="curve"/>
      <point x="323" y="662"/>
      <point x="165" y="662"/>
      <point x="311" y="662" type="curve"/>
      <point x="311" y="722"/>
      <point x="311" y="662"/>
      <point x="311" y="722" type="curve"/>
      <point x="262" y="722"/>
      <point x="225" y="722"/>
      <point x="177" y="722" type="curve"/>
      <point x="177" y="662"/>
      <point x="177" y="722"/>
    </contour>
    <contour>
      <point x="177" y="0" type="curve"/>
      <point x="225" y="0"/>
      <point x="262" y="0"/>
      <point x="311" y="0" type="curve"/>
      <point x="311" y="60"/>
      <point x="311" y="0"/>
      <point x="311" y="60" type="curve"/>
      <point x="165" y="60"/>
      <point x="323" y="60"/>
      <point x="177" y="60" type="curve"/>
      <point x="177" y="0"/>
      <point x="177" y="60"/>
    </contour>
    <contour>
      <point x="177" y="60" type="curve"/>
      <point x="30" y="60"/>
      <point x="188" y="60"/>
      <point x="42" y="60" type="curve"/>
      <point x="42" y="0"/>
      <point x="42" y="60"/>
      <point x="42" y="0" type="curve"/>
      <point x="91" y="0"/>
      <point x="128" y="0"/>
      <point x="177" y="0" type="curve"/>
      <point x="177" y="60"/>
      <point x="177" y="0"/>
    </contour>
    <contour>
      <point x="214" y="0" type="curve"/>
      <point x="214" y="241"/>
      <point x="214" y="481"/>
      <point x="214" y="722" type="curve"/>
      <point x="138" y="722"/>
      <point x="214" y="722"/>
      <point x="138" y="722" type="curve"/>
      <point x="138" y="481"/>
      <point x="138" y="241"/>
      <point x="138" y="0" type="curve"/>
      <point x="214" y="0"/>
      <point x="138" y="0"/>
    </contour>
    <contour>
      <point x="146" y="843" type="curve"/>
      <point x="146" y="870"/>
      <point x="128" y="883"/>
      <point x="102" y="883" type="curve"/>
      <point x="76" y="883"/>
      <point x="58" y="868"/>
      <point x="58" y="843" type="curve"/>
      <point x="143" y="843"/>
      <point x="62" y="843"/>
      <point x="146" y="843" type="curve"/>
      <point x="146" y="816"/>
      <point x="128" y="803"/>
      <point x="102" y="803" type="curve"/>
      <point x="75" y="803"/>
      <point x="58" y="816"/>
      <point x="58" y="843" type="curve"/>
      <point x="143" y="843"/>
      <point x="62" y="843"/>
    </contour>
    <contour>
      <point x="296" y="843" type="curve"/>
      <point x="296" y="870"/>
      <point x="277" y="883"/>
      <point x="251" y="883" type="curve"/>
      <point x="224" y="883"/>
      <point x="208" y="868"/>
      <point x="208" y="843" type="curve"/>
      <point x="291" y="843"/>
      <point x="211" y="843"/>
      <point x="296" y="843" type="curve"/>
      <point x="296" y="816"/>
      <point x="277" y="803"/>
      <point x="251" y="803" type="curve"/>
      <point x="224" y="803"/>
      <point x="208" y="816"/>
      <point x="208" y="843" type="curve"/>
      <point x="291" y="843"/>
      <point x="211" y="843"/>
    </contour>
  </outline>
</glyph>
